<svg width="117" height="37" xmlns="http://www.w3.org/2000/svg" fill="none">
 <g id="Layer_1">
  <title>Layer 1</title>
  <line id="svg_5" y2="31.37436" x2="285.74712" y1="19.87449" x1="291.62206" stroke="null" fill="none"/>
  <text fill="#000000" stroke-width="0" x="182.63834" y="54.90929" id="svg_3" font-size="24" font-family="'Manrope'" text-anchor="start" xml:space="preserve" stroke="null" transform="matrix(2.73134 0 0 2.27846 -318.783 -73.6998)">.</text>

  <g stroke="null">
   <g stroke="null" transform="translate(175.16 82.69)">
    <path stroke="null" fill="#94d137" d="m-168.3458,-75.63001l0,0l0,0q3.82938,0 3.82938,6.09935l0,0l-1.15632,0l0,0q0,-3.80838 -2.67306,-3.80838l0,0l0,0q-2.68056,0 -2.68056,3.09431l0,0l0,0q0,3.10918 1.86964,3.88276l0,0l1.87715,0.81821l0,0q2.99592,1.2645 2.99592,6.70929l0,0l0,0q0,6.08448 -4.06214,6.08448l0,0l0,0q-4.06965,0 -4.06965,-7.63163l0,0l1.15632,0l0,0q0,5.34065 2.91333,5.34065l0,0l0,0q2.90582,0 2.90582,-3.7935l0,0l0,0q0,-3.80838 -2.1024,-4.71584l0,0l-1.87715,-0.80333l0,0q-2.76316,-1.11574 -2.76316,-5.89108l0,0l0,0q0,-5.38528 3.83689,-5.38528zm10.39939,14.72771l1.95974,2.84141l0,0q0.6082,-2.24635 0.6082,-6.12911l0,0l0,0q0,-4.58195 -0.83345,-6.85805l0,0l0,0q-0.83345,-2.29098 -2.51537,-2.29098l0,0l0,0q-1.66691,0 -2.50787,2.29098l0,0l0,0q-0.84096,2.2761 -0.84096,6.85805l0,0l0,0q0,4.58195 0.84096,6.85805l0,0l0,0q0.84096,2.29098 2.50787,2.29098l0,0l0,0q1.23141,0 2.0123,-1.23475l0,0l-1.90718,-2.75215l0.67577,-1.87444zm3.6792,8.15231l-1.44165,-2.06783l0,0q-1.09625,2.06783 -3.01845,2.06783l0,0l0,0q-2.24507,0 -3.37886,-2.87116l0,0l0,0q-1.11878,-2.85628 -1.11878,-8.56885l0,0l0,0q0,-5.72744 1.11878,-8.58373l0,0l0,0q1.1338,-2.85628 3.37886,-2.85628l0,0l0,0q2.26008,0 3.38637,2.85628l0,0l0,0q1.11878,2.85628 1.11878,8.58373l0,0l0,0q0,4.77535 -0.78089,7.55725l0,0l1.41161,2.03808l-0.67577,1.84468zm6.05943,0l0,0l0,0q-4.23484,0 -4.23484,-7.63163l0,0l0,-15.24839l1.15632,0l0,15.24839l0,0q0,5.34065 3.07852,5.34065l0,0l0,0q3.07852,0 3.07852,-5.34065l0,0l0,-15.24839l1.15632,0l0,15.24839l0,0q0,7.63163 -4.23484,7.63163zm8.2219,-9.1044l3.63415,0l-1.81708,-10.45816l-1.81708,10.45816zm1.17885,-13.77561l1.27646,0l3.98706,22.88002l-1.2239,0l-1.18636,-6.81343l-4.43006,0l-1.18636,6.81343l-1.2239,0l3.98706,-22.88002zm7.74135,2.29098l0,7.92916l2.95838,0l0,0q1.33653,0 1.99728,-0.99672l0,0l0,0q0.66076,-0.98185 0.66076,-2.97529l0,0l0,0q0,-1.97857 -0.66076,-2.97529l0,0l0,0q-0.66076,-0.98185 -1.99728,-0.98185l0,0l-2.95838,0zm7.16319,20.58904l-1.27646,0l-2.52288,-10.38378l0,0q-0.20273,0.01488 -0.40546,0.01488l0,0l-2.95838,0l0,10.3689l-1.15632,0l0,-22.88002l4.1147,0l0,0q1.91469,0 2.86077,1.56203l0,0l0,0q0.95359,1.56203 0.95359,4.68609l0,0l0,0q0,2.38024 -0.55564,3.86788l0,0l0,0q-0.55564,1.47277 -1.6594,2.03808l0,0l2.60548,10.72594zm2.47032,-20.58904l0,7.92916l2.96589,0l0,0q1.33653,0 1.99728,-0.99672l0,0l0,0q0.66076,-0.98185 0.66076,-2.97529l0,0l0,0q0,-1.97857 -0.66076,-2.97529l0,0l0,0q-0.66076,-0.98185 -1.99728,-0.98185l0,0l-2.96589,0zm7.1707,20.58904l-1.27646,0l-2.53039,-10.38378l0,0q-0.19522,0.01488 -0.39795,0.01488l0,0l-2.96589,0l0,10.3689l-1.14881,0l0,-22.88002l4.1147,0l0,0q1.90718,0 2.86077,1.56203l0,0l0,0q0.95359,1.56203 0.95359,4.68609l0,0l0,0q0,2.38024 -0.55564,3.86788l0,0l0,0q-0.55564,1.47277 -1.66691,2.03808l0,0l2.61299,10.72594zm8.93521,-11.02347l-6.46489,0l0,8.73249l6.85533,0l0,2.29098l-8.01166,0l0,-22.88002l7.85398,0l0,2.29098l-6.69765,0l0,7.2746l6.46489,0l0,2.29098zm13.33524,-7.2746l0,0q-0.84096,-2.29098 -2.5379,-2.29098l0,0l-2.69558,0l0,18.29806l2.31264,0l0,0q1.88465,0 2.83074,-2.29098l0,0l0,0q0.93857,-2.2761 0.93857,-6.85805l0,0l0,0q0,-4.58195 -0.84847,-6.85805l0,0zm2.00479,6.85805l0,0l0,0q0,5.71257 -1.23141,8.56885l0,0l0,0q-1.23141,2.87116 -3.69422,2.87116l0,0l-3.46896,0l0,-22.88002l3.8519,0l0,0q2.2751,0 3.4089,2.85628l0,0l0,0q1.1338,2.85628 1.1338,8.58373zm9.43078,0.41654l-6.46489,0l0,8.73249l6.84783,0l0,2.29098l-8.00415,0l0,-22.88002l7.85398,0l0,2.29098l-6.69765,0l0,7.2746l6.46489,0l0,2.29098zm5.71403,-11.85655l0,0l0,0q3.83689,0 3.83689,6.09935l0,0l-1.15632,0l0,0q0,-3.80838 -2.68056,-3.80838l0,0l0,0q-2.68056,0 -2.68056,3.09431l0,0l0,0q0,3.10918 1.86964,3.88276l0,0l1.88465,0.81821l0,0q2.98842,1.2645 2.98842,6.70929l0,0l0,0q0,6.08448 -4.06214,6.08448l0,0l0,0q-4.06214,0 -4.06214,-7.63163l0,0l1.14881,0l0,0q0,5.34065 2.91333,5.34065l0,0l0,0q2.91333,0 2.91333,-3.7935l0,0l0,0q0,-3.80838 -2.1024,-4.71584l0,0l-1.88465,-0.80333l0,0q-2.76316,-1.11574 -2.76316,-5.89108l0,0l0,0q0,-5.38528 3.83689,-5.38528zm13.89838,22.88002l-1.38909,0l-4.13723,-12.27309l-1.44165,2.72239l0,9.5507l-1.15632,0l0,-22.88002l1.15632,0l0,10.17551l5.33109,-10.17551l1.67441,0l-4.7229,8.98539l4.68535,13.89463z"/>
   </g>
  </g>
 </g>

</svg>
