<svg width="48" height="48" viewBox="0 0 24 24" fill="#25314C" xmlns="http://www.w3.org/2000/svg"><path d="M20.944 10.819a1.252 1.252 0 0 1-.944.431h-6.008a1.244 1.244 0 0 1-1.242-1.242V4a1.248 1.248 0 0 1 1.412-1.238 8.341 8.341 0 0 1 7.076 7.076 1.236 1.236 0 0 1-.294.981ZM18.981 13.6a1.2 1.2 0 0 0-.937-.446h-5.951a1.251 1.251 0 0 1-1.25-1.25V5.956a1.207 1.207 0 0 0-.446-.938 1.171 1.171 0 0 0-.971-.245 8.323 8.323 0 0 0-.138 16.291 8.686 8.686 0 0 0 1.777.185 8.278 8.278 0 0 0 4.579-1.371 8.386 8.386 0 0 0 3.583-5.3 1.163 1.163 0 0 0-.246-.978Z" fill="#000000"></path></svg>