<svg width="48" height="48" viewBox="0 0 24 24" fill="#25314C" xmlns="http://www.w3.org/2000/svg"><path d="M12 3a9 9 0 0 0-7.74 13.59L3 21l4.41-1.26A9 9 0 1 0 12 3Zm4.825 12.442c-.21.585-1.212 1.129-1.662 1.179-.451.051-.872.212-2.955-.614-2.504-.998-4.086-3.578-4.206-3.739C7.882 12.107 7 10.928 7 9.709s.631-1.814.861-2.066a.91.91 0 0 1 .661-.312c.17 0 .33 0 .481.01.17 0 .371.01.551.423.22.494.691 1.713.751 1.824.06.12.1.272.02.433-.091.161-.13.272-.25.413-.12.141-.261.323-.371.433-.13.121-.25.252-.11.504.151.242.641 1.058 1.372 1.713.942.847 1.733 1.109 1.983 1.229.24.121.39.101.531-.06.15-.161.621-.715.781-.967.16-.242.321-.202.551-.121.231.081 1.432.685 1.683.806.24.131.411.191.471.292.06.101.06.605-.14 1.179Z" fill="#000000"></path></svg>