<svg width="41" height="40" viewBox="0 0 41 40" fill="none" xmlns="http://www.w3.org/2000/svg">
<path d="M4.08203 35.4163C3.39168 35.4163 2.83203 35.9759 2.83203 36.6663C2.83203 37.3567 3.39168 37.9163 4.08203 37.9163V35.4163ZM37.4154 35.4163H4.08203V37.9163H37.4154V35.4163ZM28.25 22.9163H33.25V20.4163H28.25V22.9163ZM34.5 24.1663V36.6663H37V24.1663H34.5ZM27 36.6663V24.1663H24.5V36.6663H27ZM33.25 22.9163C33.9404 22.9163 34.5 23.4759 34.5 24.1663H37C37 22.0952 35.3211 20.4163 33.25 20.4163V22.9163ZM28.25 20.4163C26.1789 20.4163 24.5 22.0952 24.5 24.1663H27C27 23.4759 27.5596 22.9163 28.25 22.9163V20.4163ZM24.5 8.33337V36.6663H27V8.33337H24.5ZM17 36.6667V8.33337H14.5V36.6667H17ZM20.75 4.58337C21.9638 4.58337 22.7485 4.58603 23.3266 4.66376C23.8688 4.73665 24.0387 4.85434 24.1339 4.94949L25.9016 3.18172C25.2646 2.54465 24.4791 2.29621 23.6597 2.18605C22.8763 2.08072 21.8932 2.08337 20.75 2.08337V4.58337ZM27 8.33337C27 7.1902 27.0027 6.20707 26.8973 5.42364C26.7872 4.60424 26.5387 3.8188 25.9016 3.18172L24.1339 4.94949C24.229 5.04465 24.3467 5.21458 24.4196 5.75675C24.4973 6.33489 24.5 7.11953 24.5 8.33337H27ZM20.75 2.08337C19.6068 2.08337 18.6237 2.08072 17.8403 2.18605C17.0209 2.29621 16.2354 2.54465 15.5983 3.18172L17.3661 4.94949C17.4613 4.85434 17.6312 4.73665 18.1734 4.66376C18.7515 4.58603 19.5362 4.58337 20.75 4.58337V2.08337ZM17 8.33337C17 7.11953 17.0027 6.33489 17.0804 5.75675C17.1533 5.21458 17.271 5.04465 17.3661 4.94949L15.5983 3.18172C14.9613 3.8188 14.7128 4.60424 14.6027 5.42363C14.4973 6.20707 14.5 7.1902 14.5 8.33337H17ZM8.25 14.5834H13.25V12.0834H8.25V14.5834ZM14.5 15.8334V36.6667H17V15.8334H14.5ZM7 36.6667V15.8334H4.5V36.6667H7ZM13.25 14.5834C13.9404 14.5834 14.5 15.143 14.5 15.8334H17C17 13.7623 15.3211 12.0834 13.25 12.0834V14.5834ZM8.25 12.0834C6.17893 12.0834 4.5 13.7623 4.5 15.8334H7C7 15.143 7.55964 14.5834 8.25 14.5834V12.0834Z" fill="#79D45E"/>
</svg>
