<svg width="40" height="40" viewBox="0 0 40 40" fill="none" xmlns="http://www.w3.org/2000/svg">
<path d="M22.1925 8.21493L22.8238 8.84628L22.1925 8.21493ZM31.6206 8.21493L30.9892 8.84628L31.6206 8.21493ZM30.0017 36.6668V35.774V36.6668ZM15.7764 10.0002V30.0002H17.5621V10.0002H15.7764ZM4.22879 30.0002V10.0002H2.44308V30.0002H4.22879ZM10.0026 35.774C6.81382 35.774 4.22879 33.1889 4.22879 30.0002H2.44308C2.44308 34.1752 5.82759 37.5597 10.0026 37.5597V35.774ZM15.7764 30.0002C15.7764 33.1889 13.1914 35.774 10.0026 35.774V37.5597C14.1776 37.5597 17.5621 34.1752 17.5621 30.0002H15.7764ZM10.0026 4.22635C13.1914 4.22635 15.7764 6.81138 15.7764 10.0002H17.5621C17.5621 5.82515 14.1776 2.44064 10.0026 2.44064V4.22635ZM10.0026 2.44064C5.82759 2.44064 2.44308 5.82515 2.44308 10.0002H4.22879C4.22879 6.81138 6.81382 4.22635 10.0026 4.22635V2.44064ZM17.301 14.369L22.8238 8.84628L21.5611 7.58359L16.0384 13.1064L17.301 14.369ZM30.9892 8.84628C33.244 11.1011 33.244 14.7569 30.9892 17.0117L32.2519 18.2744C35.2041 15.3222 35.2041 10.5358 32.2519 7.58359L30.9892 8.84628ZM32.2519 7.58359C29.2997 4.63141 24.5133 4.63141 21.5611 7.58359L22.8238 8.84628C25.0786 6.59146 28.7344 6.59147 30.9892 8.84628L32.2519 7.58359ZM30.9892 17.0117L14.8823 33.1186L16.145 34.3813L32.2519 18.2744L30.9892 17.0117ZM30.0017 35.774L10.0017 35.774V37.5597L30.0017 37.5597V35.774ZM25.835 24.2264H30.0017V22.4406H25.835V24.2264ZM35.7755 30.0002C35.7755 33.1889 33.1905 35.774 30.0017 35.774V37.5597C34.1767 37.5597 37.5612 34.1752 37.5612 30.0002H35.7755ZM37.5612 30.0002C37.5612 25.8252 34.1767 22.4406 30.0017 22.4406V24.2264C33.1905 24.2264 35.7755 26.8114 35.7755 30.0002H37.5612ZM10.7764 30.0002C10.7764 30.4275 10.43 30.774 10.0026 30.774V32.5597C11.4162 32.5597 12.5621 31.4137 12.5621 30.0002H10.7764ZM10.0026 30.774C9.57524 30.774 9.22879 30.4275 9.22879 30.0002H7.44308C7.44308 31.4137 8.58902 32.5597 10.0026 32.5597V30.774ZM9.22879 30.0002C9.22879 29.5728 9.57524 29.2264 10.0026 29.2264V27.4406C8.58902 27.4406 7.44308 28.5866 7.44308 30.0002H9.22879ZM10.0026 29.2264C10.43 29.2264 10.7764 29.5728 10.7764 30.0002H12.5621C12.5621 28.5866 11.4162 27.4406 10.0026 27.4406V29.2264Z" fill="#BA81EE"/>
</svg>
