<svg width="41" height="40" viewBox="0 0 41 40" fill="none" xmlns="http://www.w3.org/2000/svg">
<path d="M12.4193 9.99967C12.4193 10.9201 11.6731 11.6663 10.7526 11.6663C9.83213 11.6663 9.08594 10.9201 9.08594 9.99967C9.08594 9.0792 9.83213 8.33301 10.7526 8.33301C11.6731 8.33301 12.4193 9.0792 12.4193 9.99967Z" fill="#F4889A"/>
<path d="M17.4193 9.99967C17.4193 10.9201 16.6731 11.6663 15.7526 11.6663C14.8321 11.6663 14.0859 10.9201 14.0859 9.99967C14.0859 9.0792 14.8321 8.33301 15.7526 8.33301C16.6731 8.33301 17.4193 9.0792 17.4193 9.99967Z" fill="#F4889A"/>
<path d="M22.4193 9.99967C22.4193 10.9201 21.6731 11.6663 20.7526 11.6663C19.8321 11.6663 19.0859 10.9201 19.0859 9.99967C19.0859 9.0792 19.8321 8.33301 20.7526 8.33301C21.6731 8.33301 22.4193 9.0792 22.4193 9.99967Z" fill="#F4889A"/>
<path d="M4.08594 14.9402C3.59283 14.9402 3.19308 15.3399 3.19308 15.833C3.19308 16.3261 3.59283 16.7259 4.08594 16.7259V14.9402ZM37.4193 16.7259C37.9124 16.7259 38.3121 16.3261 38.3121 15.833C38.3121 15.3399 37.9124 14.9402 37.4193 14.9402V16.7259ZM14.8571 36.4285C14.8571 36.9216 15.2569 37.3214 15.75 37.3214C16.2431 37.3214 16.6429 36.9216 16.6429 36.4285H14.8571ZM16.6429 16.4285C16.6429 15.9354 16.2431 15.5357 15.75 15.5357C15.2569 15.5357 14.8571 15.9354 14.8571 16.4285H16.6429ZM20.7526 35.7735C16.799 35.7735 13.9236 35.7716 11.7276 35.4763C9.55737 35.1846 8.1849 34.6211 7.15806 33.5942L5.89537 34.8569C7.3093 36.2708 9.12141 36.9277 11.4897 37.2461C13.8323 37.5611 16.8495 37.5592 20.7526 37.5592V35.7735ZM3.19308 19.9997C3.19308 23.9028 3.19118 26.92 3.50614 29.2626C3.82455 31.6309 4.48144 33.443 5.89537 34.8569L7.15806 33.5942C6.13121 32.5674 5.56772 31.1949 5.27593 29.0246C4.98069 26.8287 4.97879 23.9533 4.97879 19.9997H3.19308ZM36.5264 19.9997C36.5264 23.9533 36.5245 26.8287 36.2293 29.0246C35.9375 31.1949 35.374 32.5674 34.3471 33.5942L35.6098 34.8569C37.0238 33.443 37.6807 31.6309 37.9991 29.2626C38.314 26.92 38.3121 23.9028 38.3121 19.9997H36.5264ZM20.7526 37.5592C24.6557 37.5592 27.6729 37.5611 30.0155 37.2461C32.3838 36.9277 34.1959 36.2708 35.6098 34.8569L34.3471 33.5942C33.3203 34.6211 31.9478 35.1846 29.7776 35.4763C27.5816 35.7716 24.7062 35.7735 20.7526 35.7735V37.5592ZM20.7526 4.22586C24.7062 4.22586 27.5816 4.22776 29.7776 4.523C31.9478 4.81479 33.3203 5.37829 34.3471 6.40513L35.6098 5.14244C34.1959 3.72851 32.3838 3.07162 30.0155 2.75321C27.6729 2.43825 24.6557 2.44015 20.7526 2.44015V4.22586ZM38.3121 19.9997C38.3121 16.0965 38.314 13.0794 37.9991 10.7368C37.6807 8.36848 37.0238 6.55637 35.6098 5.14244L34.3471 6.40513C35.374 7.43197 35.9375 8.80444 36.2293 10.9747C36.5245 13.1707 36.5264 16.0461 36.5264 19.9997H38.3121ZM20.7526 2.44015C16.8495 2.44015 13.8323 2.43825 11.4897 2.75321C9.12141 3.07162 7.3093 3.72851 5.89537 5.14244L7.15806 6.40513C8.1849 5.37829 9.55737 4.81479 11.7276 4.523C13.9236 4.22776 16.799 4.22586 20.7526 4.22586V2.44015ZM4.97879 19.9997C4.97879 16.0461 4.98069 13.1707 5.27593 10.9747C5.56772 8.80444 6.13121 7.43197 7.15806 6.40513L5.89537 5.14244C4.48144 6.55637 3.82455 8.36848 3.50614 10.7368C3.19118 13.0794 3.19308 16.0965 3.19308 19.9997H4.97879ZM4.08594 16.7259H37.4193V14.9402H4.08594V16.7259ZM16.6429 36.4285L16.6429 16.4285H14.8571V36.4285H16.6429Z" fill="#F4889A"/>
</svg>
