<svg width="41" height="40" viewBox="0 0 41 40" fill="none" xmlns="http://www.w3.org/2000/svg">
<path d="M4.93007 27.9881L5.81418 27.8635L4.93007 27.9881ZM35.5751 27.9881L34.691 27.8635L35.5751 27.9881ZM36.2801 22.9881L37.1642 23.1128L36.2801 22.9881ZM4.22512 22.9881L3.34101 23.1128L4.22512 22.9881ZM26.5141 3.35204L26.6094 2.46428L26.6094 2.46428L26.5141 3.35204ZM29.4918 6.67358L28.5989 6.67164V6.67164L29.4918 6.67358ZM13.9933 3.35204L13.898 2.46428L13.9933 3.35204ZM10.1994 7.59687C10.2531 8.08705 10.694 8.44091 11.1842 8.38722C11.6743 8.33354 12.0282 7.89266 11.9745 7.40247L10.1994 7.59687ZM11.0156 6.67358L11.9085 6.67164L11.0156 6.67358ZM12.5466 24.1646L13.1159 23.4768L12.5466 24.1646ZM18.9436 29.4595L19.5129 28.7717L18.9436 29.4595ZM22.7674 29.7336L23.2163 30.5054V30.5054L22.7674 29.7336ZM23.212 29.475L22.7631 28.7032V28.7032L23.212 29.475ZM28.7771 29.7522L29.3105 29.0362L28.7771 29.7522ZM33.0507 34.0492C33.4462 34.3437 34.0056 34.262 34.3001 33.8665C34.5947 33.4711 34.513 32.9117 34.1175 32.6171L33.0507 34.0492ZM7.86281 24.0355L8.38653 24.7587L7.86281 24.0355ZM5.13253 24.9105C4.73316 25.1997 4.64388 25.758 4.93312 26.1573C5.22237 26.5567 5.7806 26.646 6.17997 26.3568L5.13253 24.9105ZM14.7066 12.5594H25.7986V10.7736H14.7066V12.5594ZM35.396 22.8635L34.691 27.8635L36.4592 28.1128L37.1642 23.1128L35.396 22.8635ZM25.0937 35.7736H15.4115V37.5594H25.0937V35.7736ZM5.81418 27.8635L5.10924 22.8635L3.34101 23.1128L4.04596 28.1128L5.81418 27.8635ZM15.4115 35.7736C13.1839 35.7736 11.5928 35.7721 10.3687 35.6252C9.16569 35.4809 8.43226 35.2069 7.86925 34.7407L6.73042 36.1161C7.66272 36.8881 8.77969 37.2331 10.156 37.3982C11.5111 37.5609 13.2282 37.5594 15.4115 37.5594V35.7736ZM4.04596 28.1128C4.33402 30.1559 4.56057 31.7761 4.91301 33.0352C5.2735 34.3231 5.7924 35.3395 6.73042 36.1161L7.86925 34.7407C7.31196 34.2793 6.93745 33.6429 6.63263 32.5539C6.31976 31.4361 6.10909 29.9552 5.81418 27.8635L4.04596 28.1128ZM34.691 27.8635C34.3961 29.9552 34.1854 31.4361 33.8726 32.5539C33.5678 33.6429 33.1933 34.2793 32.636 34.7407L33.7748 36.1161C34.7128 35.3395 35.2317 34.3231 35.5922 33.0352C35.9446 31.7761 36.1712 30.1559 36.4592 28.1128L34.691 27.8635ZM25.0937 37.5594C27.277 37.5594 28.9941 37.5609 30.3493 37.3982C31.7255 37.2331 32.8425 36.8881 33.7748 36.1161L32.636 34.7407C32.0729 35.2069 31.3395 35.4809 30.1365 35.6252C28.9124 35.7721 27.3213 35.7736 25.0937 35.7736V37.5594ZM25.7986 12.5594C28.6364 12.5594 30.6752 12.5612 32.2061 12.7649C33.718 12.966 34.5739 13.3462 35.1602 13.9794L36.4706 12.7663C35.4771 11.6932 34.137 11.2202 32.4416 10.9947C30.7653 10.7718 28.5855 10.7736 25.7986 10.7736V12.5594ZM37.1642 23.1128C37.5319 20.5047 37.824 18.4497 37.8118 16.8364C37.7993 15.1919 37.4724 13.8485 36.4706 12.7663L35.1602 13.9794C35.7381 14.6037 36.0153 15.4316 36.0261 16.85C36.0371 18.2995 35.7716 20.199 35.396 22.8635L37.1642 23.1128ZM14.7066 10.7736C11.9197 10.7736 9.73994 10.7718 8.06362 10.9947C6.36817 11.2202 5.02809 11.6932 4.03461 12.7663L5.34499 13.9794C5.93126 13.3462 6.78723 12.966 8.29906 12.7649C9.83003 12.5612 11.8688 12.5594 14.7066 12.5594V10.7736ZM5.10924 22.8635C4.73357 20.199 4.46812 18.2995 4.47912 16.85C4.48988 15.4316 4.76709 14.6037 5.34499 13.9794L4.03461 12.7663C3.03276 13.8485 2.70594 15.1919 2.69346 16.8364C2.68121 18.4497 2.9733 20.5047 3.34101 23.1128L5.10924 22.8635ZM11.1481 8.39265H29.3545V6.60694H11.1481V8.39265ZM29.3545 8.39265C31.0075 8.39265 32.2603 9.88416 31.975 11.5124L33.734 11.8206C34.2108 9.09954 32.1169 6.60694 29.3545 6.60694V8.39265ZM11.1481 6.60694C8.3856 6.60694 6.29179 9.09954 6.76858 11.8206L8.52749 11.5124C8.2422 9.88416 9.49508 8.39265 11.1481 8.39265V6.60694ZM14.8222 4.22586H25.6852V2.44015H14.8222V4.22586ZM25.6852 4.22586C26.1437 4.22586 26.3012 4.22717 26.4189 4.2398L26.6094 2.46428C26.3724 2.43885 26.0955 2.44015 25.6852 2.44015V4.22586ZM30.308 7.59688C30.3527 7.189 30.3841 6.91387 30.3846 6.67552L28.5989 6.67164C28.5987 6.78998 28.5828 6.94676 28.5329 7.40247L30.308 7.59688ZM26.4189 4.2398C27.6608 4.37308 28.6017 5.42258 28.5989 6.67164L30.3846 6.67552C30.3893 4.51251 28.7601 2.69508 26.6094 2.46428L26.4189 4.2398ZM14.8222 2.44015C14.4119 2.44015 14.135 2.43885 13.898 2.46428L14.0885 4.2398C14.2062 4.22717 14.3638 4.22586 14.8222 4.22586V2.44015ZM11.9745 7.40247C11.9246 6.94673 11.9087 6.78999 11.9085 6.67164L10.1228 6.67552C10.1233 6.91388 10.1547 7.18896 10.1994 7.59687L11.9745 7.40247ZM13.898 2.46428C11.7473 2.69508 10.1181 4.51251 10.1228 6.67552L11.9085 6.67164C11.9058 5.42258 12.8466 4.37308 14.0885 4.2398L13.898 2.46428ZM29.3571 19.1665C29.3571 20.0541 28.6376 20.7736 27.75 20.7736V22.5593C29.6238 22.5593 31.1429 21.0403 31.1429 19.1665H29.3571ZM27.75 20.7736C26.8624 20.7736 26.1429 20.0541 26.1429 19.1665H24.3571C24.3571 21.0403 25.8762 22.5593 27.75 22.5593V20.7736ZM26.1429 19.1665C26.1429 18.2789 26.8624 17.5593 27.75 17.5593V15.7736C25.8762 15.7736 24.3571 17.2926 24.3571 19.1665H26.1429ZM27.75 17.5593C28.6376 17.5593 29.3571 18.2789 29.3571 19.1665H31.1429C31.1429 17.2926 29.6238 15.7736 27.75 15.7736V17.5593ZM11.9773 24.8524L18.3743 30.1473L19.5129 28.7717L13.1159 23.4768L11.9773 24.8524ZM23.2163 30.5054L23.661 30.2467L22.7631 28.7032L22.3184 28.9619L23.2163 30.5054ZM28.2437 30.4682L33.0507 34.0492L34.1175 32.6171L29.3105 29.0362L28.2437 30.4682ZM23.661 30.2467C25.0668 29.429 26.9882 29.5329 28.2437 30.4682L29.3105 29.0362C27.4657 27.6619 24.7699 27.5358 22.7631 28.7032L23.661 30.2467ZM18.3743 30.1473C19.6992 31.244 21.7206 31.3755 23.2163 30.5054L22.3184 28.9619C21.4426 29.4713 20.2375 29.3715 19.5129 28.7717L18.3743 30.1473ZM8.38653 24.7587C9.42147 24.0091 11.0197 24.0598 11.9773 24.8524L13.1159 23.4768C11.52 22.1558 9.02197 22.0936 7.33909 23.3124L8.38653 24.7587ZM6.17997 26.3568L8.38653 24.7587L7.33909 23.3124L5.13253 24.9105L6.17997 26.3568Z" fill="#70B5FF"/>
</svg>
