<svg width="41" height="40" viewBox="0 0 41 40" fill="none" xmlns="http://www.w3.org/2000/svg">
<path d="M27.2962 33.5922L26.6649 34.2236L27.2962 33.5922ZM34.0925 26.796L33.4611 27.4274L34.0925 26.796ZM13.7038 6.40734L14.3351 5.77599L13.7038 6.40734ZM6.90754 13.2036L7.53889 12.5722L6.90754 13.2036ZM9.86865 16.0351C9.51997 16.3837 9.51997 16.9491 9.86865 17.2977C10.2173 17.6464 10.7827 17.6464 11.1313 17.2977L9.86865 16.0351ZM17.798 10.6311C18.1467 10.2824 18.1467 9.71707 17.798 9.36839C17.4493 9.0197 16.884 9.0197 16.5353 9.36839L17.798 10.6311ZM26.1631 6.12605L26.4917 6.95623L26.1631 6.12605ZM26.617 5.67046L25.786 5.34393V5.34393L26.617 5.67046ZM24.3444 8.35058L24.673 7.5204L24.3444 8.35058ZM24.3444 6.84601L24.0157 6.01583L24.3444 6.84601ZM26.617 9.52612L25.786 9.85266L26.617 9.52612ZM26.1631 9.07054L25.8345 9.90071L26.1631 9.07054ZM28.8333 11.3516L29.6644 11.6781V11.6781L28.8333 11.3516ZM27.3343 11.3516L28.1653 11.0251L27.3343 11.3516ZM30.0046 9.07054L30.3332 9.90071L30.0046 9.07054ZM29.5506 9.52612L28.7196 9.19959V9.19959L29.5506 9.52612ZM31.8233 6.84601L31.4947 7.67619H31.4947L31.8233 6.84601ZM31.8233 8.35058L31.4947 7.5204L31.8233 8.35058ZM29.5506 5.67046L30.3817 5.34393V5.34393L29.5506 5.67046ZM30.0046 6.12605L30.3332 5.29587V5.29587L30.0046 6.12605ZM28.8333 3.84499L28.0023 4.17152V4.17152L28.8333 3.84499ZM27.3343 3.84499L28.1653 4.17153V4.17153L27.3343 3.84499ZM33.0641 16.3367L32.7355 15.5065H32.7355L33.0641 16.3367ZM33.518 15.8811L32.687 15.5545L33.518 15.8811ZM32.401 18.1037L32.0724 18.9339L32.401 18.1037ZM32.401 16.5992L32.7296 17.4293L32.7296 17.4293L32.401 16.5992ZM33.518 18.8218L34.349 18.4953L33.518 18.8218ZM33.0641 18.3662L33.3928 17.536L33.0641 18.3662ZM35.2786 19.4874L36.1096 19.8139V19.8139L35.2786 19.4874ZM33.7796 19.4874L32.9486 19.8139V19.8139L33.7796 19.4874ZM35.994 18.3662L35.6654 17.536H35.6654L35.994 18.3662ZM35.5401 18.8218L34.7091 18.4953H34.7091L35.5401 18.8218ZM36.6572 16.5992L36.3285 17.4293L36.3285 17.4293L36.6572 16.5992ZM36.6572 18.1037L36.9858 18.9339H36.9858L36.6572 18.1037ZM35.5401 15.8811L36.3711 15.5545L35.5401 15.8811ZM35.994 16.3367L36.3227 15.5065H36.3227L35.994 16.3367ZM35.2786 15.2155L34.4476 15.542L35.2786 15.2155ZM33.7796 15.2155L34.6106 15.542L33.7796 15.2155ZM8.34035 26.6329L8.01172 25.8027L8.34035 26.6329ZM8.79426 26.1773L7.96326 25.8508H7.96326L8.79426 26.1773ZM7.67723 28.3999L8.00586 27.5698H8.00586L7.67723 28.3999ZM7.67723 26.8954L8.00586 27.7256H8.00586L7.67723 26.8954ZM8.79426 29.118L7.96326 29.4446H7.96326L8.79426 29.118ZM8.34035 28.6624L8.01172 29.4926L8.34035 28.6624ZM10.5548 29.7836L9.72381 29.4571H9.72381L10.5548 29.7836ZM9.05579 29.7836L9.8868 29.4571H9.8868L9.05579 29.7836ZM11.2703 28.6624L11.5989 29.4926H11.5989L11.2703 28.6624ZM10.8164 29.118L11.6474 29.4446L10.8164 29.118ZM11.9334 26.8954L11.6048 27.7256L11.9334 26.8954ZM11.9334 28.3999L11.6048 27.5698L11.9334 28.3999ZM10.8164 26.1773L11.6474 25.8508L10.8164 26.1773ZM11.2703 26.6329L11.5989 25.8027H11.5989L11.2703 26.6329ZM10.5548 25.5117L9.72381 25.8383H9.72381L10.5548 25.5117ZM9.05579 25.5117L9.8868 25.8383H9.8868L9.05579 25.5117ZM13.0724 7.03868L33.4611 27.4274L34.7238 26.1647L14.3351 5.77599L13.0724 7.03868ZM27.9276 32.9609L7.53889 12.5722L6.2762 13.8349L26.6649 34.2236L27.9276 32.9609ZM33.4611 32.9609C31.9331 34.4889 29.4556 34.4889 27.9276 32.9609L26.6649 34.2236C28.8903 36.449 32.4984 36.449 34.7238 34.2236L33.4611 32.9609ZM33.4611 27.4274C34.9892 28.9554 34.9892 31.4329 33.4611 32.9609L34.7238 34.2236C36.9492 31.9982 36.9492 28.3901 34.7238 26.1647L33.4611 27.4274ZM7.53889 7.03868C9.06693 5.51064 11.5444 5.51064 13.0724 7.03868L14.3351 5.77599C12.1097 3.55058 8.50161 3.55058 6.2762 5.77599L7.53889 7.03868ZM6.2762 5.77599C4.05079 8.0014 4.05079 11.6095 6.2762 13.8349L7.53889 12.5722C6.01085 11.0442 6.01085 8.56672 7.53889 7.03868L6.2762 5.77599ZM11.1313 17.2977L17.798 10.6311L16.5353 9.36839L9.86865 16.0351L11.1313 17.2977ZM28.0023 4.17152L28.7196 5.997L30.3817 5.34393L29.6644 3.51845L28.0023 4.17152ZM29.6759 6.95623L31.4947 7.67619L32.1519 6.01583L30.3332 5.29587L29.6759 6.95623ZM31.4947 7.5204L29.6759 8.24036L30.3332 9.90071L32.1519 9.18076L31.4947 7.5204ZM28.7196 9.19959L28.0023 11.0251L29.6644 11.6781L30.3817 9.85266L28.7196 9.19959ZM28.1653 11.0251L27.448 9.19959L25.786 9.85266L26.5033 11.6781L28.1653 11.0251ZM26.4917 8.24036L24.673 7.5204L24.0157 9.18076L25.8345 9.90071L26.4917 8.24036ZM24.673 7.67619L26.4917 6.95623L25.8345 5.29587L24.0157 6.01583L24.673 7.67619ZM27.448 5.997L28.1653 4.17153L26.5033 3.51845L25.786 5.34393L27.448 5.997ZM26.4917 6.95623C26.9301 6.78271 27.2759 6.43493 27.448 5.997L25.786 5.34393C25.7943 5.32283 25.8114 5.305 25.8345 5.29587L26.4917 6.95623ZM24.673 7.5204C24.673 7.5204 24.6735 7.5206 24.6744 7.52106C24.6754 7.52152 24.6767 7.52221 24.6783 7.52316C24.6816 7.5251 24.6856 7.52784 24.6901 7.53151C24.6992 7.53909 24.7073 7.5483 24.7135 7.55796C24.7253 7.57638 24.7271 7.59075 24.7271 7.59829C24.7271 7.60583 24.7253 7.6202 24.7135 7.63862C24.7073 7.64829 24.6992 7.6575 24.6901 7.66508C24.6856 7.66874 24.6816 7.67149 24.6783 7.67343C24.6767 7.67438 24.6754 7.67507 24.6744 7.67553C24.6735 7.67599 24.673 7.67619 24.673 7.67619L24.0157 6.01583C22.5833 6.58286 22.5833 8.61373 24.0157 9.18076L24.673 7.5204ZM27.448 9.19959C27.2759 8.76166 26.9301 8.41388 26.4917 8.24036L25.8345 9.90071C25.8114 9.89159 25.7943 9.87376 25.786 9.85266L27.448 9.19959ZM28.0023 11.0251C28.0022 11.0253 28.0029 11.0237 28.0047 11.0206C28.0065 11.0175 28.0091 11.0136 28.0127 11.0092C28.0201 11.0002 28.0294 10.992 28.0394 10.9855C28.0585 10.9731 28.0744 10.9707 28.0838 10.9707C28.0933 10.9707 28.1091 10.9731 28.1283 10.9855C28.1383 10.992 28.1475 11.0002 28.155 11.0092C28.1586 11.0136 28.1612 11.0175 28.163 11.0206C28.1648 11.0237 28.1654 11.0253 28.1653 11.0251L26.5033 11.6781C27.0683 13.1159 29.0994 13.1159 29.6644 11.6781L28.0023 11.0251ZM29.6759 8.24036C29.2376 8.41388 28.8917 8.76165 28.7196 9.19959L30.3817 9.85266C30.3734 9.87376 30.3562 9.89159 30.3332 9.90071L29.6759 8.24036ZM31.4947 7.67619C31.4947 7.67619 31.4942 7.67599 31.4932 7.67553C31.4923 7.67507 31.491 7.67438 31.4894 7.67343C31.4861 7.67149 31.482 7.66874 31.4776 7.66508C31.4684 7.6575 31.4604 7.64829 31.4542 7.63863C31.4424 7.62021 31.4405 7.60584 31.4405 7.5983C31.4405 7.59075 31.4424 7.57638 31.4542 7.55796C31.4604 7.5483 31.4684 7.53909 31.4776 7.53151C31.482 7.52784 31.4861 7.5251 31.4894 7.52316C31.491 7.52221 31.4923 7.52152 31.4932 7.52106C31.4942 7.5206 31.4947 7.5204 31.4947 7.5204L32.1519 9.18076C33.5844 8.61372 33.5844 6.58286 32.1519 6.01583L31.4947 7.67619ZM28.7196 5.997C28.8917 6.43493 29.2376 6.78271 29.6759 6.95623L30.3332 5.29587C30.3562 5.305 30.3734 5.32283 30.3817 5.34393L28.7196 5.997ZM29.6644 3.51845C29.0994 2.08071 27.0683 2.08072 26.5033 3.51845L28.1653 4.17153C28.1654 4.17125 28.1648 4.17292 28.163 4.176C28.1612 4.17909 28.1586 4.18301 28.155 4.18738C28.1475 4.19644 28.1383 4.20464 28.1283 4.21108C28.1091 4.22346 28.0933 4.22586 28.0838 4.22586C28.0744 4.22586 28.0585 4.22346 28.0394 4.21108C28.0294 4.20463 28.0201 4.19644 28.0127 4.18738C28.0091 4.18301 28.0065 4.17909 28.0047 4.176C28.0029 4.17292 28.0022 4.17125 28.0023 4.17152L29.6644 3.51845ZM34.4476 15.542L34.7091 16.2076L36.3711 15.5545L36.1096 14.889L34.4476 15.542ZM35.6654 17.1668L36.3285 17.4293L36.9858 15.769L36.3227 15.5065L35.6654 17.1668ZM36.3285 17.2735L35.6654 17.536L36.3227 19.1964L36.9858 18.9339L36.3285 17.2735ZM34.7091 18.4953L34.4476 19.1609L36.1096 19.8139L36.3711 19.1483L34.7091 18.4953ZM34.6106 19.1609L34.349 18.4953L32.687 19.1483L32.9486 19.8139L34.6106 19.1609ZM33.3928 17.536L32.7296 17.2735L32.0724 18.9339L32.7355 19.1964L33.3928 17.536ZM32.7296 17.4293L33.3928 17.1668L32.7355 15.5065L32.0724 15.769L32.7296 17.4293ZM34.349 16.2076L34.6106 15.542L32.9486 14.889L32.687 15.5545L34.349 16.2076ZM33.3928 17.1668C33.8311 16.9933 34.177 16.6455 34.349 16.2076L32.687 15.5545C32.6953 15.5334 32.7124 15.5156 32.7355 15.5065L33.3928 17.1668ZM32.7296 17.2735C32.7296 17.2735 32.7301 17.2737 32.7311 17.2742C32.732 17.2747 32.7333 17.2754 32.7349 17.2763C32.7382 17.2782 32.7423 17.281 32.7467 17.2847C32.7559 17.2922 32.7639 17.3014 32.7701 17.3111C32.7819 17.3295 32.7838 17.3439 32.7838 17.3514C32.7838 17.359 32.7819 17.3734 32.7701 17.3918C32.7639 17.4014 32.7559 17.4106 32.7467 17.4182C32.7423 17.4219 32.7382 17.4246 32.7349 17.4266C32.7333 17.4275 32.732 17.4282 32.7311 17.4287C32.7301 17.4291 32.7296 17.4293 32.7296 17.4293L32.0724 15.769C30.6399 16.336 30.6399 18.3669 32.0724 18.9339L32.7296 17.2735ZM34.349 18.4953C34.177 18.0573 33.8311 17.7096 33.3928 17.536L32.7355 19.1964C32.7124 19.1873 32.6953 19.1694 32.687 19.1483L34.349 18.4953ZM34.4476 19.1609C34.4475 19.1611 34.4481 19.1595 34.4499 19.1564C34.4517 19.1533 34.4544 19.1494 34.4579 19.145C34.4654 19.1359 34.4746 19.1277 34.4846 19.1213C34.5038 19.1089 34.5196 19.1065 34.5291 19.1065C34.5386 19.1065 34.5544 19.1089 34.5736 19.1213C34.5835 19.1277 34.5928 19.1359 34.6002 19.145C34.6038 19.1494 34.6064 19.1533 34.6082 19.1564C34.61 19.1595 34.6107 19.1611 34.6106 19.1609L32.9486 19.8139C33.5135 21.2517 35.5446 21.2517 36.1096 19.8139L34.4476 19.1609ZM35.6654 17.536C35.2271 17.7096 34.8812 18.0573 34.7091 18.4953L36.3711 19.1483C36.3628 19.1694 36.3457 19.1873 36.3227 19.1964L35.6654 17.536ZM36.3285 17.4293C36.3285 17.4293 36.328 17.4291 36.3271 17.4287C36.3261 17.4282 36.3248 17.4275 36.3232 17.4266C36.3199 17.4246 36.3159 17.4219 36.3114 17.4182C36.3023 17.4106 36.2942 17.4014 36.288 17.3918C36.2762 17.3734 36.2744 17.359 36.2744 17.3514C36.2744 17.3439 36.2762 17.3295 36.288 17.3111C36.2942 17.3014 36.3023 17.2922 36.3114 17.2847C36.3159 17.281 36.3199 17.2782 36.3232 17.2763C36.3248 17.2754 36.3261 17.2747 36.3271 17.2742C36.328 17.2737 36.3285 17.2735 36.3285 17.2735L36.9858 18.9339C38.4182 18.3669 38.4182 16.336 36.9858 15.769L36.3285 17.4293ZM34.7091 16.2076C34.8812 16.6455 35.2271 16.9933 35.6654 17.1668L36.3227 15.5065C36.3457 15.5156 36.3628 15.5334 36.3711 15.5545L34.7091 16.2076ZM36.1096 14.889C35.5446 13.4512 33.5135 13.4512 32.9486 14.889L34.6106 15.542C34.6107 15.5418 34.61 15.5434 34.6082 15.5465C34.6064 15.5496 34.6038 15.5535 34.6002 15.5579C34.5928 15.5669 34.5835 15.5751 34.5736 15.5816C34.5544 15.594 34.5386 15.5964 34.5291 15.5964C34.5196 15.5964 34.5038 15.594 34.4846 15.5816C34.4746 15.5751 34.4654 15.5669 34.4579 15.5579C34.4544 15.5535 34.4517 15.5496 34.4499 15.5465C34.4481 15.5434 34.4475 15.5418 34.4476 15.542L36.1096 14.889ZM9.72381 25.8383L9.98535 26.5038L11.6474 25.8508L11.3858 25.1852L9.72381 25.8383ZM10.9416 27.4631L11.6048 27.7256L12.262 26.0652L11.5989 25.8027L10.9416 27.4631ZM11.6048 27.5698L10.9416 27.8323L11.5989 29.4926L12.262 29.2301L11.6048 27.5698ZM9.98535 28.7915L9.72381 29.4571L11.3858 30.1102L11.6474 29.4446L9.98535 28.7915ZM9.8868 29.4571L9.62527 28.7915L7.96326 29.4446L8.22479 30.1102L9.8868 29.4571ZM8.66898 27.8323L8.00586 27.5698L7.3486 29.2301L8.01172 29.4926L8.66898 27.8323ZM8.00586 27.7256L8.66898 27.4631L8.01172 25.8027L7.3486 26.0652L8.00586 27.7256ZM9.62527 26.5038L9.8868 25.8383L8.22479 25.1852L7.96326 25.8508L9.62527 26.5038ZM8.66898 27.4631C9.10733 27.2895 9.45319 26.9418 9.62527 26.5038L7.96326 25.8508C7.97155 25.8297 7.98867 25.8118 8.01172 25.8027L8.66898 27.4631ZM8.00586 27.5698C8.00585 27.5698 8.00636 27.57 8.0073 27.5704C8.00825 27.5709 8.00956 27.5716 8.01117 27.5725C8.01446 27.5745 8.01851 27.5772 8.02294 27.5809C8.03211 27.5885 8.04016 27.5977 8.04636 27.6073C8.05816 27.6258 8.05999 27.6401 8.05999 27.6477C8.05999 27.6552 8.05816 27.6696 8.04636 27.688C8.04016 27.6977 8.03211 27.7069 8.02294 27.7145C8.01851 27.7181 8.01446 27.7209 8.01117 27.7228C8.00956 27.7238 8.00825 27.7244 8.0073 27.7249C8.00636 27.7254 8.00585 27.7256 8.00586 27.7256L7.3486 26.0652C5.91617 26.6322 5.91617 28.6631 7.3486 29.2301L8.00586 27.5698ZM9.62527 28.7915C9.45319 28.3536 9.10733 28.0058 8.66898 27.8323L8.01172 29.4926C7.98867 29.4835 7.97155 29.4657 7.96326 29.4446L9.62527 28.7915ZM9.72381 29.4571C9.72371 29.4574 9.72435 29.4557 9.72615 29.4526C9.72796 29.4495 9.73059 29.4456 9.73417 29.4412C9.74161 29.4322 9.75084 29.424 9.76083 29.4175C9.77999 29.4051 9.79583 29.4027 9.80531 29.4027C9.81478 29.4027 9.83062 29.4051 9.84979 29.4175C9.85977 29.424 9.86901 29.4322 9.87644 29.4412C9.88003 29.4456 9.88266 29.4495 9.88446 29.4526C9.88627 29.4557 9.88691 29.4574 9.8868 29.4571L8.22479 30.1102C8.78974 31.5479 10.8209 31.5479 11.3858 30.1102L9.72381 29.4571ZM10.9416 27.8323C10.5033 28.0058 10.1574 28.3536 9.98535 28.7915L11.6474 29.4446C11.6391 29.4657 11.6219 29.4835 11.5989 29.4926L10.9416 27.8323ZM11.6048 27.7256C11.6048 27.7256 11.6043 27.7254 11.6033 27.7249C11.6024 27.7244 11.6011 27.7238 11.5994 27.7228C11.5962 27.7209 11.5921 27.7181 11.5877 27.7145C11.5785 27.7069 11.5704 27.6977 11.5643 27.688C11.5524 27.6696 11.5506 27.6552 11.5506 27.6477C11.5506 27.6401 11.5524 27.6258 11.5643 27.6073C11.5704 27.5977 11.5785 27.5885 11.5877 27.5809C11.5921 27.5772 11.5962 27.5745 11.5994 27.5725C11.6011 27.5716 11.6024 27.5709 11.6033 27.5704C11.6043 27.57 11.6048 27.5698 11.6048 27.5698L12.262 29.2301C13.6944 28.6631 13.6944 26.6322 12.262 26.0652L11.6048 27.7256ZM9.98535 26.5038C10.1574 26.9418 10.5033 27.2895 10.9416 27.4631L11.5989 25.8027C11.6219 25.8118 11.6391 25.8297 11.6474 25.8508L9.98535 26.5038ZM11.3858 25.1852C10.8209 23.7474 8.78974 23.7474 8.22479 25.1852L9.8868 25.8383C9.88691 25.838 9.88627 25.8396 9.88446 25.8427C9.88266 25.8458 9.88003 25.8497 9.87644 25.8541C9.86901 25.8632 9.85977 25.8714 9.84979 25.8778C9.83062 25.8902 9.81478 25.8926 9.80531 25.8926C9.79583 25.8926 9.77999 25.8902 9.76083 25.8778C9.75084 25.8714 9.74161 25.8632 9.73417 25.8541C9.73059 25.8497 9.72796 25.8458 9.72615 25.8427C9.72435 25.8396 9.72371 25.838 9.72381 25.8383L11.3858 25.1852Z" fill="#FFAF68"/>
</svg>
