<svg width="188" height="40" viewBox="0 0 188 40" fill="none" xmlns="http://www.w3.org/2000/svg">
<path d="M30.3677 17.828C29.8624 18.3364 29.4754 18.95 29.2344 19.6249C28.9933 20.3 28.9041 21.0199 28.973 21.7333L28.949 21.7093C29.02 22.5492 28.9066 23.3943 28.6172 24.1859C28.3277 24.9773 27.869 25.6961 27.2732 26.2921C26.6772 26.888 25.9584 27.3468 25.1668 27.6361C24.3753 27.9256 23.5301 28.0389 22.6904 27.968L22.7144 27.992C21.7098 27.8985 20.7009 28.1171 19.825 28.618C18.9493 29.1189 18.2493 29.8777 17.8206 30.7911C17.392 31.7044 17.2553 32.7276 17.4294 33.7215C17.6037 34.7152 18.0801 35.6311 18.7938 36.3441C19.5076 37.0572 20.4238 37.5328 21.4177 37.706C22.4117 37.8793 23.4348 37.7417 24.3477 37.3123C25.2606 36.8827 26.0188 36.1821 26.5189 35.3059C27.019 34.4296 27.2368 33.4205 27.1424 32.416L27.1677 32.44C27.0968 31.6003 27.21 30.7551 27.4994 29.9635C27.7889 29.172 28.2477 28.4532 28.8436 27.8572C29.4396 27.2613 30.1584 26.8025 30.9498 26.5132C31.7414 26.2237 32.5865 26.1104 33.4264 26.1813L33.401 26.1573C34.2216 26.2311 35.0476 26.0965 35.8024 25.7661C36.557 25.4357 37.2162 24.9201 37.7186 24.2672C38.221 23.6143 38.5506 22.8449 38.6765 22.0308C38.8025 21.2165 38.7209 20.3837 38.4393 19.6093C38.1577 18.8351 37.6852 18.1444 37.0656 17.6013C36.446 17.0583 35.6993 16.6804 34.8948 16.5028C34.0902 16.3252 33.2538 16.3535 32.4632 16.5851C31.6725 16.8168 30.9532 17.2443 30.3717 17.828H30.3677Z" fill="#1B1D1E"/>
<path d="M20.5317 24.848L20.5063 24.824C21.22 24.8959 21.9409 24.8083 22.6167 24.5675C23.2925 24.3267 23.9063 23.9388 24.4138 23.4317C24.9211 22.9247 25.3097 22.3111 25.5508 21.6355C25.7922 20.9599 25.8803 20.2392 25.809 19.5253L25.8343 19.5493C25.7634 18.7095 25.8767 17.8644 26.166 17.0728C26.4555 16.2813 26.9143 15.5625 27.5102 14.9665C28.1062 14.3707 28.825 13.9119 29.6165 13.6225C30.4081 13.333 31.2531 13.2198 32.093 13.2907L32.0676 13.2667C33.0723 13.3611 34.0815 13.1432 34.9578 12.6428C35.8342 12.1425 36.5347 11.384 36.9641 10.4708C37.3934 9.55767 37.5306 8.53429 37.357 7.54028C37.1834 6.54627 36.7074 5.63003 35.9938 4.91651C35.2803 4.203 34.364 3.72695 33.37 3.55332C32.376 3.37968 31.3527 3.5169 30.4395 3.94626C29.5263 4.3756 28.7679 5.0762 28.2675 5.95248C27.7671 6.82875 27.5492 7.83804 27.6437 8.84268L27.6196 8.81735C27.6907 9.6572 27.5777 10.5025 27.2883 11.2941C26.999 12.0857 26.5402 12.8046 25.9443 13.4007C25.3483 13.9965 24.6294 14.4553 23.8378 14.7447C23.0461 15.034 22.2008 15.1471 21.361 15.076L21.385 15.1013C20.6712 15.0295 19.9503 15.1171 19.2746 15.3579C18.5989 15.5985 17.985 15.9865 17.4775 16.4936C16.97 17.0007 16.5817 17.6143 16.3403 18.2899C16.0991 18.9655 16.011 19.6861 16.0823 20.4L16.0583 20.376C16.129 21.2157 16.0155 22.0608 15.7261 22.8523C15.4365 23.6436 14.9778 24.3624 14.3819 24.9583C13.786 25.5541 13.0673 26.0128 12.2759 26.3024C11.4844 26.5919 10.6394 26.7053 9.79965 26.6347L9.82365 26.6587C8.81901 26.5643 7.80972 26.7821 6.93344 27.2825C6.05717 27.7829 5.35657 28.5413 4.92722 29.4545C4.49786 30.3677 4.36064 31.3911 4.53428 32.3851C4.70792 33.3791 5.18397 34.2953 5.89748 35.0088C6.611 35.7224 7.52724 36.1984 8.52125 36.372C9.51526 36.5456 10.5386 36.4084 11.4518 35.9791C12.3649 35.5497 13.1234 34.8492 13.6238 33.9729C14.1242 33.0965 14.3421 32.0873 14.2477 31.0827L14.273 31.1067C14.202 30.2668 14.3154 29.4217 14.6048 28.6301C14.8942 27.8387 15.353 27.1199 15.9489 26.5239C16.5449 25.928 17.2636 25.4692 18.0551 25.1799C18.8467 24.8904 19.6918 24.7771 20.5317 24.848Z" fill="#1B1D1E"/>
<path d="M11.5956 22.172C12.1009 21.6638 12.4879 21.0502 12.7287 20.3751C12.9696 19.7 13.0584 18.98 12.9889 18.2667L13.0142 18.2907C12.9433 17.4507 13.0566 16.6052 13.3462 15.8135C13.6358 15.0218 14.0948 14.3028 14.6911 13.7068C15.2873 13.1108 16.0064 12.6522 16.7983 12.3629C17.5901 12.0736 18.4356 11.9607 19.2756 12.032L19.2503 12.008C20.2545 12.1021 21.2635 11.8841 22.1393 11.3838C23.0152 10.8835 23.7153 10.1252 24.1445 9.21233C24.5736 8.29945 24.7107 7.27645 24.5371 6.28281C24.3635 5.28917 23.8875 4.37327 23.1743 3.66002C22.4611 2.94677 21.545 2.47087 20.5515 2.29725C19.5578 2.12361 18.5348 2.2607 17.622 2.68979C16.7091 3.11889 15.9508 3.81911 15.4505 4.69498C14.9501 5.57085 14.7321 6.57973 14.8263 7.58402L14.8022 7.56002C14.8732 8.39982 14.7599 9.24498 14.4704 10.0365C14.1809 10.828 13.7223 11.5468 13.1263 12.1428C12.5304 12.7387 11.8116 13.1974 11.0201 13.4868C10.2285 13.7763 9.38338 13.8896 8.54358 13.8187L8.56758 13.8427C7.74701 13.7691 6.92113 13.9039 6.16649 14.2344C5.41185 14.565 4.75285 15.0807 4.25057 15.7338C3.74829 16.3867 3.41898 17.156 3.29314 17.9702C3.16732 18.7844 3.24904 19.6172 3.53073 20.3914C3.81242 21.1656 4.285 21.8562 4.90464 22.3991C5.52428 22.9422 6.27094 23.3199 7.07545 23.4975C7.87994 23.675 8.71625 23.6466 9.50688 23.415C10.2975 23.1832 11.0168 22.7558 11.5982 22.172H11.5956Z" fill="#1B1D1E"/>
<path d="M52.8983 8.87335H56.8583V28.144H52.8983V8.87335Z" fill="#1B1D1E"/>
<path d="M59.101 21.5453C59.0955 20.1605 59.5011 18.805 60.2664 17.6509C61.0318 16.4968 62.1224 15.5957 63.4003 15.062C64.6782 14.5281 66.0856 14.3856 67.4446 14.6524C68.8035 14.9192 70.0527 15.5832 71.0339 16.5605C72.0151 17.5377 72.6842 18.7842 72.9564 20.1421C73.2287 21.5 73.0918 22.9081 72.5631 24.1881C72.0344 25.468 71.1378 26.5624 69.9867 27.3322C68.8355 28.1022 67.4819 28.5133 66.097 28.5133C65.1778 28.5238 64.2656 28.3509 63.4139 28.0048C62.5622 27.6586 61.788 27.1462 61.1367 26.4976C60.4852 25.8488 59.9698 25.0766 59.6203 24.2264C59.2707 23.3761 59.0942 22.4646 59.101 21.5453ZM69.133 21.5453C69.1164 20.9484 68.9243 20.3696 68.5807 19.8812C68.237 19.3929 67.757 19.0166 67.2007 18.7997C66.6443 18.5826 66.0364 18.5344 65.4528 18.661C64.8692 18.7877 64.3359 19.0834 63.9195 19.5116C63.5032 19.9396 63.2222 20.4809 63.1119 21.0678C63.0015 21.6546 63.0664 22.261 63.2988 22.8112C63.5312 23.3613 63.9206 23.8306 64.4182 24.1606C64.9159 24.4906 65.4999 24.6666 66.097 24.6666C66.5059 24.6776 66.9127 24.6036 67.2918 24.4494C67.6707 24.2953 68.0136 24.0644 68.2988 23.7712C68.584 23.4778 68.8055 23.1286 68.949 22.7456C69.0926 22.3625 69.1552 21.9538 69.133 21.5453Z" fill="#1B1D1E"/>
<path d="M88.8757 14.9453V27.4786C88.8757 31.9133 85.417 33.788 81.9063 33.788C80.6703 33.8805 79.4326 33.6308 78.329 33.0664C77.2255 32.5018 76.2987 31.6444 75.6503 30.588L79.029 28.6346C79.3015 29.1853 79.7358 29.6396 80.2735 29.9368C80.8114 30.2338 81.4271 30.3597 82.0383 30.2973C82.429 30.3514 82.8269 30.317 83.2025 30.1966C83.5779 30.0762 83.9217 29.8729 84.2081 29.6018C84.4945 29.3306 84.7162 28.9986 84.857 28.6301C84.9977 28.2617 85.0537 27.8664 85.021 27.4733V26.2666C84.5573 26.834 83.9671 27.2848 83.2977 27.5828C82.6282 27.8808 81.8983 28.0177 81.1663 27.9826C79.4247 27.9277 77.7729 27.1973 76.5603 25.9458C75.3478 24.6945 74.6698 23.0204 74.6698 21.278C74.6698 19.5356 75.3478 17.8614 76.5603 16.6101C77.7729 15.3586 79.4247 14.6282 81.1663 14.5733C81.8983 14.5382 82.6282 14.6752 83.2977 14.9732C83.9671 15.2712 84.5573 15.722 85.021 16.2893V14.9426L88.8757 14.9453ZM85.0223 21.28C85.049 20.6418 84.8839 20.0102 84.5486 19.4666C84.2133 18.9229 83.7229 18.4921 83.1406 18.2296C82.5583 17.9669 81.9109 17.8846 81.2814 17.9932C80.6519 18.1017 80.0694 18.3961 79.6086 18.8386C79.1479 19.281 78.8302 19.8512 78.6962 20.4757C78.5623 21.1002 78.6183 21.7506 78.8573 22.343C79.0961 22.9354 79.5067 23.4429 80.0363 23.8C80.5659 24.157 81.1903 24.3474 81.829 24.3466C82.2451 24.3757 82.6626 24.3173 83.0547 24.1752C83.4469 24.033 83.8049 23.8102 84.1057 23.5214C84.4065 23.2325 84.6435 22.8838 84.8014 22.4977C84.9593 22.1117 85.0346 21.6969 85.0223 21.28Z" fill="#1B1D1E"/>
<path d="M91.1182 21.5453C91.1128 20.1605 91.5182 18.805 92.2837 17.6509C93.049 16.4968 94.1397 15.5957 95.4176 15.062C96.6954 14.5281 98.1029 14.3856 99.4618 14.6524C100.821 14.9192 102.07 15.5832 103.051 16.5605C104.032 17.5377 104.701 18.7842 104.974 20.1421C105.246 21.5 105.109 22.9081 104.58 24.1881C104.052 25.468 103.155 26.5624 102.004 27.3322C100.853 28.1022 99.4992 28.5133 98.1142 28.5133C97.195 28.5238 96.2828 28.3509 95.4312 28.0048C94.5794 27.6586 93.8053 27.1462 93.154 26.4976C92.5025 25.8488 91.987 25.0766 91.6376 24.2264C91.288 23.3761 91.1114 22.4646 91.1182 21.5453ZM101.15 21.5453C101.134 20.9484 100.942 20.3696 100.598 19.8812C100.254 19.3929 99.7742 19.0166 99.218 18.7997C98.6616 18.5826 98.0536 18.5344 97.4701 18.661C96.8865 18.7877 96.3532 19.0834 95.9368 19.5116C95.5205 19.9396 95.2394 20.4809 95.129 21.0678C95.0186 21.6546 95.0837 22.261 95.3161 22.8112C95.5485 23.3613 95.9378 23.8306 96.4354 24.1606C96.9332 24.4906 97.517 24.6666 98.1142 24.6666C98.5232 24.6776 98.93 24.6036 99.3089 24.4494C99.688 24.2953 100.031 24.0644 100.316 23.7712C100.601 23.4778 100.823 23.1286 100.966 22.7456C101.11 22.3625 101.172 21.9538 101.15 21.5453Z" fill="#1B1D1E"/>
<path d="M106.957 11.408C106.957 10.9381 107.096 10.4787 107.357 10.088C107.618 9.69723 107.99 9.39268 108.424 9.21285C108.858 9.03301 109.336 8.98596 109.797 9.07764C110.257 9.16932 110.681 9.39561 111.013 9.72791C111.345 10.0602 111.572 10.4835 111.663 10.9445C111.755 11.4053 111.708 11.8831 111.528 12.3172C111.348 12.7514 111.044 13.1225 110.653 13.3836C110.262 13.6447 109.803 13.784 109.333 13.784C108.705 13.7777 108.104 13.5255 107.66 13.0812C107.216 12.6369 106.963 12.0362 106.957 11.408ZM107.357 14.9453H111.318V28.1453H107.352L107.357 14.9453Z" fill="#1B1D1E"/>
<path d="M128.417 21.5453C128.463 22.4177 128.336 23.2905 128.043 24.1136C127.75 24.9367 127.298 25.6937 126.711 26.3413C126.125 26.9888 125.416 27.5141 124.626 27.8869C123.836 28.2596 122.98 28.4725 122.108 28.5133C121.374 28.5533 120.64 28.4296 119.96 28.1511C119.28 27.8724 118.671 27.446 118.176 26.9027V33.424H114.216V14.9453H118.176V16.1853C118.671 15.6424 119.281 15.2163 119.961 14.938C120.641 14.6596 121.374 14.536 122.108 14.576C122.98 14.6167 123.837 14.8295 124.627 15.2023C125.417 15.5751 126.126 16.1004 126.712 16.7481C127.299 17.3959 127.751 18.1532 128.044 18.9765C128.336 19.7997 128.463 20.6728 128.417 21.5453ZM124.457 21.5453C124.442 20.9276 124.244 20.3281 123.89 19.8219C123.535 19.3157 123.039 18.9253 122.464 18.6997C121.889 18.474 121.26 18.4229 120.656 18.5531C120.051 18.6831 119.499 18.9884 119.068 19.4308C118.636 19.8733 118.345 20.4331 118.23 21.0404C118.115 21.6476 118.182 22.2751 118.422 22.8445C118.662 23.414 119.065 23.8999 119.58 24.2416C120.095 24.5832 120.699 24.7655 121.317 24.7653C121.741 24.7843 122.165 24.7132 122.56 24.5569C122.955 24.4008 123.312 24.1628 123.608 23.8588C123.905 23.5547 124.134 23.1915 124.28 22.7928C124.426 22.3941 124.487 21.9689 124.457 21.5453Z" fill="#1B1D1E"/>
<path d="M140.637 24.1839C140.637 27.2199 137.998 28.5133 135.148 28.5133C133.996 28.6175 132.839 28.3741 131.827 27.8139C130.815 27.2539 129.995 26.4033 129.472 25.3719L132.902 23.4186C133.041 23.8953 133.339 24.3101 133.747 24.5934C134.154 24.8769 134.648 25.0119 135.142 24.9759C136.092 24.9759 136.568 24.6853 136.568 24.1586C136.568 22.7053 130.073 23.4719 130.073 18.9053C130.073 16.0266 132.502 14.5759 135.248 14.5759C136.28 14.5433 137.301 14.7881 138.206 15.2847C139.112 15.7815 139.868 16.5119 140.394 17.3999L137.016 19.2213C136.868 18.8755 136.621 18.581 136.306 18.3745C135.992 18.1679 135.624 18.0586 135.248 18.0599C134.561 18.0599 134.138 18.3266 134.138 18.7986C134.144 20.3039 140.637 19.2999 140.637 24.1839Z" fill="#1B1D1E"/>
<path d="M155.102 14.9453V28.1453H151.142V26.904C150.685 27.4517 150.105 27.8833 149.449 28.1633C148.793 28.4433 148.081 28.5637 147.369 28.5146C144.702 28.5146 142.436 26.6146 142.436 23.048V14.9453H146.396V22.468C146.362 22.7824 146.398 23.1002 146.501 23.3993C146.602 23.6985 146.769 23.9718 146.988 24.2002C147.206 24.4286 147.472 24.6066 147.766 24.722C148.06 24.8373 148.376 24.8872 148.692 24.868C150.144 24.868 151.146 24.024 151.146 22.1493V14.9493L155.102 14.9453Z" fill="#1B1D1E"/>
<path d="M177.809 20.04V28.144H173.849V20.3826C173.849 19.0626 173.216 18.2186 171.949 18.2186C170.629 18.2186 169.889 19.1426 169.889 20.7V28.144H165.93V20.3826C165.93 19.0626 165.297 18.2186 164.029 18.2186C162.709 18.2186 161.97 19.1426 161.97 20.7V28.144H158.01V14.944H161.97V16.1573C162.381 15.619 162.92 15.1921 163.537 14.9157C164.156 14.6392 164.833 14.522 165.508 14.5746C166.185 14.5414 166.86 14.6845 167.466 14.9897C168.072 15.2948 168.588 15.7518 168.965 16.316C169.404 15.7257 169.985 15.2564 170.654 14.9518C171.324 14.6473 172.06 14.5176 172.793 14.5746C175.824 14.576 177.809 16.74 177.809 20.04Z" fill="#1B1D1E"/>
<path d="M181.158 14.864C182.781 14.864 184.097 13.5482 184.097 11.9253C184.097 10.3023 182.781 8.98663 181.158 8.98663C179.536 8.98663 178.22 10.3023 178.22 11.9253C178.22 13.5482 179.536 14.864 181.158 14.864Z" fill="#1B1D1E"/>
</svg>
