<svg width="136" height="40" viewBox="0 0 136 40" fill="none" xmlns="http://www.w3.org/2000/svg">
<g clip-path="url(#clip0_889_39)">
<path fill-rule="evenodd" clip-rule="evenodd" d="M5.14407 5.94782V4H0.708435V21.9478C0.708435 29.7085 6.97643 36 14.7084 36C22.4404 36 28.7084 29.7085 28.7084 21.9478V4H24.2727V5.94782H16.7876V4H12.352V5.94782H5.14407ZM12.352 31.2542C8.2483 30.2106 5.20196 26.5043 5.14488 22.0745C5.61763 22.1894 6.08188 22.3411 6.53331 22.5288C7.6769 23.0043 8.71598 23.7011 9.59124 24.5797C10.4665 25.4582 11.1608 26.5011 11.6345 27.649C12.1062 28.7921 12.35 30.017 12.352 31.2542ZM12.7277 21.4315C13.4223 22.1287 14.0394 22.8962 14.5698 23.7205C15.1002 22.8962 15.7173 22.1287 16.4119 21.4315C17.1065 20.7343 17.8712 20.1149 18.6924 19.5826C17.8712 19.0502 17.1065 18.4308 16.4119 17.7336C15.7173 17.0364 15.1002 16.2689 14.5698 15.4446C14.0394 16.2689 13.4223 17.0364 12.7277 17.7336C12.0331 18.4308 11.2684 19.0502 10.4472 19.5826C11.2684 20.1149 12.0331 20.7343 12.7277 21.4315ZM24.2725 22.0114C24.2431 26.5684 21.0503 30.3718 16.7876 31.3203V31.2695C16.7876 30.0271 17.0314 28.7968 17.5051 27.649C17.9788 26.5011 18.6731 25.4582 19.5483 24.5797C20.4236 23.7011 21.4627 23.0043 22.6062 22.5288C23.1458 22.3045 23.7037 22.1315 24.2725 22.0114ZM12.0158 10.4C11.9121 10.7789 11.7849 11.1516 11.6345 11.5161C11.1608 12.664 10.4665 13.7069 9.59124 14.5855C8.71598 15.464 7.6769 16.1608 6.53331 16.6363C6.0816 16.8241 5.61708 16.9759 5.14407 17.0908V10.4H12.0158ZM24.2727 17.1538V10.4H17.1238C17.2274 10.7789 17.3547 11.1516 17.5051 11.5161C17.9788 12.664 18.6731 13.7069 19.5483 14.5855C20.4236 15.464 21.4627 16.1608 22.6062 16.6363C23.1459 16.8607 23.7039 17.0337 24.2727 17.1538Z" fill="#09C382"/>
<path d="M44.7084 4V17.1026H52.9653V14.7283H47.4314V4H44.7084Z" fill="#124835"/>
<path d="M86.2928 7.49987V17.1026H88.928V7.49987H86.2928Z" fill="#124835"/>
<path d="M86.2928 4V6.63811H88.928V4H86.2928Z" fill="#124835"/>
<path fill-rule="evenodd" clip-rule="evenodd" d="M90.3294 20.62V7.49987H92.7889V8.49607C93.0729 8.16128 93.4243 7.89369 93.8428 7.69333C94.3932 7.42365 95.02 7.28883 95.7225 7.28883C96.6363 7.28883 97.4618 7.5116 98.1998 7.95714C98.9376 8.40269 99.5233 9.0065 99.9566 9.76863C100.39 10.519 100.607 11.3632 100.607 12.3012C100.607 13.2275 100.39 14.0717 99.9566 14.8338C99.5349 15.5959 98.9551 16.1997 98.2173 16.6453C97.4795 17.0908 96.6421 17.3136 95.705 17.3136C95.0491 17.3136 94.4402 17.1963 93.8781 16.9618C93.5319 16.807 93.2274 16.6081 92.9646 16.3651V20.62H90.3294ZM95.3889 14.9393C95.8807 14.9393 96.314 14.8279 96.689 14.6051C97.0637 14.3824 97.3566 14.0717 97.5672 13.673C97.7782 13.2744 97.8834 12.8171 97.8834 12.3012C97.8834 11.7853 97.7782 11.3339 97.5672 10.947C97.3566 10.5483 97.0637 10.2376 96.689 10.0149C96.314 9.78036 95.8807 9.66312 95.3889 9.66312C94.9203 9.66312 94.4987 9.77449 94.124 9.99726C93.7609 10.22 93.4739 10.5308 93.2633 10.9294C93.064 11.328 92.9646 11.7853 92.9646 12.3012C92.9646 12.8171 93.064 13.2744 93.2633 13.673C93.4739 14.0717 93.7609 14.3824 94.124 14.6051C94.4987 14.8279 94.9203 14.9393 95.3889 14.9393Z" fill="#124835"/>
<path d="M102.624 16.5749C103.409 17.0674 104.328 17.3136 105.382 17.3136C106.132 17.3136 106.782 17.1905 107.332 16.9443C107.883 16.6863 108.31 16.3346 108.615 15.889C108.931 15.4435 109.089 14.9217 109.089 14.3238C109.089 13.632 108.878 13.0516 108.457 12.5826C108.035 12.1019 107.426 11.7443 106.63 11.5098L105.101 11.0525C104.867 10.9822 104.668 10.9059 104.504 10.8239C104.352 10.7418 104.241 10.648 104.17 10.5425C104.1 10.4369 104.065 10.3197 104.065 10.1907C104.065 9.9445 104.158 9.75104 104.346 9.61035C104.545 9.46964 104.814 9.39931 105.154 9.39931C105.623 9.39931 106.038 9.52241 106.401 9.76863C106.776 10.0031 107.034 10.3197 107.174 10.7183L109.124 9.80381C108.832 9.0065 108.328 8.39096 107.614 7.95714C106.911 7.5116 106.091 7.28883 105.154 7.28883C104.44 7.28883 103.807 7.41779 103.257 7.67574C102.706 7.92196 102.279 8.26786 101.974 8.7134C101.67 9.15895 101.517 9.68071 101.517 10.2787C101.517 10.9587 101.728 11.5508 102.15 12.055C102.572 12.5474 103.175 12.9051 103.959 13.1278L105.593 13.5851C105.804 13.6437 105.98 13.7141 106.12 13.7961C106.261 13.8782 106.366 13.972 106.436 14.0775C106.507 14.1713 106.542 14.2886 106.542 14.4293C106.542 14.6989 106.442 14.91 106.243 15.0624C106.044 15.2148 105.757 15.291 105.382 15.291C104.867 15.291 104.398 15.1445 103.977 14.8514C103.555 14.5583 103.222 14.1537 102.976 13.6378L101.043 14.5524C101.324 15.3966 101.851 16.0708 102.624 16.5749Z" fill="#124835"/>
<path d="M120.127 17.1026V7.49987H122.586V8.6599C122.766 8.3089 123.018 8.02778 123.342 7.81646C123.881 7.46469 124.525 7.28883 125.274 7.28883C126.071 7.28883 126.768 7.49401 127.365 7.90437C127.72 8.13691 127.998 8.41733 128.198 8.74561C128.451 8.37414 128.754 8.07613 129.104 7.8516C129.69 7.47642 130.375 7.28883 131.16 7.28883C131.851 7.28883 132.46 7.44124 132.987 7.7461C133.525 8.05095 133.947 8.47891 134.252 9.02996C134.556 9.56931 134.708 10.2024 134.708 10.9294V17.1026H132.073V11.4922C132.073 11.117 132.003 10.7946 131.863 10.5249C131.733 10.2552 131.546 10.0442 131.3 9.89176C131.054 9.73931 130.756 9.66312 130.404 9.66312C130.065 9.66312 129.766 9.73931 129.508 9.89176C129.262 10.0442 129.069 10.2552 128.929 10.5249C128.8 10.7946 128.735 11.117 128.735 11.4922V17.1026H126.1V11.4922C126.1 11.117 126.03 10.7946 125.889 10.5249C125.76 10.2552 125.573 10.0442 125.327 9.89176C125.081 9.73931 124.783 9.66312 124.431 9.66312C124.091 9.66312 123.793 9.73931 123.535 9.89176C123.289 10.0442 123.096 10.2552 122.955 10.5249C122.827 10.7946 122.762 11.117 122.762 11.4922V17.1026H120.127Z" fill="#124835"/>
<path d="M113.58 17.3136C112.807 17.3136 112.146 17.1494 111.595 16.8212C111.057 16.4811 110.647 16.0121 110.366 15.4142C110.085 14.8162 109.944 14.1186 109.944 13.3213V7.49987H112.579V13.1102C112.579 13.4737 112.65 13.7961 112.79 14.0775C112.942 14.3472 113.153 14.5582 113.423 14.7107C113.692 14.8631 113.996 14.9393 114.336 14.9393C114.687 14.9393 114.992 14.8631 115.25 14.7107C115.519 14.5582 115.724 14.3472 115.864 14.0775C116.017 13.7961 116.093 13.4737 116.093 13.1102V7.49987H118.728V17.1026H116.268V15.934C116.045 16.3556 115.728 16.6806 115.32 16.9091C114.828 17.1787 114.248 17.3136 113.58 17.3136Z" fill="#124835"/>
<path fill-rule="evenodd" clip-rule="evenodd" d="M80.1373 17.3136C79.1889 17.3136 78.322 17.0967 77.5374 16.6628C76.7643 16.229 76.1437 15.6369 75.6751 14.8865C75.2186 14.1244 74.9901 13.2626 74.9901 12.3012C74.9901 11.328 75.2186 10.4663 75.6751 9.71586C76.1437 8.96549 76.7643 8.37337 77.5374 7.93955C78.322 7.50574 79.1889 7.28883 80.1373 7.28883C81.0861 7.28883 81.9471 7.50574 82.7198 7.93955C83.4929 8.37337 84.108 8.96549 84.5646 9.71586C85.0331 10.4663 85.2674 11.328 85.2674 12.3012C85.2674 13.2626 85.0331 14.1244 84.5646 14.8865C84.108 15.6369 83.4929 16.229 82.7198 16.6628C81.9471 17.0967 81.0861 17.3136 80.1373 17.3136ZM80.1373 14.9393C80.6175 14.9393 81.0333 14.8279 81.3847 14.6051C81.7478 14.3824 82.029 14.0717 82.228 13.673C82.439 13.2744 82.5444 12.8171 82.5444 12.3012C82.5444 11.7853 82.439 11.3339 82.228 10.947C82.029 10.5483 81.7478 10.2376 81.3847 10.0149C81.0333 9.78036 80.6175 9.66312 80.1373 9.66312C79.6571 9.66312 79.2355 9.78036 78.8725 10.0149C78.5094 10.2376 78.2227 10.5483 78.0117 10.947C77.8127 11.3339 77.7131 11.7853 77.7131 12.3012C77.7131 12.8171 77.8127 13.2744 78.0117 13.673C78.2227 14.0717 78.5094 14.3824 78.8725 14.6051C79.2355 14.8279 79.6571 14.9393 80.1373 14.9393Z" fill="#124835"/>
<path fill-rule="evenodd" clip-rule="evenodd" d="M67.1647 20.6024C67.797 20.8486 68.4823 20.9718 69.2201 20.9718C70.1452 20.9718 70.9594 20.7842 71.6619 20.4089C72.3763 20.0338 72.9387 19.512 73.3487 18.8437C73.7584 18.1871 73.9635 17.4367 73.9635 16.5925V7.49987H71.504V8.50847C71.2145 8.16853 70.8864 7.90269 70.5199 7.71092C70.0048 7.42951 69.4016 7.28883 68.7105 7.28883C67.8323 7.28883 67.0476 7.48815 66.3564 7.88678C65.6656 8.28545 65.121 8.8365 64.7227 9.54C64.3243 10.2318 64.1253 11.0291 64.1253 11.9319C64.1253 12.8347 64.3243 13.6437 64.7227 14.3589C65.121 15.0624 65.6714 15.6193 66.3739 16.0297C67.0767 16.4283 67.8731 16.6277 68.7632 16.6277C69.4544 16.6277 70.0575 16.4987 70.5727 16.2408C70.852 16.0946 71.1038 15.9088 71.3282 15.6834V16.5925C71.3282 17.0029 71.2402 17.3605 71.0648 17.6653C70.9008 17.9702 70.6607 18.1988 70.3446 18.3512C70.0281 18.5154 69.6534 18.5975 69.2201 18.5975C68.6697 18.5975 68.1953 18.4685 67.797 18.2106C67.3987 17.9526 67.1353 17.6008 67.0065 17.1553L64.5644 18.0171C64.7637 18.6151 65.0857 19.131 65.5306 19.5648C65.9875 20.0103 66.5321 20.3562 67.1647 20.6024ZM70.2918 13.9544C69.9637 14.142 69.5773 14.2358 69.1321 14.2358C68.6872 14.2358 68.2889 14.142 67.9374 13.9544C67.598 13.7551 67.3285 13.4854 67.1295 13.1454C66.9421 12.8054 66.8483 12.4126 66.8483 11.9671C66.8483 11.5098 66.9421 11.1111 67.1295 10.7711C67.3285 10.4194 67.598 10.1497 67.9374 9.96209C68.2889 9.76277 68.6872 9.66312 69.1321 9.66312C69.5657 9.66312 69.9462 9.76277 70.274 9.96209C70.6021 10.1497 70.8597 10.4194 71.0471 10.7711C71.2344 11.1111 71.3282 11.5098 71.3282 11.9671C71.3282 12.4243 71.2344 12.823 71.0471 13.163C70.8714 13.503 70.6196 13.7668 70.2918 13.9544Z" fill="#124835"/>
<path fill-rule="evenodd" clip-rule="evenodd" d="M58.3566 17.3136C57.4078 17.3136 56.5413 17.0967 55.7566 16.6628C54.9836 16.229 54.3629 15.6369 53.8944 14.8865C53.4375 14.1244 53.209 13.2626 53.209 12.3012C53.209 11.328 53.4375 10.4663 53.8944 9.71586C54.3629 8.96549 54.9836 8.37337 55.7566 7.93955C56.5413 7.50574 57.4078 7.28883 58.3566 7.28883C59.3053 7.28883 60.166 7.50574 60.9391 7.93955C61.7121 8.37337 62.3269 8.96549 62.7838 9.71586C63.2523 10.4663 63.4863 11.328 63.4863 12.3012C63.4863 13.2626 63.2523 14.1244 62.7838 14.8865C62.3269 15.6369 61.7121 16.229 60.9391 16.6628C60.166 17.0967 59.3053 17.3136 58.3566 17.3136ZM58.3566 14.9393C58.8368 14.9393 59.2526 14.8279 59.604 14.6051C59.967 14.3824 60.2482 14.0717 60.4472 13.673C60.6579 13.2744 60.7634 12.8171 60.7634 12.3012C60.7634 11.7853 60.6579 11.3339 60.4472 10.947C60.2482 10.5483 59.967 10.2376 59.604 10.0149C59.2526 9.78036 58.8368 9.66312 58.3566 9.66312C57.8764 9.66312 57.4547 9.78036 57.0917 10.0149C56.7286 10.2376 56.4416 10.5483 56.231 10.947C56.0316 11.3339 55.9323 11.7853 55.9323 12.3012C55.9323 12.8171 56.0316 13.2744 56.231 13.673C56.4416 14.0717 56.7286 14.3824 57.0917 14.6051C57.4547 14.8279 57.8764 14.9393 58.3566 14.9393Z" fill="#124835"/>
<path d="M46.6547 32.4489C47.2434 32.7731 47.9254 32.9352 48.7005 32.9352C49.4855 32.9352 50.1675 32.7731 50.7464 32.4489C51.3352 32.1248 51.7914 31.6827 52.1153 31.1227C52.4391 30.5529 52.601 29.9046 52.601 29.1777V21.7808H51.4235V29.1777C51.4235 29.7081 51.3057 30.1747 51.0702 30.5775C50.8445 30.9704 50.5256 31.2798 50.1135 31.5058C49.7112 31.722 49.2402 31.8301 48.7005 31.8301C48.1609 31.8301 47.685 31.722 47.2728 31.5058C46.8705 31.2798 46.5516 30.9704 46.3161 30.5775C46.0904 30.1747 45.9776 29.7081 45.9776 29.1777V21.7808H44.8001V29.1777C44.8001 29.9046 44.962 30.5529 45.2858 31.1227C45.6096 31.6827 46.0659 32.1248 46.6547 32.4489Z" fill="#124835"/>
<path d="M62.5425 24.8604V32.7583H63.6464V24.8604H62.5425Z" fill="#124835"/>
<path d="M62.5425 21.7808V23.4016H63.6464V21.7808H62.5425Z" fill="#124835"/>
<path d="M92.6754 32.7583V24.8604H93.7793V32.7583H92.6754Z" fill="#124835"/>
<path d="M92.6754 23.4016V21.7808H93.7793V23.4016H92.6754Z" fill="#124835"/>
<path d="M96.9806 32.2279C97.3633 32.6405 97.9079 32.8468 98.6144 32.8468C98.7027 32.8468 98.8205 32.8369 98.9677 32.8173C99.1148 32.8075 99.2473 32.7878 99.3651 32.7584V31.7711C99.2866 31.781 99.1933 31.7908 99.0854 31.8006C98.9775 31.8104 98.8842 31.8153 98.8057 31.8153C98.4819 31.8153 98.2219 31.7564 98.0257 31.6384C97.8392 31.5205 97.7068 31.3633 97.6283 31.1669C97.5498 30.9606 97.5105 30.7248 97.5105 30.4596V25.9655H99.2473V24.8604H97.5105V23.0333H96.4066V23.6963C96.4066 24.0303 96.3085 24.3103 96.1122 24.5362C95.916 24.7523 95.6511 24.8604 95.3174 24.8604H94.9495V25.9655H96.4066V30.4596C96.4066 31.2258 96.598 31.8153 96.9806 32.2279Z" fill="#124835"/>
<path d="M100.538 35.9558C100.705 35.9853 100.867 36 101.024 36C101.544 36 101.986 35.8919 102.349 35.6758C102.712 35.4695 103.011 35.1945 103.246 34.8507C103.492 34.5069 103.693 34.1434 103.85 33.7603L107.456 24.8604H106.234L103.665 31.3798L101.083 24.8604H99.8906L103.046 32.7642L102.761 33.4361C102.515 34.0059 102.265 34.389 102.01 34.5855C101.755 34.7917 101.387 34.8949 100.906 34.8949C100.749 34.8949 100.592 34.8802 100.435 34.8507C100.288 34.831 100.165 34.8163 100.067 34.8065V35.8379C100.224 35.8969 100.381 35.9361 100.538 35.9558Z" fill="#124835"/>
<path d="M86.3789 32.3605C86.9481 32.7436 87.6104 32.9352 88.3659 32.9352C88.9154 32.9352 89.4012 32.8418 89.8231 32.6552C90.245 32.4587 90.5737 32.1886 90.8092 31.8448C91.0545 31.5009 91.1772 31.1128 91.1772 30.6806C91.1772 30.1502 90.9957 29.6885 90.6326 29.2956C90.2794 28.9026 89.7838 28.6128 89.146 28.4262L87.8361 28.0431C87.6987 28.0038 87.5368 27.9449 87.3504 27.8663C87.1737 27.7877 87.0167 27.6698 86.8794 27.5126C86.742 27.3555 86.6733 27.1443 86.6733 26.8791C86.6733 26.5352 86.8058 26.2504 87.0707 26.0244C87.3356 25.7985 87.6889 25.6855 88.1305 25.6855C88.5818 25.6855 88.989 25.8132 89.3521 26.0686C89.725 26.3142 90.0095 26.658 90.2058 27.1001L91.1478 26.658C90.9221 26.0392 90.5345 25.5578 89.985 25.214C89.4453 24.8604 88.8419 24.6836 88.1746 24.6836C87.684 24.6836 87.2375 24.7769 86.8352 24.9635C86.4329 25.1502 86.114 25.4154 85.8785 25.7592C85.643 26.103 85.5253 26.5058 85.5253 26.9675C85.5253 27.4586 85.6872 27.8908 86.011 28.2641C86.3348 28.6374 86.8597 28.9272 87.5859 29.1335L88.7192 29.4576C88.8762 29.4969 89.0577 29.5608 89.2638 29.6492C89.4698 29.7376 89.6514 29.8653 89.8084 30.0323C89.9654 30.1895 90.0439 30.4056 90.0439 30.6806C90.0439 31.0539 89.882 31.3584 89.5582 31.5942C89.2343 31.8202 88.8369 31.9332 88.3659 31.9332C87.8753 31.9332 87.424 31.7908 87.0118 31.5058C86.6095 31.2209 86.2955 30.8378 86.0698 30.3565L85.1426 30.7985C85.3977 31.4567 85.8098 31.9774 86.3789 32.3605Z" fill="#124835"/>
<path d="M81.0965 32.7583V24.8604H82.2004V25.7149C82.3764 25.4578 82.607 25.2467 82.8922 25.0814C83.2749 24.8653 83.736 24.7572 84.2757 24.7572H84.7762V25.8623H84.0844C83.5153 25.8623 83.059 26.0392 82.7155 26.3928C82.3721 26.7464 82.2004 27.2474 82.2004 27.8958V32.7583H81.0965Z" fill="#124835"/>
<path fill-rule="evenodd" clip-rule="evenodd" d="M74.0724 32.4047C74.6709 32.7584 75.3382 32.9352 76.0741 32.9352C76.6138 32.9352 77.1044 32.8468 77.546 32.6699C77.9973 32.4833 78.3849 32.2426 78.7087 31.9479C79.0325 31.6433 79.2729 31.3142 79.4299 30.9606L78.4879 30.4596C78.2426 30.8722 77.9237 31.216 77.5312 31.491C77.1387 31.7662 76.653 31.9037 76.0741 31.9037C75.5737 31.9037 75.1027 31.776 74.6611 31.5205C74.2294 31.2651 73.8859 30.9066 73.6308 30.4449C73.4324 30.0639 73.3303 29.6317 73.3245 29.1482H79.533C79.5526 29.0205 79.5673 28.8977 79.5771 28.7798C79.5869 28.6521 79.5918 28.5392 79.5918 28.4409C79.5918 27.9694 79.5084 27.5126 79.3416 27.0706C79.1748 26.6187 78.9344 26.216 78.6204 25.8624C78.3064 25.4989 77.9237 25.214 77.4724 25.0077C77.0308 24.7916 76.5255 24.6836 75.9564 24.6836C75.24 24.6836 74.5924 24.8604 74.0135 25.214C73.4444 25.5677 72.993 26.0539 72.6594 26.6728C72.3258 27.2818 72.1589 27.9842 72.1589 28.7798C72.1589 29.5755 72.3307 30.2877 72.6741 30.9164C73.0175 31.5451 73.4836 32.0413 74.0724 32.4047ZM78.4085 28.1168H73.342C73.3784 27.7684 73.4698 27.4541 73.6161 27.1737C73.8516 26.7121 74.1754 26.3535 74.5875 26.0981C75.0095 25.8427 75.4657 25.715 75.9564 25.715C76.447 25.715 76.8885 25.8427 77.281 26.0981C77.6735 26.3437 77.9728 26.6826 78.1789 27.1148C78.334 27.4183 78.4104 27.7524 78.4085 28.1168Z" fill="#124835"/>
<path d="M67.5692 32.7583L64.493 24.8604H65.7294L68.1218 31.256L70.5276 24.8604H71.7787L68.6731 32.7583H67.5692Z" fill="#124835"/>
<path d="M54.5466 32.7584V24.8604H55.6505V25.8387C55.8342 25.5552 56.0697 25.3175 56.357 25.1256C56.8084 24.8309 57.3284 24.6836 57.9172 24.6836C58.4765 24.6836 58.9769 24.8113 59.4185 25.0667C59.8698 25.3221 60.2231 25.6757 60.4782 26.1276C60.7431 26.5696 60.8756 27.0706 60.8756 27.6305V32.7584H59.7717V28.0578C59.7717 27.5765 59.6834 27.1688 59.5068 26.8348C59.34 26.5009 59.0996 26.2455 58.7856 26.0686C58.4814 25.882 58.1281 25.7887 57.7258 25.7887C57.3235 25.7887 56.9654 25.882 56.6514 26.0686C56.3374 26.2455 56.092 26.5058 55.9154 26.8496C55.7388 27.1836 55.6505 27.5863 55.6505 28.0578V32.7584H54.5466Z" fill="#124835"/>
</g>
<defs>
<clipPath id="clip0_889_39">
<rect width="135" height="40" fill="white" transform="translate(0.617859)"/>
</clipPath>
</defs>
</svg>
