<svg width="572" height="92" xmlns="http://www.w3.org/2000/svg" fill="none">
 <g id="Layer_1">
  <title>Layer 1</title>
  <line fill="none" stroke="null" x1="291.62206" y1="19.87449" x2="285.74712" y2="31.37436" id="svg_5"/>
  <g stroke="null">
   <g stroke="#ffffff" fill="#ffffff" stroke-width="0.5" font-size="9pt" fill-rule="nonzero" stroke-linecap="round" id="svg_10">
    <path stroke="null" d="m562.33998,67.80339l-13.83654,0l-19.85583,-23.18241l0,23.18241l-10.94416,0l0,-52.02998l10.94416,0l0,23.33149l19.85583,-23.33149l13.21116,0l-22.5137,25.79136l23.13908,26.23861zm-552.67998,-14.98284l11.72588,0q0.23452,3.20528 2.38426,5.06882q2.14975,1.86354 5.90203,1.86354q3.83046,0 6.01929,-1.75173q2.18883,-1.75173 2.18883,-4.5843q0,-2.31079 -1.48528,-3.80162q-1.48528,-1.49083 -3.7132,-2.34806q-2.22792,-0.85723 -6.13655,-1.90081q-5.31573,-1.49083 -8.63807,-2.94439q-3.32233,-1.45356 -5.7066,-4.39795q-2.38426,-2.94439 -2.38426,-7.86413q0,-4.62157 2.42335,-8.05048q2.42335,-3.42891 6.80101,-5.25518q4.37766,-1.82627 10.00609,-1.82627q8.44264,0 13.71928,3.91343q5.27665,3.91343 5.82386,10.92033l-12.03857,0q-0.15635,-2.68349 -2.38426,-4.43522q-2.22792,-1.75173 -5.90203,-1.75173q-3.20507,0 -5.1203,1.56537q-1.91523,1.56537 -1.91523,4.54703q0,2.08716 1.44619,3.46618q1.44619,1.37902 3.59594,2.23625q2.14975,0.85723 6.05837,1.97535q5.31573,1.49083 8.67715,2.98166q3.36142,1.49083 5.78477,4.47249q2.42335,2.98166 2.42335,7.82686q0,4.17432 -2.267,7.75232q-2.267,3.57799 -6.64467,5.70243q-4.37766,2.12443 -10.39695,2.12443q-5.7066,0 -10.27969,-1.86354q-4.57309,-1.86354 -7.23096,-5.36699q-2.65787,-3.50345 -2.73604,-8.27411zm459.02925,0l11.72588,0q0.23452,3.20528 2.38426,5.06882q2.14975,1.86354 5.90203,1.86354q3.83046,0 6.01929,-1.75173q2.18883,-1.75173 2.18883,-4.5843q0,-2.31079 -1.48528,-3.80162q-1.48528,-1.49083 -3.7132,-2.34806q-2.22792,-0.85723 -6.13655,-1.90081q-5.31573,-1.49083 -8.63807,-2.94439q-3.32233,-1.45356 -5.7066,-4.39795q-2.38426,-2.94439 -2.38426,-7.86413q0,-4.62157 2.42335,-8.05048q2.42335,-3.42891 6.80101,-5.25518q4.37766,-1.82627 10.00609,-1.82627q8.44264,0 13.71928,3.91343q5.27665,3.91343 5.82386,10.92033l-12.03857,0q-0.15635,-2.68349 -2.38426,-4.43522q-2.22792,-1.75173 -5.90203,-1.75173q-3.20507,0 -5.1203,1.56537q-1.91523,1.56537 -1.91523,4.54703q0,2.08716 1.44619,3.46618q1.44619,1.37902 3.59594,2.23625q2.14975,0.85723 6.05837,1.97535q5.31573,1.49083 8.67715,2.98166q3.36142,1.49083 5.78477,4.47249q2.42335,2.98166 2.42335,7.82686q0,4.17432 -2.267,7.75232q-2.267,3.57799 -6.64467,5.70243q-4.37766,2.12443 -10.39695,2.12443q-5.7066,0 -10.27969,-1.86354q-4.57309,-1.86354 -7.23096,-5.36699q-2.65787,-3.50345 -2.73604,-8.27411zm-348.6496,-37.04713l10.94416,0l0,32.20193q0,5.29245 2.89238,8.08775q2.89238,2.79531 8.12995,2.79531q5.31573,0 8.20812,-2.79531q2.89238,-2.79531 2.89238,-8.08775l0,-32.20193l11.02233,0l0,32.12739q0,6.63419 -3.00964,11.2185q-3.00964,4.5843 -8.05177,6.89509q-5.04213,2.31079 -11.21776,2.31079q-6.09746,0 -11.06142,-2.31079q-4.96396,-2.31079 -7.85634,-6.89509q-2.89238,-4.5843 -2.89238,-11.2185l0,-32.12739zm242.49127,8.42319l-20.71573,0l0,13.04476l18.37055,0l0,8.27411l-18.37055,0l0,13.79018l20.71573,0l0,8.49773l-31.65989,0l0,-52.10452l31.65989,0l0,8.49773zm97.63752,0l-20.71573,0l0,13.04476l18.37055,0l0,8.27411l-18.37055,0l0,13.79018l20.71573,0l0,8.49773l-31.65989,0l0,-52.10452l31.65989,0l0,8.49773zm-188.70855,43.60678l-12.66395,0l-12.03857,-20.27529l-5.15939,0l0,20.27529l-10.94416,0l0,-52.02998l20.48121,0q6.33198,0 10.78781,2.12443q4.45584,2.12443 6.68375,5.7397q2.22792,3.61526 2.22792,8.08775q0,5.14336 -3.1269,9.28042q-3.1269,4.13705 -9.30253,5.70243l13.05482,21.09525zm-29.86192,-43.38316l0,15.28101l9.14619,0q4.45584,0 6.64467,-2.04989q2.18883,-2.04989 2.18883,-5.70243q0,-3.57799 -2.18883,-5.55334q-2.18883,-1.97535 -6.64467,-1.97535l-9.14619,0zm79.97053,43.38316l-12.66395,0l-12.03857,-20.27529l-5.15939,0l0,20.27529l-10.94416,0l0,-52.02998l20.48121,0q6.33198,0 10.78781,2.12443q4.45584,2.12443 6.68375,5.7397q2.22792,3.61526 2.22792,8.08775q0,5.14336 -3.1269,9.28042q-3.1269,4.13705 -9.30253,5.70243l13.05482,21.09525zm-29.86192,-43.38316l0,15.28101l9.14619,0q4.45584,0 6.64467,-2.04989q2.18883,-2.04989 2.18883,-5.70243q0,-3.57799 -2.18883,-5.55334q-2.18883,-1.97535 -6.64467,-1.97535l-9.14619,0zm-178.78064,52.55177l-13.60202,0l-8.28629,-9.46677q-3.43959,0.81996 -7.03553,0.81996q-7.66091,0 -14.07106,-3.42891q-6.41015,-3.42891 -10.16243,-9.50404q-3.75228,-6.07513 -3.75228,-13.75291q0,-7.60323 3.75228,-13.67837q3.75228,-6.07513 10.16243,-9.50404q6.41015,-3.42891 14.07106,-3.42891q7.73908,0 14.11015,3.42891q6.37106,3.42891 10.08426,9.50404q3.7132,6.07513 3.7132,13.67837q0,6.93236 -3.08782,12.63479q-3.08782,5.70243 -8.40355,9.28042l12.50761,13.41747zm-45.65277,-35.33268q0,5.21791 2.11066,9.16861q2.11066,3.9507 5.90203,6.07513q3.79137,2.12443 8.71624,2.12443q4.92487,0 8.67715,-2.12443q3.75228,-2.12443 5.86294,-6.07513q2.11066,-3.9507 2.11066,-9.16861q0,-5.21791 -2.11066,-9.13134q-2.11066,-3.91343 -5.86294,-6.00059q-3.75228,-2.08716 -8.67715,-2.08716q-4.92487,0 -8.71624,2.08716q-3.79137,2.08716 -5.90203,6.00059q-2.11066,3.91343 -2.11066,9.13134zm144.46288,26.16407l-3.59594,-9.91402l-21.73197,0l-3.59594,9.91402l-11.49137,0l19.62131,-52.10452l12.74213,0l19.62131,52.10452l-11.56954,0zm-22.35735,-18.26267l15.79086,0l-7.89543,-21.76612l-7.89543,21.76612zm202.15423,18.26267l-19.0741,0l0,-52.02998l19.0741,0q8.59898,0 15.12639,3.20528q6.52741,3.20528 10.08426,9.13134q3.55685,5.92605 3.55685,13.75291q0,7.82686 -3.55685,13.67837q-3.55685,5.85151 -10.08426,9.05679q-6.52741,3.20528 -15.12639,3.20528zm-0.39086,-43.23408l-7.73908,0l0,34.36364l7.73908,0q8.59898,0 13.28933,-4.47249q4.69035,-4.47249 4.69035,-12.59752q0,-8.12502 -4.69035,-12.70933q-4.69035,-4.5843 -13.28933,-4.5843z"/>
   </g>
  </g>
 </g>

</svg>