<svg width="572" height="92" xmlns="http://www.w3.org/2000/svg" fill="none">
 <g id="Layer_1">
  <title>Layer 1</title>
  <line fill="none" stroke="null" x1="291.62206" y1="19.87449" x2="285.74712" y2="31.37436" id="svg_5"/>
  <g stroke="null">
   <g stroke="#000000" fill="#000000" stroke-width="0.5" font-size="9pt" fill-rule="nonzero" stroke-linecap="round" id="svg_6">
    <path stroke="null" d="m204.98684,7.71898l12.11009,0l0,74.66902l-10.73046,0l0,-48.56696l-14.33283,48.56696l-8.12449,0l-14.40947,-48.56696l0,48.56696l-10.73046,0l0,-74.66902l12.18673,0l17.01544,55.52038l17.01544,-55.52038zm53.72893,12.08825l-20.31122,0l0,18.72074l18.01184,0l0,11.8743l-18.01184,0l0,19.7905l20.31122,0l0,12.19523l-31.04168,0l0,-74.776l31.04168,0l0,12.19523zm158.12096,0l-20.31122,0l0,18.72074l18.01184,0l0,11.8743l-18.01184,0l0,19.7905l20.31122,0l0,12.19523l-31.04168,0l0,-74.776l31.04168,0l0,12.19523zm97.26393,0l-20.31122,0l0,18.72074l18.01184,0l0,11.8743l-18.01184,0l0,19.7905l20.31122,0l0,12.19523l-31.04168,0l0,-74.776l31.04168,0l0,12.19523zm-468.46112,-0.53488l-24.06688,50.49252l24.06688,0l0,12.62313l-36.48356,0l0,-11.55337l23.91359,-50.49252l-23.91359,0l0,-12.62313l36.48356,0l0,11.55337zm104.00879,63.11565l-12.41667,0l-11.8035,-29.09738l-5.05864,0l0,29.09738l-10.73046,0l0,-74.66902l20.08128,0q6.20834,0 10.57717,3.04881q4.36883,3.04881 6.55324,8.23713q2.18441,5.18832 2.18441,11.60686q0,7.38132 -3.06585,13.31847q-3.06585,5.93715 -9.12089,8.18364l12.7999,30.27412zm-29.27882,-62.25985l0,21.93001l8.9676,0q4.36883,0 6.51492,-2.94183q2.14609,-2.94183 2.14609,-8.18364q0,-5.13483 -2.14609,-7.96969q-2.14609,-2.83486 -6.51492,-2.83486l-8.9676,0zm443.47448,62.25985l-12.41667,0l-11.8035,-29.09738l-5.05864,0l0,29.09738l-10.73046,0l0,-74.66902l20.08128,0q6.20834,0 10.57717,3.04881q4.36883,3.04881 6.55324,8.23713q2.18441,5.18832 2.18441,11.60686q0,7.38132 -3.06585,13.31847q-3.06585,5.93715 -9.12089,8.18364l12.7999,30.27412zm-29.27882,-62.25985l0,21.93001l8.9676,0q4.36883,0 6.51492,-2.94183q2.14609,-2.94183 2.14609,-8.18364q0,-5.13483 -2.14609,-7.96969q-2.14609,-2.83486 -6.51492,-2.83486l-8.9676,0zm-443.47448,62.25985l-3.52572,-14.22777l-21.30762,0l-3.52572,14.22777l-11.26698,0l19.23818,-74.776l12.49332,0l19.23818,74.776l-11.34363,0zm-21.92079,-26.20904l15.48252,0l-7.74126,-31.2369l-7.74126,31.2369zm253.85197,26.20904l-3.52572,-14.22777l-21.30762,0l-3.52572,14.22777l-11.26698,0l19.23818,-74.776l12.49332,0l19.23818,74.776l-11.34363,0zm-21.92079,-26.20904l15.48252,0l-7.74126,-31.2369l-7.74126,31.2369zm37.63325,-48.45998l39.24282,0l0,12.08825l-14.25618,0l0,62.58077l-10.73046,0l0,-62.58077l-14.25618,0l0,-12.08825zm98.56692,0l0,62.79472l17.62861,0l0,11.8743l-28.35907,0l0,-74.66902l10.73046,0zm24.45011,0l10.73046,0l0,74.66902l-10.73046,0l0,-74.66902z"/>
   </g>
  </g>
 </g>

</svg>