<svg width="117" height="37" xmlns="http://www.w3.org/2000/svg" fill="none">
 <g id="Layer_1">
  <title>Layer 1</title>
  <line id="svg_5" y2="31.37436" x2="285.74712" y1="19.87449" x1="291.62206" stroke="null" fill="none"/>
  <text fill="#000000" stroke-width="0" x="182.63834" y="54.90929" id="svg_3" font-size="24" font-family="'Manrope'" text-anchor="start" xml:space="preserve" stroke="null" transform="matrix(2.73134 0 0 2.27846 -318.783 -73.6998)">.</text>


  <g stroke="null">
   <g stroke="null" transform="translate(193.822 85.06)">
    <path stroke="null" fill="#94d137" d="m-186.75232,-59.48056l0,0q-2.45,0 -3.55,-1.03809l0,0l0,0q-1.09,-1.03809 -1.09,-3.34401l0,0l0,-1.49757l3.55,0l0,1.91451l0,0q0,1.1402 0.86,1.1402l0,0l0,0q0.48,0 0.67,-0.23825l0,0l0,0q0.19,-0.24676 0.19,-0.81686l0,0l0,0q0,-0.74879 -0.21,-1.24231l0,0l0,0q-0.21,-0.49352 -0.53,-0.81686l0,0l0,0q-0.33,-0.33185 -1.17,-1.02958l0,0l-1.55,-1.3274l0,0q-1.81,-1.49757 -1.81,-3.31849l0,0l0,0q0,-1.96557 1.06,-2.99515l0,0l0,0q1.06,-1.02958 3.1,-1.02958l0,0l0,0q2.44,0 3.51,1.09765l0,0l0,0q1.07,1.10616 1.07,3.44612l0,0l-3.68,0l-0.02,-1.05511l0,0q0,-0.30632 -0.2,-0.48501l0,0l0,0q-0.2,-0.17869 -0.55,-0.17869l0,0l0,0q-0.42,0 -0.63,0.19571l0,0l0,0q-0.21,0.19571 -0.21,0.53606l0,0l0,0q0,0.74879 1,1.55714l0,0l2.1,1.7103l0,0q0.74,0.61264 1.22,1.15722l0,0l0,0q0.48,0.54457 0.78,1.28485l0,0l0,0q0.29,0.74028 0.29,1.76135l0,0l0,0q0,2.27189 -0.97,3.43761l0,0l0,0q-0.98,1.17423 -3.23,1.17423l0,0zm13.38,1.48056l-2.88,-1.60819l0,0q-0.8,0.12763 -0.9,0.12763l0,0l0,0q-2.18,0 -3.32,-1.06362l0,0l0,0q-1.13,-1.06362 -1.13,-3.12278l0,0l0,-7.41129l0,0q0,-1.98258 1.14,-3.01217l0,0l0,0q1.15,-1.02958 3.31,-1.02958l0,0l0,0q2.16,0 3.31,1.02958l0,0l0,0q1.14,1.02958 1.14,3.01217l0,0l0,7.41129l0,0q0,1.89749 -1.01,3.00366l0,0l1.56,0.84239l-1.22,1.82091zm-3.78,-4.30553l0,0q0.52,0 0.67,-0.42545l0,0l0,0q0.15,-0.43396 0.15,-1.11467l0,0l0,-7.18155l0,0q0,-0.58712 -0.18,-0.92747l0,0l0,0q-0.18,-0.34036 -0.66,-0.34036l0,0l0,0q-0.86,0 -0.86,1.25081l0,0l0,7.25813l0,0q0,0.63817 0.17,1.06362l0,0l0,0q0.16,0.41694 0.71,0.41694l0,0zm10.35,2.82497l0,0q-2.22,0 -3.31,-1.07213l0,0l0,0q-1.08,-1.07213 -1.08,-3.18234l0,0l0,-11.24031l3.51,0l0,11.11268l0,0q0,0.73177 0.17,1.14871l0,0l0,0q0.17,0.40843 0.71,0.40843l0,0l0,0q0.55,0 0.72,-0.39992l0,0l0,0q0.16,-0.40843 0.16,-1.15722l0,0l0,-11.11268l3.51,0l0,11.24031l0,0q0,2.11022 -1.08,3.18234l0,0l0,0q-1.08,1.07213 -3.31,1.07213l0,0zm8.8,-0.14465l-3.51,0l1.75,-15.35013l6.11,0l1.72,15.35013l-3.42,0l-0.25,-2.48461l-2.19,0l-0.21,2.48461zm1.16,-12.73789l-0.68,7.8027l1.64,0l-0.8,-7.8027l-0.16,0zm6,12.73789l0,-15.35013l5.55,0l0,0q1.32,0 2.04,0.51054l0,0l0,0q0.73,0.51054 0.98,1.4295l0,0l0,0q0.25,0.91897 0.25,2.34847l0,0l0,0q0,1.30187 -0.4,2.03364l0,0l0,0q-0.4,0.74028 -1.38,1.02107l0,0l0,0q0.82,0.14465 1.18,0.69773l0,0l0,0q0.37,0.55308 0.37,1.49757l0,0l-0.04,5.81161l-3.53,0l0,-6.00731l0,0q0,-0.63817 -0.29,-0.81686l0,0l0,0q-0.3,-0.17869 -1.07,-0.17869l0,0l0,7.00286l-3.66,0zm3.68,-9.66616l0.86,0l0,0q0.75,0 0.75,-1.39547l0,0l0,0q0,-0.60413 -0.06,-0.91046l0,0l0,0q-0.06,-0.30632 -0.23,-0.41694l0,0l0,0q-0.17,-0.11913 -0.48,-0.11913l0,0l-0.84,0l0,2.84199zm6.34,9.66616l0,-15.35013l5.54,0l0,0q1.33,0 2.05,0.51054l0,0l0,0q0.73,0.51054 0.98,1.4295l0,0l0,0q0.25,0.91897 0.25,2.34847l0,0l0,0q0,1.30187 -0.4,2.03364l0,0l0,0q-0.4,0.74028 -1.39,1.02107l0,0l0,0q0.82,0.14465 1.19,0.69773l0,0l0,0q0.37,0.55308 0.37,1.49757l0,0l-0.04,5.81161l-3.53,0l0,-6.00731l0,0q0,-0.63817 -0.3,-0.81686l0,0l0,0q-0.29,-0.17869 -1.07,-0.17869l0,0l0,7.00286l-3.65,0zm3.67,-9.66616l0.87,0l0,0q0.75,0 0.75,-1.39547l0,0l0,0q0,-0.60413 -0.06,-0.91046l0,0l0,0q-0.06,-0.30632 -0.23,-0.41694l0,0l0,0q-0.17,-0.11913 -0.49,-0.11913l0,0l-0.84,0l0,2.84199zm13.8,9.66616l-7.45,0l0,-15.35013l7.22,0l0,2.96962l-3.55,0l0,2.97813l3.4,0l0,2.90155l-3.4,0l0,3.51419l3.78,0l0,2.98664zm6.11,0l0,-15.35013l4.98,0l0,0q1.93,0 2.9,0.91046l0,0l0,0q0.96,0.91046 0.98,2.69734l0,0l0.05,7.18155l0,0q0.02,2.27189 -0.93,3.4206l0,0l0,0q-0.94,1.1402 -3.13,1.1402l0,0l-4.85,0zm3.64,-2.71435l0.63,0l0,0q0.98,0 0.98,-0.82537l0,0l0,-7.91332l0,0q0,-0.51905 -0.09,-0.77431l0,0l0,0q-0.1,-0.26378 -0.35,-0.34887l0,0l0,0q-0.25,-0.0936 -0.78,-0.0936l0,0l-0.39,0l0,9.95546zm14.17,2.71435l-7.45,0l0,-15.35013l7.22,0l0,2.96962l-3.55,0l0,2.97813l3.4,0l0,2.90155l-3.4,0l0,3.51419l3.78,0l0,2.98664zm5.48,0.14465l0,0q-2.46,0 -3.55,-1.03809l0,0l0,0q-1.09,-1.03809 -1.09,-3.34401l0,0l0,-1.49757l3.55,0l0,1.91451l0,0q0,1.1402 0.86,1.1402l0,0l0,0q0.48,0 0.67,-0.23825l0,0l0,0q0.19,-0.24676 0.19,-0.81686l0,0l0,0q0,-0.74879 -0.21,-1.24231l0,0l0,0q-0.21,-0.49352 -0.53,-0.81686l0,0l0,0q-0.33,-0.33185 -1.17,-1.02958l0,0l-1.55,-1.3274l0,0q-1.81,-1.49757 -1.81,-3.31849l0,0l0,0q0,-1.96557 1.06,-2.99515l0,0l0,0q1.06,-1.02958 3.1,-1.02958l0,0l0,0q2.43,0 3.51,1.09765l0,0l0,0q1.07,1.10616 1.07,3.44612l0,0l-3.68,0l-0.02,-1.05511l0,0q0,-0.30632 -0.2,-0.48501l0,0l0,0q-0.2,-0.17869 -0.56,-0.17869l0,0l0,0q-0.42,0 -0.63,0.19571l0,0l0,0q-0.21,0.19571 -0.21,0.53606l0,0l0,0q0,0.74879 1.01,1.55714l0,0l2.1,1.7103l0,0q0.74,0.61264 1.22,1.15722l0,0l0,0q0.48,0.54457 0.78,1.28485l0,0l0,0q0.29,0.74028 0.29,1.76135l0,0l0,0q0,2.27189 -0.98,3.43761l0,0l0,0q-0.97,1.17423 -3.22,1.17423l0,0zm8.99,-0.14465l-3.59,0l0,-15.35013l3.57,0l0,6.14346l1.68,-6.14346l3.63,0l-2.01,7.01988l2.43,8.33026l-3.74,0l-1.97,-7.43682l0,7.43682z"/>
   </g>
  </g>
 </g>

</svg>
