<svg width="117" height="34" viewBox="0 0 117 34" fill="none" xmlns="http://www.w3.org/2000/svg">
<path d="M22.1301 1H9.86989L0 10.8699V23.1301L9.86989 33H22.1301L32 23.1301V10.8699L22.1301 1ZM11.5663 23.2843L5.24339 16.9614L11.5663 10.6386C13.9566 8.24819 17.8892 8.24819 20.2795 10.6386L26.6024 16.9614L20.2795 23.2843C17.8892 25.6747 14.0337 25.6747 11.5663 23.2843Z" fill="#1B1D1E"/>
<path d="M48.125 26H44.1758L50.1992 8.53906H54.957L60.9688 26H57.0312L52.6484 12.5234H52.5078L48.125 26ZM47.8906 19.1328H57.2305V22.0156H47.8906V19.1328ZM62.6684 26L59.1059 12.8984H62.7856L64.813 21.7109H64.9302L67.0513 12.8984H70.6489L72.7934 21.6523H72.9106L74.9028 12.8984H78.5708L75.0083 26H71.1763L68.9263 17.7617H68.7622L66.5122 26H62.6684ZM82.9658 26.2461C82.1377 26.2461 81.3916 26.1016 80.7275 25.8125C80.0713 25.5156 79.5556 25.0781 79.1806 24.5C78.8056 23.9219 78.6181 23.2031 78.6181 22.3438C78.6181 21.6094 78.7509 21 79.0166 20.5156C79.2822 20.0234 79.6455 19.625 80.1064 19.3203C80.5673 19.0156 81.0908 18.7852 81.6767 18.6289C82.2627 18.4727 82.8838 18.3633 83.54 18.3008C84.2978 18.2305 84.9072 18.1602 85.3681 18.0898C85.8291 18.0195 86.165 17.9141 86.3759 17.7734C86.5947 17.625 86.7041 17.4141 86.7041 17.1406V17.082C86.7041 16.543 86.5322 16.125 86.1884 15.8281C85.8525 15.5312 85.3759 15.3828 84.7588 15.3828C84.1103 15.3828 83.5908 15.5273 83.2002 15.8164C82.8173 16.0977 82.5634 16.457 82.4384 16.8945L79.0752 16.625C79.247 15.8281 79.583 15.1406 80.083 14.5625C80.583 13.9766 81.2275 13.5273 82.0166 13.2148C82.8134 12.8945 83.7353 12.7344 84.7822 12.7344C85.5088 12.7344 86.2041 12.8203 86.8681 12.9922C87.5322 13.1641 88.122 13.4297 88.6377 13.7891C89.1611 14.1406 89.5752 14.5977 89.8798 15.1602C90.1845 15.7227 90.3369 16.3906 90.3369 17.1641V26H86.8798V24.1719H86.7861C86.5752 24.5859 86.2939 24.9492 85.9423 25.2617C85.5908 25.5664 85.1689 25.8086 84.6767 25.9883C84.1845 26.1602 83.6142 26.2461 82.9658 26.2461ZM84.0088 23.7383C84.54 23.7383 85.0088 23.6328 85.415 23.4219C85.8291 23.2031 86.1494 22.9141 86.3759 22.5547C86.6103 22.1875 86.7275 21.7773 86.7275 21.3242V19.9297C86.6181 20 86.4619 20.0664 86.2588 20.1289C86.0634 20.1914 85.8447 20.2461 85.6025 20.293C85.3603 20.3398 85.1181 20.3828 84.8759 20.4219C84.6338 20.4531 84.415 20.4844 84.2197 20.5156C83.79 20.5781 83.415 20.6797 83.0947 20.8203C82.7744 20.9531 82.5244 21.1367 82.3447 21.3711C82.1728 21.5977 82.0869 21.8828 82.0869 22.2266C82.0869 22.7188 82.2666 23.0938 82.6259 23.3516C82.9853 23.6094 83.4463 23.7383 84.0088 23.7383ZM95.2592 22.2266L95.2709 17.8789H95.7983L99.9819 12.8984H104.154L98.5288 19.4961H97.6498L95.2592 22.2266ZM91.978 26V8.53906H95.5991V26H91.978ZM100.146 26L96.3022 20.3047L98.7163 17.7266L104.4 26H100.146ZM110.096 26.2578C108.752 26.2578 107.592 25.9844 106.615 25.4375C105.639 24.8906 104.889 24.1133 104.365 23.1055C103.85 22.0898 103.592 20.8906 103.592 19.5078C103.592 18.1641 103.85 16.9844 104.365 15.9688C104.889 14.9531 105.623 14.1602 106.568 13.5898C107.521 13.0195 108.639 12.7344 109.92 12.7344C110.787 12.7344 111.596 12.875 112.346 13.1562C113.096 13.4297 113.752 13.8438 114.314 14.3984C114.877 14.9453 115.314 15.6367 115.627 16.4727C115.939 17.3008 116.096 18.2734 116.096 19.3906V20.375H105.033V18.1367H114.338L112.65 18.7227C112.65 18.0586 112.549 17.4805 112.346 16.9883C112.143 16.4961 111.838 16.1172 111.432 15.8516C111.033 15.5781 110.537 15.4414 109.943 15.4414C109.35 15.4414 108.846 15.5781 108.432 15.8516C108.025 16.125 107.713 16.4961 107.494 16.9648C107.275 17.4336 107.166 17.9727 107.166 18.582V20.1641C107.166 20.875 107.291 21.4844 107.541 21.9922C107.791 22.4922 108.139 22.8789 108.584 23.1523C109.037 23.418 109.557 23.5508 110.143 23.5508C110.549 23.5508 110.916 23.4922 111.244 23.375C111.572 23.2578 111.853 23.0859 112.088 22.8594C112.33 22.6328 112.51 22.3594 112.627 22.0391L115.978 22.2617C115.814 23.0664 115.471 23.7695 114.947 24.3711C114.432 24.9648 113.764 25.4297 112.943 25.7656C112.123 26.0938 111.174 26.2578 110.096 26.2578Z" fill="#1B1D1E"/>
</svg>
