<svg width="108" height="20" viewBox="0 0 108 20" fill="none" xmlns="http://www.w3.org/2000/svg">
<path d="M18.0859 7.5H12.3398L10.5938 2.28906C10.5078 2.03516 10.2695 1.875 10 1.875C9.73047 1.875 9.49219 2.03516 9.40625 2.28906L7.66016 7.5H1.875C1.53125 7.5 1.25 7.78125 1.25 8.125C1.25 8.16016 1.25391 8.19922 1.26172 8.23047C1.26953 8.36719 1.33203 8.51953 1.52344 8.67188L6.24609 12L4.43359 17.2695C4.34375 17.5234 4.43359 17.8086 4.64844 17.9727C4.76172 18.0547 4.86719 18.125 5 18.125C5.12891 18.125 5.28125 18.0586 5.39062 17.9844L10 14.6992L14.6094 17.9844C14.7188 18.0625 14.8711 18.125 15 18.125C15.1328 18.125 15.2383 18.0586 15.3477 17.9727C15.5664 17.8086 15.6523 17.5273 15.5625 17.2695L13.75 12L18.4336 8.64062L18.5469 8.54297C18.6484 8.43359 18.75 8.28516 18.75 8.125C18.75 7.78125 18.4297 7.5 18.0859 7.5Z" fill="#F59E0B"/>
<path d="M40.0859 7.5H34.3398L32.5938 2.28906C32.5078 2.03516 32.2695 1.875 32 1.875C31.7305 1.875 31.4922 2.03516 31.4062 2.28906L29.6602 7.5H23.875C23.5312 7.5 23.25 7.78125 23.25 8.125C23.25 8.16016 23.2539 8.19922 23.2617 8.23047C23.2695 8.36719 23.332 8.51953 23.5234 8.67188L28.2461 12L26.4336 17.2695C26.3438 17.5234 26.4336 17.8086 26.6484 17.9727C26.7617 18.0547 26.8672 18.125 27 18.125C27.1289 18.125 27.2812 18.0586 27.3906 17.9844L32 14.6992L36.6094 17.9844C36.7188 18.0625 36.8711 18.125 37 18.125C37.1328 18.125 37.2383 18.0586 37.3477 17.9727C37.5664 17.8086 37.6523 17.5273 37.5625 17.2695L35.75 12L40.4336 8.64062L40.5469 8.54297C40.6484 8.43359 40.75 8.28516 40.75 8.125C40.75 7.78125 40.4297 7.5 40.0859 7.5Z" fill="#F59E0B"/>
<path d="M62.0859 7.5H56.3398L54.5938 2.28906C54.5078 2.03516 54.2695 1.875 54 1.875C53.7305 1.875 53.4922 2.03516 53.4062 2.28906L51.6602 7.5H45.875C45.5312 7.5 45.25 7.78125 45.25 8.125C45.25 8.16016 45.2539 8.19922 45.2617 8.23047C45.2695 8.36719 45.332 8.51953 45.5234 8.67188L50.2461 12L48.4336 17.2695C48.3438 17.5234 48.4336 17.8086 48.6484 17.9727C48.7617 18.0547 48.8672 18.125 49 18.125C49.1289 18.125 49.2812 18.0586 49.3906 17.9844L54 14.6992L58.6094 17.9844C58.7188 18.0625 58.8711 18.125 59 18.125C59.1328 18.125 59.2383 18.0586 59.3477 17.9727C59.5664 17.8086 59.6523 17.5273 59.5625 17.2695L57.75 12L62.4336 8.64062L62.5469 8.54297C62.6484 8.43359 62.75 8.28516 62.75 8.125C62.75 7.78125 62.4297 7.5 62.0859 7.5Z" fill="#F59E0B"/>
<path d="M84.0859 7.5H78.3398L76.5938 2.28906C76.5078 2.03516 76.2695 1.875 76 1.875C75.7305 1.875 75.4922 2.03516 75.4062 2.28906L73.6602 7.5H67.875C67.5312 7.5 67.25 7.78125 67.25 8.125C67.25 8.16016 67.2539 8.19922 67.2617 8.23047C67.2695 8.36719 67.332 8.51953 67.5234 8.67188L72.2461 12L70.4336 17.2695C70.3438 17.5234 70.4336 17.8086 70.6484 17.9727C70.7617 18.0547 70.8672 18.125 71 18.125C71.1289 18.125 71.2812 18.0586 71.3906 17.9844L76 14.6992L80.6094 17.9844C80.7188 18.0625 80.8711 18.125 81 18.125C81.1328 18.125 81.2383 18.0586 81.3477 17.9727C81.5664 17.8086 81.6523 17.5273 81.5625 17.2695L79.75 12L84.4336 8.64062L84.5469 8.54297C84.6484 8.43359 84.75 8.28516 84.75 8.125C84.75 7.78125 84.4297 7.5 84.0859 7.5Z" fill="#F59E0B"/>
<path d="M106.086 7.5H100.34L98.5938 2.28906C98.5078 2.03516 98.2695 1.875 98 1.875C97.7305 1.875 97.4922 2.03516 97.4062 2.28906L95.6602 7.5H89.875C89.5312 7.5 89.25 7.78125 89.25 8.125C89.25 8.16016 89.2539 8.19922 89.2617 8.23047C89.2695 8.36719 89.332 8.51953 89.5234 8.67188L94.2461 12L92.4336 17.2695C92.3438 17.5234 92.4336 17.8086 92.6484 17.9727C92.7617 18.0547 92.8672 18.125 93 18.125C93.1289 18.125 93.2812 18.0586 93.3906 17.9844L98 14.6992L102.609 17.9844C102.719 18.0625 102.871 18.125 103 18.125C103.133 18.125 103.238 18.0586 103.348 17.9727C103.566 17.8086 103.652 17.5273 103.562 17.2695L101.75 12L106.434 8.64062L106.547 8.54297C106.648 8.43359 106.75 8.28516 106.75 8.125C106.75 7.78125 106.43 7.5 106.086 7.5Z" fill="#F59E0B" fill-opacity="0.4"/>
<path fill-rule="evenodd" clip-rule="evenodd" d="M98 1.875C97.7305 1.875 97.4922 2.03516 97.4062 2.28906L95.6602 7.5H89.875C89.5312 7.5 89.25 7.78125 89.25 8.125C89.25 8.16016 89.2539 8.19922 89.2617 8.23047C89.2695 8.36719 89.332 8.51953 89.5234 8.67188L94.2461 12L92.4336 17.2695C92.3438 17.5234 92.4336 17.8086 92.6484 17.9727C92.7617 18.0547 92.8672 18.125 93 18.125C93.1289 18.125 93.2812 18.0586 93.3906 17.9844L98 14.6992V1.875Z" fill="#F59E0B"/>
</svg>
