<svg width="112" height="40" viewBox="0 0 112 40" fill="none" xmlns="http://www.w3.org/2000/svg">
<g clip-path="url(#clip0_2_19)">
<path d="M12.7792 5H0.583344V34.1667L12.7792 5Z" fill="#FA0C00"/>
<path d="M21.3601 5H33.54V34.1667L21.3601 5Z" fill="#FA0C00"/>
<path d="M17.0697 15.7498L24.8321 34.1667H19.7393L17.4193 28.3032H11.7385L17.0697 15.7498Z" fill="#FA0C00"/>
<path d="M53.4363 23.5482L54.8744 27.6717C54.9221 27.775 54.9936 27.8227 55.1207 27.8227H57.8856C58.0366 27.8227 58.0604 27.7512 58.0366 27.6002L52.324 11.7337C52.3002 11.6066 52.2763 11.5828 52.1492 11.5828H48.7169C48.6216 11.5828 48.5659 11.6543 48.5659 11.7576C48.5183 12.5918 48.4468 12.846 48.3435 13.0923L43.2506 27.5764C43.2268 27.7512 43.2824 27.8227 43.4254 27.8227H45.8964C46.0473 27.8227 46.1188 27.775 46.1745 27.624L47.5331 23.5482H53.4363ZM48.3197 20.8548C49.0665 18.5983 50.0517 15.7063 50.449 14.0537H50.4728C50.9654 15.7858 52.1254 19.2181 52.6498 20.8548H48.3197Z" fill="#FA0C00"/>
<path d="M65.3806 28.0689C66.8663 28.0689 68.4474 27.7988 70.0523 27.1076C70.1795 27.0599 70.2033 27.0043 70.2033 26.8851C70.1556 26.4402 70.1 25.7966 70.1 25.304V10.3671C70.1 10.2718 70.1 10.2241 69.9809 10.2241H67.2874C67.1842 10.2241 67.1365 10.2718 67.1365 10.3989V15.46C66.7154 15.4123 66.4214 15.3885 66.0718 15.3885C61.7258 15.3885 59.0562 18.2567 59.0562 21.8399C59.0562 25.9953 61.7973 28.0689 65.3806 28.0689ZM67.1365 25.304C66.6915 25.447 66.1989 25.5027 65.6984 25.5027C63.728 25.5027 62.1151 24.3903 62.1151 21.689C62.1151 19.2975 63.7757 17.8833 65.9765 17.8833C66.4214 17.8833 66.8107 17.9309 67.1365 18.058V25.304Z" fill="#FA0C00"/>
<path d="M78.7957 15.3884C75.0853 15.3884 72.7892 18.2328 72.7892 21.7446C72.7892 24.8829 74.6165 28.0689 78.7401 28.0689C82.228 28.0689 84.6751 25.5026 84.6751 21.6651C84.6751 18.2805 82.6014 15.3884 78.7957 15.3884ZM78.6447 17.8832C80.7423 17.8832 81.6321 19.6868 81.6321 21.7446C81.6321 24.287 80.3212 25.5503 78.7957 25.5503C76.9127 25.5503 75.8004 23.9692 75.8004 21.6889C75.8004 19.3451 76.9842 17.8832 78.6447 17.8832Z" fill="#FA0C00"/>
<path d="M87.4597 10.2241C87.3565 10.2241 87.2849 10.2718 87.2849 10.3989V27.3062C87.2849 27.3777 87.3565 27.5048 87.4597 27.5287C88.6436 27.8941 89.883 28.0689 91.1622 28.0689C94.8249 28.0689 98.3843 25.7966 98.3843 21.2202C98.3843 17.9071 96.112 15.3885 92.5526 15.3885C91.7342 15.3885 90.9715 15.5156 90.3041 15.7381L90.2723 10.4227C90.2723 10.248 90.2246 10.2241 90.0499 10.2241H87.4597ZM95.3413 21.5221C95.3413 24.2632 93.4663 25.5503 91.4403 25.5503C91.0192 25.5503 90.6457 25.5265 90.3041 25.4232V18.209C90.6934 18.058 91.1622 17.9309 92.0282 17.9309C93.9827 17.9309 95.3413 19.1704 95.3413 21.5221Z" fill="#FA0C00"/>
<path d="M108.436 22.4119C109.644 22.4119 110.637 22.3881 110.979 22.3087C111.106 22.2848 111.153 22.2372 111.177 22.1339C111.249 21.8637 111.28 21.2996 111.28 20.6084C111.28 18.2566 109.866 15.3884 106.211 15.3884C102.477 15.3884 100.404 18.4314 100.404 21.8637C100.404 24.9067 102.008 28.0689 106.505 28.0689C108.19 28.0689 109.278 27.7988 110.216 27.3538C110.311 27.3062 110.359 27.2267 110.359 27.0837V25.0259C110.359 24.9067 110.287 24.8829 110.216 24.9306C109.278 25.3278 108.261 25.5264 107.149 25.5264C104.63 25.5264 103.486 24.136 103.415 22.4119H108.436ZM103.415 20.2826C103.613 19.075 104.376 17.764 106.084 17.764C107.967 17.764 108.46 19.3451 108.46 20.0602C108.46 20.084 108.46 20.1873 108.46 20.2588C108.357 20.2826 108.039 20.2826 107.101 20.2826H103.415Z" fill="#FA0C00"/>
</g>
<defs>
<clipPath id="clip0_2_19">
<rect width="110.833" height="40" fill="white" transform="translate(0.583344)"/>
</clipPath>
</defs>
</svg>
