<svg width="192" height="40" viewBox="0 0 192 40" fill="none" xmlns="http://www.w3.org/2000/svg">
<path d="M25.0141 8.05031C25.6353 7.4247 26.479 7.07324 27.3575 7.07324C31.3099 7.07324 35.0346 7.07324 38.7027 7.07325C46.0802 7.07326 49.7746 16.0564 44.5579 21.3101L33.1947 32.7541C32.673 33.2794 31.781 32.9073 31.781 32.1643V22.0849L33.0942 20.7624C34.1376 19.7116 33.3986 17.915 31.9231 17.915H15.2191L25.0141 8.05031Z" fill="#3700FF"/>
<path d="M21.9858 31.9497C21.3647 32.5753 20.5211 32.9268 19.6426 32.9268C15.6901 32.9268 11.9654 32.9268 8.2973 32.9268C0.91974 32.9267 -2.77458 23.9436 2.44212 18.6898L13.8054 7.24594C14.327 6.72056 15.219 7.09266 15.219 7.83565L15.2191 17.915L13.9058 19.2376C12.8625 20.2884 13.6014 22.085 15.0769 22.085L31.781 22.0849L21.9858 31.9497Z" fill="#3700FF"/>
<path d="M122.182 13.5387V27.3881H126.336V13.5387H122.182Z" fill="#3700FF"/>
<path d="M122.472 11.2347C122.963 11.7152 123.563 11.9555 124.273 11.9555C124.982 11.9555 125.579 11.7152 126.06 11.2347C126.551 10.7541 126.797 10.1706 126.797 9.48416C126.797 8.78053 126.551 8.19274 126.06 7.7208C125.579 7.24027 124.982 7 124.273 7C123.563 7 122.963 7.24027 122.472 7.7208C121.981 8.19274 121.735 8.78053 121.735 9.48416C121.735 10.1706 121.981 10.7541 122.472 11.2347Z" fill="#3700FF"/>
<path fill-rule="evenodd" clip-rule="evenodd" d="M128.68 32.7941V13.5387H132.624V14.9159H132.675C132.924 14.6762 133.191 14.4574 133.478 14.2594C134.407 13.6244 135.476 13.307 136.686 13.307C137.746 13.307 138.758 13.5773 139.723 14.1179C140.695 14.6584 141.484 15.4608 142.089 16.5248C142.693 17.5888 142.987 18.9146 142.97 20.502C142.978 21.7033 142.807 22.7502 142.457 23.6426C142.106 24.5264 141.633 25.2601 141.037 25.8436C140.441 26.4271 139.775 26.8647 139.039 27.1565C138.303 27.4482 137.558 27.5941 136.804 27.5941C135.612 27.5941 134.543 27.268 133.596 26.6159C133.358 26.4495 133.132 26.2694 132.919 26.0753H132.834V32.7941H128.68ZM135.831 24.1961C136.444 24.1875 136.984 24.0288 137.448 23.7199C137.912 23.4109 138.277 22.9733 138.539 22.407C138.802 21.8406 138.93 21.1799 138.92 20.4248C138.93 19.6525 138.798 18.9918 138.526 18.4426C138.263 17.8849 137.891 17.4601 137.409 17.1683C136.927 16.8681 136.374 16.7221 135.753 16.7307C135.165 16.7221 134.639 16.8638 134.175 17.1555C133.71 17.4472 133.342 17.872 133.071 18.4297C132.799 18.9789 132.663 19.6439 132.663 20.4248C132.663 21.1799 132.799 21.8406 133.071 22.407C133.351 22.9733 133.728 23.4109 134.201 23.7199C134.675 24.0288 135.218 24.1875 135.831 24.1961Z" fill="#3700FF"/>
<path d="M146.969 27.1693C147.74 27.4525 148.547 27.594 149.388 27.594C150.352 27.594 151.233 27.4096 152.03 27.0406C152.837 26.6716 153.48 26.1568 153.963 25.4961C154.454 24.8267 154.698 24.0587 154.698 23.1921C154.698 22.5056 154.55 21.9264 154.252 21.4545C153.963 20.9825 153.594 20.5964 153.148 20.296C152.709 19.9957 152.258 19.7597 151.794 19.5881C151.329 19.4079 150.922 19.2706 150.571 19.1762C150.115 19.0475 149.677 18.9145 149.256 18.7772C148.836 18.64 148.489 18.4769 148.218 18.2881C147.946 18.0993 147.81 17.8505 147.81 17.5416C147.81 17.2327 147.946 16.9752 148.218 16.7693C148.489 16.5634 148.831 16.4604 149.244 16.4604C149.734 16.4604 150.137 16.5891 150.453 16.8465C150.777 17.1039 151.022 17.37 151.189 17.6445L154.383 16.293C153.98 15.4006 153.296 14.6841 152.333 14.1435C151.377 13.603 150.299 13.3326 149.099 13.3326C148.135 13.3326 147.276 13.5086 146.522 13.8604C145.777 14.2122 145.186 14.7013 144.747 15.3277C144.318 15.9455 144.104 16.662 144.104 17.4772C144.104 18.2495 144.287 18.9059 144.655 19.4466C145.024 19.9871 145.501 20.4333 146.089 20.7852C146.684 21.1284 147.315 21.3987 147.982 21.5961C148.271 21.6733 148.586 21.7591 148.928 21.8535C149.278 21.9479 149.611 22.0594 149.927 22.1882C150.242 22.3168 150.501 22.4713 150.702 22.6515C150.904 22.8317 151.005 23.0462 151.005 23.2951C151.005 23.4924 150.935 23.6769 150.794 23.8485C150.663 24.0202 150.479 24.1617 150.242 24.2732C150.005 24.3762 149.73 24.4277 149.414 24.4277C148.818 24.4277 148.301 24.2476 147.863 23.8872C147.425 23.5267 147.097 23.1449 146.877 22.7416L143.617 24.1446C143.915 24.8396 144.358 25.4488 144.945 25.9723C145.532 26.4871 146.207 26.8861 146.969 27.1693Z" fill="#3700FF"/>
<path d="M171.585 27.3881V13.5386H175.541V15.302H175.614C175.923 14.8807 176.271 14.5246 176.659 14.2336C177.448 13.633 178.381 13.3326 179.459 13.3326C180.353 13.3326 181.111 13.5472 181.733 13.9763C182.213 14.2961 182.604 14.7251 182.907 15.2633H182.981C183.429 14.7044 183.973 14.2667 184.612 13.9505C185.444 13.5386 186.351 13.3326 187.333 13.3326C188.271 13.3326 189.042 13.4957 189.646 13.8218C190.251 14.1392 190.725 14.5597 191.066 15.0832C191.408 15.598 191.649 16.1643 191.789 16.7822C191.93 17.3914 192 17.9835 192 18.5584V27.3881H187.819V19.0604C187.819 18.3053 187.657 17.7261 187.333 17.3227C187.018 16.9109 186.553 16.705 185.94 16.705C185.536 16.705 185.177 16.7951 184.862 16.9752C184.555 17.1469 184.31 17.4086 184.126 17.7604C183.95 18.1122 183.863 18.5456 183.863 19.0604V27.3881H179.709V19.0604C179.709 18.3053 179.547 17.7261 179.222 17.3227C178.898 16.9109 178.429 16.705 177.816 16.705C177.22 16.705 176.725 16.9066 176.33 17.3099C175.936 17.7046 175.739 18.2967 175.739 19.0862V27.3881H171.585Z" fill="#3700FF"/>
<path d="M161.419 27.5941C160.447 27.5941 159.562 27.3924 158.765 26.9892C157.967 26.5772 157.331 25.9766 156.858 25.1872C156.394 24.3891 156.161 23.4066 156.161 22.2396V13.5387H160.315V21.699C160.315 22.497 160.526 23.1063 160.946 23.5267C161.376 23.9386 161.898 24.1446 162.511 24.1446C162.967 24.1446 163.366 24.0459 163.707 23.8485C164.057 23.6512 164.329 23.3723 164.522 23.0119C164.724 22.6429 164.824 22.2053 164.824 21.699V13.5387H168.978V22.5357C168.978 23.0333 169.053 23.3937 169.202 23.6168C169.351 23.8399 169.653 24.0331 170.109 24.196L168.636 27.5941C167.594 27.3281 166.831 26.9806 166.349 26.5515C166.107 26.3354 165.923 26.0865 165.798 25.805H165.692C165.325 26.1663 164.918 26.4881 164.47 26.7704C163.584 27.3195 162.568 27.5941 161.419 27.5941Z" fill="#3700FF"/>
<path fill-rule="evenodd" clip-rule="evenodd" d="M113.188 27.594C111.829 27.594 110.589 27.2895 109.467 26.6802C108.354 26.071 107.465 25.23 106.798 24.1574C106.141 23.0848 105.813 21.8492 105.813 20.4505C105.813 19.0518 106.141 17.8162 106.798 16.7435C107.465 15.671 108.354 14.8343 109.467 14.2336C110.589 13.633 111.829 13.3326 113.188 13.3326C114.572 13.3326 115.821 13.633 116.934 14.2336C118.047 14.8343 118.928 15.671 119.576 16.7435C120.233 17.8162 120.562 19.0518 120.562 20.4505C120.562 21.8492 120.233 23.0848 119.576 24.1574C118.928 25.23 118.043 26.071 116.921 26.6802C115.808 27.2895 114.564 27.594 113.188 27.594ZM113.188 24.1188C113.836 24.1188 114.419 23.9644 114.936 23.6555C115.453 23.3465 115.86 22.9175 116.158 22.3683C116.456 21.8192 116.605 21.1799 116.605 20.4505C116.605 19.7469 116.461 19.1205 116.171 18.5713C115.882 18.0221 115.483 17.5931 114.975 17.2842C114.467 16.9666 113.879 16.8079 113.214 16.8079C112.557 16.8079 111.965 16.9624 111.439 17.2713C110.922 17.5716 110.514 17.9963 110.217 18.5456C109.919 19.0947 109.769 19.7297 109.769 20.4505C109.769 21.1799 109.919 21.8192 110.217 22.3683C110.523 22.9175 110.935 23.3465 111.452 23.6555C111.969 23.9644 112.547 24.1188 113.188 24.1188Z" fill="#3700FF"/>
<path fill-rule="evenodd" clip-rule="evenodd" d="M93.5182 32.5753C94.4994 32.8584 95.5775 33 96.7517 33C97.8475 33 98.8506 32.8627 99.7625 32.5881C100.674 32.3222 101.462 31.9188 102.128 31.3782C102.803 30.8377 103.324 30.1684 103.693 29.3703C104.061 28.5723 104.245 27.6456 104.245 26.5901V13.5258H100.472V14.8772H100.393C100.142 14.6419 99.8707 14.4274 99.5779 14.2337C98.6667 13.6244 97.6021 13.3198 96.3839 13.3198C95.332 13.3198 94.3197 13.5815 93.347 14.105C92.3743 14.6198 91.5771 15.3921 90.9545 16.4218C90.3412 17.4429 90.0342 18.7257 90.0342 20.2703C90.0342 21.4287 90.2139 22.437 90.5732 23.2951C90.9326 24.1531 91.4101 24.8696 92.0065 25.4446C92.6113 26.0109 93.2812 26.4356 94.0176 26.7188C94.754 26.9934 95.494 27.1307 96.2389 27.1307C97.4401 27.1307 98.509 26.8089 99.447 26.1654C99.7434 25.959 100.021 25.7316 100.277 25.4832H100.34V26.8218C100.34 27.4825 100.122 28.0146 99.6832 28.4178C99.2454 28.8297 98.7148 29.1301 98.093 29.3188C97.4705 29.5076 96.8699 29.602 96.2919 29.602C95.6171 29.602 94.9507 29.4948 94.2935 29.2802C93.6448 29.0742 93.0753 28.8254 92.5851 28.5337L91.2177 31.7258C91.7787 32.0175 92.5455 32.3007 93.5182 32.5753ZM98.9341 23.3594C98.4524 23.6684 97.8956 23.8227 97.2646 23.8227C96.6421 23.8227 96.0946 23.6684 95.6213 23.3594C95.1481 23.0419 94.776 22.6086 94.5043 22.0594C94.2327 21.5017 94.0961 20.8624 94.0961 20.1416C94.0961 19.4208 94.2327 18.7944 94.5043 18.2624C94.7844 17.7304 95.17 17.3227 95.6609 17.0396C96.1519 16.7478 96.7079 16.602 97.3304 16.602C97.9522 16.602 98.5005 16.7436 98.9737 17.0267C99.447 17.3099 99.8191 17.7175 100.091 18.2495C100.362 18.773 100.498 19.4036 100.498 20.1416C100.498 20.8709 100.358 21.5146 100.078 22.0723C99.7972 22.6215 99.4159 23.0505 98.9341 23.3594Z" fill="#3700FF"/>
<path fill-rule="evenodd" clip-rule="evenodd" d="M81.6047 27.594C80.2464 27.594 79.0064 27.2895 77.8844 26.6802C76.7717 26.071 75.8817 25.23 75.2161 24.1574C74.5589 23.0848 74.2299 21.8492 74.2299 20.4505C74.2299 19.0518 74.5589 17.8162 75.2161 16.7435C75.8817 15.671 76.7717 14.8343 77.8844 14.2336C79.0064 13.633 80.2464 13.3326 81.6047 13.3326C82.9891 13.3326 84.2384 13.633 85.3511 14.2336C86.4639 14.8343 87.3446 15.671 87.9933 16.7435C88.6505 17.8162 88.9794 19.0518 88.9794 20.4505C88.9794 21.8492 88.6505 23.0848 87.9933 24.1574C87.3446 25.23 86.4596 26.071 85.3377 26.6802C84.2249 27.2895 82.9806 27.594 81.6047 27.594ZM81.6047 24.1188C82.2534 24.1188 82.8356 23.9644 83.3527 23.6555C83.8698 23.3465 84.2773 22.9175 84.5758 22.3683C84.8736 21.8192 85.0222 21.1799 85.0222 20.4505C85.0222 19.7469 84.8779 19.1205 84.5885 18.5713C84.2992 18.0221 83.9009 17.5931 83.3923 17.2842C82.8844 16.9666 82.2965 16.8079 81.6309 16.8079C80.9737 16.8079 80.3823 16.9624 79.856 17.2713C79.3388 17.5716 78.9314 17.9963 78.6336 18.5456C78.3357 19.0947 78.1865 19.7297 78.1865 20.4505C78.1865 21.1799 78.3357 21.8192 78.6336 22.3683C78.9406 22.9175 79.3523 23.3465 79.8694 23.6555C80.3865 23.9644 80.9645 24.1188 81.6047 24.1188Z" fill="#3700FF"/>
<path d="M63 8.41583V27.3881H74.2922V23.6297H67.3117V8.41583H63Z" fill="#3700FF"/>
</svg>
