<svg width="156" height="40" viewBox="0 0 156 40" fill="none" xmlns="http://www.w3.org/2000/svg">
<path d="M46.8476 12.5875H50.5976V27.75H46.8476V12.5875ZM52.0851 22.025C52.0851 18.275 54.3851 16.0375 57.9351 16.0375C61.4851 16.0375 63.7851 18.275 63.7851 22.025C63.7851 25.775 61.5351 28.025 57.9351 28.025C54.3351 28.025 52.0851 25.8375 52.0851 22.025ZM60.0226 22.025C60.0226 19.9625 59.2101 18.75 57.9351 18.75C56.6601 18.75 55.8601 20 55.8601 22.025C55.8601 24.05 56.6476 25.275 57.9351 25.275C59.2226 25.275 60.0226 24.125 60.0226 22.0375V22.025ZM65.1976 28.4875H68.7976C68.969 28.8681 69.2586 29.1832 69.6235 29.386C69.9884 29.5886 70.409 29.6681 70.8226 29.6125C72.2476 29.6125 72.9976 28.8375 72.9976 27.7125V25.6125H72.9226C72.6239 26.2561 72.139 26.7954 71.5308 27.1609C70.9225 27.5262 70.2186 27.701 69.5101 27.6625C66.7726 27.6625 64.9601 25.575 64.9601 21.9875C64.9601 18.4 66.6851 16.1375 69.5601 16.1375C70.2909 16.1089 71.0129 16.3042 71.6295 16.6974C72.2461 17.0906 72.7279 17.6629 73.0101 18.3375V16.25H76.7601V27.625C76.7601 30.3625 74.3476 32.0625 70.7851 32.0625C67.4726 32.0625 65.4101 30.575 65.1976 28.5V28.4875ZM73.0101 22.0125C73.0101 20.1875 72.1726 19.0375 70.8476 19.0375C69.5226 19.0375 68.7101 20.175 68.7101 22.0125C68.7101 23.85 69.5101 24.8875 70.8476 24.8875C72.1851 24.8875 73.0101 23.875 73.0101 22.025V22.0125ZM78.1726 22.0125C78.1726 18.2625 80.4726 16.025 84.0226 16.025C87.5726 16.025 89.8851 18.2625 89.8851 22.0125C89.8851 25.7625 87.6351 28.0125 84.0226 28.0125C80.4101 28.0125 78.1726 25.8375 78.1726 22.025V22.0125ZM86.1101 22.0125C86.1101 19.95 85.2976 18.7375 84.0226 18.7375C82.7476 18.7375 82.0101 20 82.0101 22.0375C82.0101 24.075 82.7976 25.2875 84.0726 25.2875C85.3476 25.2875 86.1101 24.125 86.1101 22.0375V22.0125ZM91.3101 13.525C91.3003 13.1464 91.4031 12.7734 91.6055 12.4532C91.808 12.1331 92.1009 11.8803 92.4471 11.7269C92.7934 11.5734 93.1774 11.5262 93.5505 11.5913C93.9236 11.6564 94.269 11.8308 94.5429 12.0923C94.8169 12.3539 95.0069 12.691 95.089 13.0607C95.1711 13.4305 95.1416 13.8162 95.0041 14.1692C94.8668 14.5221 94.6276 14.8264 94.3171 15.0432C94.0067 15.2601 93.6388 15.38 93.2601 15.3875C93.0091 15.4047 92.7573 15.3699 92.5204 15.2851C92.2834 15.2004 92.0666 15.0676 91.8835 14.895C91.7004 14.7225 91.5549 14.5139 91.4563 14.2824C91.3575 14.051 91.3078 13.8016 91.3101 13.55V13.525ZM91.3101 16.275H95.0601V27.75H91.3101V16.275ZM108.673 22.0125C108.673 25.7625 107.01 27.9 104.16 27.9C103.429 27.9469 102.702 27.7682 102.076 27.3882C101.45 27.0081 100.956 26.445 100.66 25.775H100.585V31.425H96.8351V16.25H100.585V18.3H100.66C100.942 17.6189 101.427 17.0411 102.048 16.6452C102.67 16.2494 103.399 16.0546 104.135 16.0875C107.01 16.1375 108.723 18.2875 108.723 22.0375L108.673 22.0125ZM104.923 22.0125C104.923 20.1875 104.085 19.025 102.773 19.025C101.46 19.025 100.623 20.2 100.61 22.0125C100.598 23.825 101.46 24.9875 102.773 24.9875C104.085 24.9875 104.923 23.85 104.923 22.0375V22.0125ZM115.11 16.0125C118.223 16.0125 120.11 17.4875 120.198 19.85H116.785C116.785 19.0375 116.11 18.525 115.073 18.525C114.035 18.525 113.573 18.925 113.573 19.5125C113.573 20.1 113.985 20.2875 114.823 20.4625L117.223 20.95C119.51 21.4375 120.485 22.3625 120.485 24.1C120.485 26.475 118.323 28 115.135 28C111.948 28 109.86 26.475 109.698 24.1375H113.31C113.423 24.9875 114.098 25.4875 115.198 25.4875C116.298 25.4875 116.798 25.125 116.798 24.525C116.798 23.925 116.448 23.8 115.548 23.6125L113.385 23.15C111.148 22.6875 109.973 21.5 109.973 19.75C109.998 17.5 112.01 16.0375 115.11 16.0375V16.0125ZM132.998 27.725H129.385V25.5875H129.31C129.111 26.3051 128.674 26.9332 128.069 27.3676C127.464 27.8019 126.729 28.0162 125.985 27.975C125.415 28.0074 124.845 27.9171 124.313 27.7102C123.782 27.5034 123.3 27.1849 122.902 26.776C122.504 26.3672 122.198 25.8776 122.006 25.3405C121.813 24.8034 121.738 24.2311 121.785 23.6625V16.25H125.535V22.8C125.535 24.1625 126.235 24.8875 127.398 24.8875C127.67 24.888 127.94 24.8304 128.189 24.7182C128.436 24.6061 128.659 24.4421 128.839 24.2374C129.018 24.0325 129.153 23.7916 129.231 23.5309C129.31 23.27 129.334 22.9952 129.298 22.725V16.25H133.048L132.998 27.725ZM134.81 16.25H138.435V18.4625H138.51C138.709 17.7544 139.138 17.1321 139.728 16.6934C140.318 16.2546 141.038 16.0239 141.773 16.0375C142.521 15.9776 143.264 16.2015 143.855 16.6647C144.445 17.128 144.84 17.7965 144.96 18.5375H145.035C145.261 17.7886 145.731 17.1366 146.37 16.684C147.008 16.2314 147.779 16.0039 148.56 16.0375C149.07 16.0204 149.578 16.1107 150.05 16.3027C150.524 16.4946 150.95 16.784 151.304 17.1517C151.658 17.5196 151.93 17.9577 152.104 18.4376C152.276 18.9175 152.348 19.4286 152.31 19.9375V27.75H148.56V20.9375C148.56 19.6875 147.998 19.1125 146.948 19.1125C146.714 19.1105 146.481 19.1587 146.268 19.254C146.054 19.3492 145.863 19.4892 145.708 19.6646C145.553 19.84 145.436 20.0465 145.368 20.2704C145.299 20.4944 145.28 20.7304 145.31 20.9625V27.75H141.748V20.8875C141.748 19.7375 141.185 19.1125 140.16 19.1125C139.924 19.1126 139.689 19.1629 139.474 19.26C139.258 19.3572 139.064 19.4991 138.908 19.6762C138.75 19.8534 138.633 20.0619 138.561 20.288C138.491 20.514 138.469 20.7524 138.498 20.9875V27.75H134.748L134.81 16.25Z" fill="#1B1D1E"/>
<path d="M36.3601 13.275C35.724 11.8204 34.8821 10.4649 33.8601 9.24999C32.3495 7.40041 30.4642 5.89172 28.3285 4.82324C26.1927 3.75476 23.8548 3.1507 21.4688 3.05081C19.0828 2.95093 16.7027 3.35747 14.4851 4.24372C12.2676 5.12996 10.2628 6.4758 8.60285 8.19265C6.94287 9.90949 5.66531 11.9584 4.85425 14.2046C4.04319 16.4507 3.717 18.8432 3.89717 21.2245C4.07736 23.6059 4.7598 25.922 5.8996 28.0205C7.0394 30.1191 8.61071 31.9525 10.5101 33.4C11.7289 34.3474 13.0755 35.1175 14.5101 35.6875C16.5213 36.5117 18.674 36.9362 20.8476 36.9375C25.3343 36.9276 29.6341 35.1391 32.8045 31.9641C35.9747 28.7891 37.7568 24.4867 37.7601 20C37.7633 17.6856 37.2867 15.3957 36.3601 13.275ZM20.8351 6.48748C22.7871 6.48728 24.7155 6.9139 26.4851 7.73748C26.0536 7.92394 25.5998 8.05417 25.1351 8.12499C23.6058 8.34635 22.1892 9.05632 21.0966 10.149C20.004 11.2416 19.294 12.6582 19.0726 14.1875C18.9755 15.0451 18.5853 15.843 17.9682 16.4465C17.3511 17.05 16.5447 17.422 15.6851 17.5C14.1558 17.7214 12.7392 18.4314 11.6466 19.524C10.554 20.6166 9.84397 22.0332 9.62261 23.5625C9.54766 24.378 9.19972 25.1444 8.63511 25.7375C7.66092 23.6791 7.2233 21.4076 7.36295 19.1346C7.5026 16.8616 8.21499 14.6609 9.43382 12.7371C10.6526 10.8135 12.3383 9.22937 14.334 8.13229C16.3296 7.0352 18.5703 6.46079 20.8476 6.46248L20.8351 6.48748ZM10.4976 28.75C10.6476 28.6125 10.7976 28.4875 10.9476 28.3375C12.0597 27.2594 12.7735 25.8361 12.9726 24.3C13.0533 23.4365 13.4388 22.63 14.0601 22.025C14.658 21.4027 15.4626 21.0204 16.3226 20.95C17.8518 20.7286 19.2685 20.0186 20.3611 18.926C21.4537 17.8334 22.1637 16.4167 22.3851 14.8875C22.4392 13.9844 22.8267 13.1335 23.4726 12.5C24.0852 11.8898 24.8975 11.5214 25.7601 11.4625C27.165 11.2692 28.4752 10.6446 29.5101 9.67499C30.6885 10.6526 31.6867 11.8286 32.4601 13.15C32.4126 13.2141 32.3581 13.2729 32.2976 13.325C31.701 13.9527 30.8973 14.3435 30.0351 14.425C28.5042 14.6425 27.0855 15.3512 25.9921 16.4445C24.8988 17.5379 24.1901 18.9566 23.9726 20.4875C23.8845 21.348 23.5016 22.1516 22.8888 22.7621C22.276 23.3727 21.471 23.7526 20.6101 23.8375C19.0763 24.0571 17.6545 24.7657 16.5555 25.8579C15.4566 26.9501 14.7392 28.3676 14.5101 29.9C14.4428 30.5109 14.233 31.0975 13.8976 31.6125C12.6151 30.851 11.4665 29.884 10.4976 28.75ZM20.8351 33.575C19.5667 33.5764 18.3043 33.3996 17.0851 33.05C17.5022 32.2725 17.7733 31.4251 17.8851 30.55C17.9727 29.6914 18.3538 28.8892 18.9641 28.279C19.5743 27.6687 20.3765 27.2876 21.2351 27.2C22.7666 26.9811 24.1861 26.2722 25.2812 25.1794C26.3762 24.0866 27.0881 22.6685 27.3101 21.1375C27.3977 20.2789 27.7788 19.4767 28.3891 18.8665C28.9993 18.2562 29.8015 17.8751 30.6601 17.7875C31.8126 17.6376 32.9111 17.2085 33.8601 16.5375C34.3871 18.5349 34.4495 20.6264 34.0426 22.6516C33.6357 24.6769 32.7702 26.5821 31.5127 28.221C30.2552 29.8597 28.6391 31.1889 26.7881 32.1061C24.9372 33.0234 22.9008 33.5045 20.8351 33.5125V33.575Z" fill="#1B1D1E"/>
</svg>
