<svg width="94" height="40" viewBox="0 0 94 40" fill="none" xmlns="http://www.w3.org/2000/svg">
<g clip-path="url(#clip0_2_35)">
<path fill-rule="evenodd" clip-rule="evenodd" d="M93.3282 25.4695C89.4466 32.0505 83.2992 30.1409 81.4529 28.6458C80.6671 29.1789 79.2893 30.3475 77.452 30.2126C73.5393 29.9253 72.1382 24.3339 72.1382 24.3339C72.1663 24.3563 70.9727 24.7458 70.3276 24.7388C70.3193 26.3786 68.9019 30.2955 65.0766 30.2454C60.784 30.1894 59.9113 23.7943 59.9113 23.7943C59.9113 23.7943 59.4842 24.3874 57.8599 24.9783C57.9417 23.7185 57.8819 30.0537 52.7371 30.1468C48.6698 30.2205 47.5719 23.6957 47.5719 23.6957C47.5719 23.6957 46.8663 24.4286 45.4989 24.6828C45.5858 23.4026 45.4445 30.1683 40.2991 30.1468C36.8218 30.1324 35.6336 26.1275 35.726 25.5716C35.8439 24.8632 34.5508 30.2464 31.1732 30.1626C29.7794 30.1216 28.7403 29.1124 28.0882 27.767C27.2153 28.7658 25.948 30.1626 24.5263 30.1626C21.9743 30.1626 20.8492 28.0281 21.0398 21.9316C21.056 21.2086 21.0038 20.9241 20.285 20.816C19.8536 20.744 19.4118 20.6077 18.9443 20.5358C18.7944 21.0359 17.5236 29.9999 13.1535 30.17C11.6874 30.2271 10.8858 28.9571 10.2275 28.0145C9.21828 29.3495 7.8861 30.2126 5.98831 30.2126C2.7736 30.2126 0.583313 27.6137 0.583313 24.408C0.583313 21.2021 2.7736 18.6035 5.98831 18.6035C6.5567 18.6035 6.71627 18.685 7.23553 18.8365C6.16765 9.11374 8.68956 7.59421 10.8957 7.59421C13.0137 7.59421 16.6321 12.5101 11.5407 24.9792C12.6711 28.6985 15.108 28.4881 16.279 20.8319C16.5173 19.2756 15.88 17.1755 16.8713 16.8823C18.6832 16.3467 18.8755 17.9539 19.725 18.2217C20.6234 18.5047 21.1477 18.477 22.0101 18.6571C23.4837 18.9449 24.0588 19.7366 23.8792 21.4997C23.6636 23.7306 23.2865 26.9777 24.4364 27.3734C25.2657 27.6609 26.7798 25.9411 27.0455 25.0001C27.3111 24.0591 27.3666 23.7371 27.3902 23.0469C27.4261 21.5718 27.4712 20.4905 27.7228 19.3749C27.8304 18.9432 27.9531 18.6574 28.4415 18.6378C28.8434 18.6276 29.5783 18.5066 29.9019 18.7584C30.3331 19.0824 30.2792 19.4111 30.2297 20.2764C29.7282 32.6128 33.588 26.4543 34.7388 21.5233C34.329 15.9474 34.6103 7.69631 38.1044 7.55793C39.9216 7.48596 40.725 8.94174 40.8134 10.0283C41.0633 13.0973 39.6633 18.181 37.822 21.5998C36.7696 28.5756 42.423 29.9549 43.3271 24.3868C41.848 23.6836 40.2494 20.837 41.5502 19.4498C42.2802 18.6713 45.3185 19.7897 45.3682 22.229C46.8586 21.8304 47.0576 20.9889 47.0782 21.1284C46.6685 15.5525 47.0485 7.69639 50.5429 7.558C52.3598 7.48603 53.1631 8.94181 53.2514 10.0284C53.5014 13.0974 52.1013 18.1811 50.2603 21.5999C49.2078 28.5756 54.8613 29.955 55.7652 24.3869C54.6701 24.1756 52.3584 21.1479 53.6922 19.4499C54.405 18.5425 57.4322 20.4295 57.7711 22.3098C59.2028 21.9046 59.3973 21.0899 59.4178 21.227C59.008 15.6513 59.388 7.7952 62.8823 7.65682C64.6993 7.58485 65.5025 9.04063 65.5909 10.1272C65.8408 13.1962 64.4408 18.28 62.5995 21.6988C61.5473 28.6746 67.2007 30.0537 68.1047 24.4856C66.5998 24.235 64.461 21.0382 66.1824 19.4028C66.8702 18.7493 69.4981 20.4455 70.1132 22.3807C70.9679 22.3478 71.4999 22.053 71.614 22.0233C70.2495 15.4776 71.2653 7.62365 75.0242 7.55809C77.0559 7.52269 79.0422 8.65646 78.1703 14.8839C77.3381 20.8255 74.3467 23.319 74.3537 23.3571C74.5278 24.0689 76.0628 30.026 79.9281 26.8829C79.7281 26.4298 79.5277 25.9669 79.4158 25.4062C78.7751 22.1398 80.0335 18.4504 83.4539 17.8541C85.4136 17.5124 87.2596 18.4666 87.5515 20.6175C88.0317 24.1371 84.8536 26.6861 83.6451 27.239C83.1037 26.9315 88.5518 30.4256 91.785 23.4233C91.9725 23.0236 92.1985 23.0574 92.4914 23.2635C92.6982 23.409 93.8761 24.5249 93.3282 25.4695ZM8.32673 23.5431C8.16221 23.0513 7.8246 21.9676 7.70521 21.498C7.04771 20.9262 6.5784 20.8333 5.73443 20.8333C3.85887 20.8333 2.75495 22.5674 2.75495 24.4373C2.75495 26.3071 3.95759 28.0414 5.83316 28.0414C7.45856 28.0414 8.69563 26.9363 9.07305 25.3718C8.80888 24.7619 8.54682 24.2014 8.32673 23.5431ZM10.8497 10.1679C9.53185 10.1679 9.0848 13.3117 9.17155 15.9937C9.24829 18.3648 9.91087 20.4524 10.2546 21.3877C10.3419 21.5049 10.3256 21.4287 10.4036 21.553C12.6918 16.5393 11.7427 10.1679 10.8497 10.1679ZM38.2927 10.2667C36.5894 10.0713 36.6004 17.1668 36.8118 18.7584C37.6965 17.3432 39.2332 10.6477 38.2927 10.2667ZM50.7307 10.2667C49.0274 10.0713 49.0384 17.1668 49.25 18.7584C50.1345 17.3432 51.6713 10.6477 50.7307 10.2667ZM63.0703 10.3654C61.3669 10.17 61.3779 17.2655 61.5894 18.8572C62.474 17.4419 64.0108 10.7464 63.0703 10.3654ZM75.2122 9.85129C72.5584 10.3842 73.1763 19.2325 73.5794 20.7843C76.7054 16.4908 76.7698 9.69002 75.2122 9.85129ZM85.158 20.9086C85.0231 20.3444 84.3484 20.0429 83.8828 20.1172C82.5503 20.2992 81.2579 21.9588 81.7582 24.4853C81.8695 25.048 82.1482 25.566 82.1437 25.5488C85.1258 23.5481 85.3793 21.9716 85.158 20.9086ZM28.9639 16.6848C28.5831 16.6849 28.2108 16.572 27.8941 16.3605C27.5774 16.149 27.3305 15.8483 27.1847 15.4964C27.0389 15.1446 27.0008 14.7574 27.0751 14.3839C27.1493 14.0104 27.3327 13.6673 27.602 13.3979C27.8713 13.1286 28.2143 12.9452 28.5878 12.8709C28.9614 12.7966 29.3486 12.8347 29.7004 12.9805C30.0523 13.1262 30.353 13.373 30.5645 13.6897C30.7761 14.0064 30.889 14.3787 30.889 14.7595C30.889 15.0123 30.8393 15.2627 30.7425 15.4963C30.6458 15.7299 30.504 15.9421 30.3252 16.1209C30.1464 16.2997 29.9342 16.4415 29.7007 16.5383C29.4671 16.635 29.2168 16.6848 28.9639 16.6848Z" fill="#0D0C22"/>
</g>
<defs>
<clipPath id="clip0_2_35">
<rect width="93.3333" height="40" fill="white" transform="translate(0.583313)"/>
</clipPath>
</defs>
</svg>
