<svg width="572" height="92" xmlns="http://www.w3.org/2000/svg" fill="none">
 <g id="Layer_1">
  <title>Layer 1</title>
  <line fill="none" stroke="null" x1="291.62206" y1="19.87449" x2="285.74712" y2="31.37436" id="svg_5"/>
  <g stroke="null">
   <g stroke="#ffffff" fill="#ffffff" stroke-width="0.5" font-size="9pt" fill-rule="nonzero" stroke-linecap="round" id="svg_13">
    <path stroke="null" d="m470.0986,18.70546l8.82779,0l0,54.82473l-7.8221,0l0,-35.65964l-10.44808,35.65964l-5.92244,0l-10.50396,-35.65964l0,35.65964l-7.8221,0l0,-54.82473l8.88367,0l12.40361,40.76509l12.40361,-40.76509zm-333.16538,-0.07855l0,54.90327l-7.8221,0l-17.71146,-37.62327l0,37.62327l-7.8221,0l0,-54.90327l7.8221,0l17.71146,37.70182l0,-37.70182l7.8221,0zm84.9256,0l0,54.90327l-7.8221,0l-17.71146,-37.62327l0,37.62327l-7.8221,0l0,-54.90327l7.8221,0l17.71146,37.70182l0,-37.70182l7.8221,0zm138.28347,0l0,54.90327l-7.8221,0l-17.71146,-37.62327l0,37.62327l-7.8221,0l0,-54.90327l7.8221,0l17.71146,37.70182l0,-37.70182l7.8221,0zm203.7097,0l0,54.90327l-7.8221,0l-17.71146,-37.62327l0,37.62327l-7.8221,0l0,-54.90327l7.8221,0l17.71146,37.70182l0,-37.70182l7.8221,0zm-475.80687,0.07855l7.8221,0l0,54.82473l-7.8221,0l0,-23.328l-16.70576,0l0,23.328l-7.8221,0l0,-54.82473l7.8221,0l0,22.54255l16.70576,0l0,-22.54255zm279.69577,0l7.8221,0l0,33.93164q0,5.57673 2.06727,8.52218q2.06727,2.94545 5.8107,2.94545q3.7993,0 5.86657,-2.94545q2.06727,-2.94545 2.06727,-8.52218l0,-33.93164l7.87797,0l0,33.85309q0,6.99055 -2.15108,11.82109q-2.15108,4.83055 -5.75483,7.26545q-3.60375,2.43491 -8.01765,2.43491q-4.35802,0 -7.9059,-2.43491q-3.54788,-2.43491 -5.61515,-7.26545q-2.06727,-4.83055 -2.06727,-11.82109l0,-33.85309zm-336.96468,8.87564l-14.80611,0l0,13.74545l13.12995,0l0,8.71855l-13.12995,0l0,14.53091l14.80611,0l0,8.95418l-22.6282,0l0,-54.90327l22.6282,0l0,8.95418zm376.01929,-8.87564l24.08088,0l0,8.87564l-16.25878,0l0,14.05964l12.45948,0l0,8.71855l-12.45948,0l0,23.17091l-7.8221,0l0,-54.82473zm-106.43637,54.82473l-13.63279,0l0,-54.82473l13.63279,0q6.14593,0 10.81125,3.37745q4.66532,3.37745 7.2075,9.62182q2.54218,6.24436 2.54218,14.49164q0,8.24727 -2.54218,14.41309q-2.54218,6.16582 -7.2075,9.54327q-4.66532,3.37745 -10.81125,3.37745zm-0.27936,-45.55636l-5.53134,0l0,36.20945l5.53134,0q6.14593,0 9.49826,-4.71273q3.35233,-4.71273 3.35233,-13.27418q0,-8.56145 -3.35233,-13.392q-3.35233,-4.83055 -9.49826,-4.83055zm-137.33364,46.10618q-5.47547,0 -10.05698,-3.61309q-4.58151,-3.61309 -7.26337,-10.01455q-2.68186,-6.40145 -2.68186,-14.49164q0,-8.01164 2.68186,-14.41309q2.68186,-6.40145 7.26337,-10.01455q4.58151,-3.61309 10.05698,-3.61309q5.53134,0 10.08492,3.61309q4.55358,3.61309 7.2075,10.01455q2.65393,6.40145 2.65393,14.41309q0,8.09018 -2.65393,14.49164q-2.65393,6.40145 -7.23544,10.01455q-4.58151,3.61309 -10.05698,3.61309zm0,-9.81818q3.51994,0 6.2018,-2.23855q2.68186,-2.23855 4.19041,-6.40145q1.50855,-4.16291 1.50855,-9.66109q0,-5.49818 -1.50855,-9.62182q-1.50855,-4.12364 -4.19041,-6.32291q-2.68186,-2.19927 -6.2018,-2.19927q-3.51994,0 -6.22974,2.19927q-2.7098,2.19927 -4.21834,6.32291q-1.50855,4.12364 -1.50855,9.62182q0,5.49818 1.50855,9.66109q1.50855,4.16291 4.21834,6.40145q2.7098,2.23855 6.22974,2.23855zm98.22317,9.81818q-5.47547,0 -10.05698,-3.61309q-4.58151,-3.61309 -7.26337,-10.01455q-2.68186,-6.40145 -2.68186,-14.49164q0,-8.01164 2.68186,-14.41309q2.68186,-6.40145 7.26337,-10.01455q4.58151,-3.61309 10.05698,-3.61309q5.53134,0 10.08492,3.61309q4.55358,3.61309 7.2075,10.01455q2.65393,6.40145 2.65393,14.41309q0,8.09018 -2.65393,14.49164q-2.65393,6.40145 -7.23544,10.01455q-4.58151,3.61309 -10.05698,3.61309zm0,-9.81818q3.51994,0 6.2018,-2.23855q2.68186,-2.23855 4.19041,-6.40145q1.50855,-4.16291 1.50855,-9.66109q0,-5.49818 -1.50855,-9.62182q-1.50855,-4.12364 -4.19041,-6.32291q-2.68186,-2.19927 -6.2018,-2.19927q-3.51994,0 -6.22974,2.19927q-2.7098,2.19927 -4.21834,6.32291q-1.50855,4.12364 -1.50855,9.62182q0,5.49818 1.50855,9.66109q1.50855,4.16291 4.21834,6.40145q2.7098,2.23855 6.22974,2.23855zm243.77001,9.81818q-5.47547,0 -10.05698,-3.61309q-4.58151,-3.61309 -7.26337,-10.01455q-2.68186,-6.40145 -2.68186,-14.49164q0,-8.01164 2.68186,-14.41309q2.68186,-6.40145 7.26337,-10.01455q4.58151,-3.61309 10.05698,-3.61309q5.53134,0 10.08492,3.61309q4.55358,3.61309 7.2075,10.01455q2.65393,6.40145 2.65393,14.41309q0,8.09018 -2.65393,14.49164q-2.65393,6.40145 -7.23544,10.01455q-4.58151,3.61309 -10.05698,3.61309zm0,-9.81818q3.51994,0 6.2018,-2.23855q2.68186,-2.23855 4.19041,-6.40145q1.50855,-4.16291 1.50855,-9.66109q0,-5.49818 -1.50855,-9.62182q-1.50855,-4.12364 -4.19041,-6.32291q-2.68186,-2.19927 -6.2018,-2.19927q-3.51994,0 -6.22974,2.19927q-2.7098,2.19927 -4.21834,6.32291q-1.50855,4.12364 -1.50855,9.62182q0,5.49818 1.50855,9.66109q1.50855,4.16291 4.21834,6.40145q2.7098,2.23855 6.22974,2.23855zm-459.04524,-45.55636l0,46.10618l12.85058,0l0,8.71855l-20.67268,0l0,-54.82473l7.8221,0z"/>
   </g>
  </g>
 </g>

</svg>