<svg width="572" height="92" xmlns="http://www.w3.org/2000/svg" fill="none">
 <g id="Layer_1">
  <title>Layer 1</title>
  <line fill="none" stroke="null" x1="291.62206" y1="19.87449" x2="285.74712" y2="31.37436" id="svg_5"/>
  <g stroke="null">
   <g stroke="#000000" fill="#000000" stroke-width="0.5" font-size="9pt" fill-rule="nonzero" stroke-linecap="round" id="svg_7">
    <path stroke="null" d="m471.09246,13.84531l8.87545,0l0,64.58696l-7.86432,0l0,-42.00929l-10.50449,42.00929l-5.95442,0l-10.56066,-42.00929l0,42.00929l-7.86432,0l0,-64.58696l8.93162,0l12.47057,48.02383l12.47057,-48.02383zm-334.96399,-0.09253l0,64.6795l-7.86432,0l-17.80707,-44.32257l0,44.32257l-7.86432,0l0,-64.6795l7.86432,0l17.80707,44.4151l0,-44.4151l7.86432,0zm85.38408,0l0,64.6795l-7.86432,0l-17.80707,-44.32257l0,44.32257l-7.86432,0l0,-64.6795l7.86432,0l17.80707,44.4151l0,-44.4151l7.86432,0zm139.03,0l0,64.6795l-7.86432,0l-17.80707,-44.32257l0,44.32257l-7.86432,0l0,-64.6795l7.86432,0l17.80707,44.4151l0,-44.4151l7.86432,0zm204.80944,0l0,64.6795l-7.86432,0l-17.80707,-44.32257l0,44.32257l-7.86432,0l0,-64.6795l7.86432,0l17.80707,44.4151l0,-44.4151l7.86432,0zm-478.37554,0.09253l7.86432,0l0,64.58696l-7.86432,0l0,-27.48185l-16.79595,0l0,27.48185l-7.86432,0l0,-64.58696l7.86432,0l0,26.55653l16.79595,0l0,-26.55653zm281.20572,0l7.86432,0l0,39.97359q0,6.56973 2.07843,10.03966q2.07843,3.46993 5.84207,3.46993q3.81981,0 5.89824,-3.46993q2.07843,-3.46993 2.07843,-10.03966l0,-39.97359l7.9205,0l0,39.88106q0,8.2353 -2.16269,13.92599q-2.16269,5.69069 -5.78589,8.55916q-3.62321,2.86848 -8.06093,2.86848q-4.38155,0 -7.94858,-2.86848q-3.56703,-2.86848 -5.64546,-8.55916q-2.07843,-5.69069 -2.07843,-13.92599l0,-39.88106zm-338.7838,10.45606l-14.88604,0l0,16.19301l13.20083,0l0,10.27099l-13.20083,0l0,17.11832l14.88604,0l0,10.54859l-22.75036,0l0,-64.6795l22.75036,0l0,10.54859zm378.04924,-10.45606l24.21088,0l0,10.45606l-16.34656,0l0,16.56313l12.52674,0l0,10.27099l-12.52674,0l0,27.29678l-7.86432,0l0,-64.58696zm-107.01097,64.58696l-13.70639,0l0,-64.58696l13.70639,0q6.17911,0 10.86962,3.97885q4.69051,3.97885 7.24641,11.3351q2.5559,7.35625 2.5559,17.07206q0,9.7158 -2.5559,16.97952q-2.5559,7.26372 -7.24641,11.24257q-4.69051,3.97885 -10.86962,3.97885zm-0.28087,-53.66825l-5.5612,0l0,42.65701l5.5612,0q6.17911,0 9.54954,-5.55189q3.37042,-5.55189 3.37042,-15.63782q0,-10.08593 -3.37042,-15.77662q-3.37042,-5.69069 -9.54954,-5.69069zm-138.07504,54.31597q-5.50503,0 -10.11127,-4.25645q-4.60625,-4.25645 -7.30259,-11.79776q-2.69634,-7.54131 -2.69634,-17.07206q0,-9.43821 2.69634,-16.97952q2.69634,-7.54131 7.30259,-11.79776q4.60625,-4.25645 10.11127,-4.25645q5.5612,0 10.13936,4.25645q4.57816,4.25645 7.24641,11.79776q2.66825,7.54131 2.66825,16.97952q0,9.53074 -2.66825,17.07206q-2.66825,7.54131 -7.2745,11.79776q-4.60625,4.25645 -10.11127,4.25645zm0,-11.56643q3.53895,0 6.23528,-2.63715q2.69634,-2.63715 4.21303,-7.54131q1.51669,-4.90417 1.51669,-11.38137q0,-6.4772 -1.51669,-11.3351q-1.51669,-4.8579 -4.21303,-7.44878q-2.69634,-2.59088 -6.23528,-2.59088q-3.53895,0 -6.26337,2.59088q-2.72443,2.59088 -4.24112,7.44878q-1.51669,4.8579 -1.51669,11.3351q0,6.4772 1.51669,11.38137q1.51669,4.90417 4.24112,7.54131q2.72443,2.63715 6.26337,2.63715zm98.75343,11.56643q-5.50503,0 -10.11127,-4.25645q-4.60625,-4.25645 -7.30259,-11.79776q-2.69634,-7.54131 -2.69634,-17.07206q0,-9.43821 2.69634,-16.97952q2.69634,-7.54131 7.30259,-11.79776q4.60625,-4.25645 10.11127,-4.25645q5.5612,0 10.13936,4.25645q4.57816,4.25645 7.24641,11.79776q2.66825,7.54131 2.66825,16.97952q0,9.53074 -2.66825,17.07206q-2.66825,7.54131 -7.2745,11.79776q-4.60625,4.25645 -10.11127,4.25645zm0,-11.56643q3.53895,0 6.23528,-2.63715q2.69634,-2.63715 4.21303,-7.54131q1.51669,-4.90417 1.51669,-11.38137q0,-6.4772 -1.51669,-11.3351q-1.51669,-4.8579 -4.21303,-7.44878q-2.69634,-2.59088 -6.23528,-2.59088q-3.53895,0 -6.26337,2.59088q-2.72443,2.59088 -4.24112,7.44878q-1.51669,4.8579 -1.51669,11.3351q0,6.4772 1.51669,11.38137q1.51669,4.90417 4.24112,7.54131q2.72443,2.63715 6.26337,2.63715zm245.08601,11.56643q-5.50503,0 -10.11127,-4.25645q-4.60625,-4.25645 -7.30259,-11.79776q-2.69634,-7.54131 -2.69634,-17.07206q0,-9.43821 2.69634,-16.97952q2.69634,-7.54131 7.30259,-11.79776q4.60625,-4.25645 10.11127,-4.25645q5.5612,0 10.13936,4.25645q4.57816,4.25645 7.24641,11.79776q2.66825,7.54131 2.66825,16.97952q0,9.53074 -2.66825,17.07206q-2.66825,7.54131 -7.2745,11.79776q-4.60625,4.25645 -10.11127,4.25645zm0,-11.56643q3.53895,0 6.23528,-2.63715q2.69634,-2.63715 4.21303,-7.54131q1.51669,-4.90417 1.51669,-11.38137q0,-6.4772 -1.51669,-11.3351q-1.51669,-4.8579 -4.21303,-7.44878q-2.69634,-2.59088 -6.23528,-2.59088q-3.53895,0 -6.26337,2.59088q-2.72443,2.59088 -4.24112,7.44878q-1.51669,4.8579 -1.51669,11.3351q0,6.4772 1.51669,11.38137q1.51669,4.90417 4.24112,7.54131q2.72443,2.63715 6.26337,2.63715zm-461.52342,-53.66825l0,54.31597l12.91996,0l0,10.27099l-20.78428,0l0,-64.58696l7.86432,0z"/>
   </g>
  </g>
 </g>

</svg>