<svg width="79" height="40" viewBox="0 0 79 40" fill="none" xmlns="http://www.w3.org/2000/svg">
<g clip-path="url(#clip0_2_28)">
<path d="M0.416687 6.66669V28.7761L3.24539 28.7871V18.2588H10.0452V15.4732H3.23451V9.44133H12.1014V6.66669H0.416687ZM17.1713 11.1631C17.6618 11.1631 18.1323 10.9667 18.4791 10.6171C18.826 10.2674 19.0209 9.79322 19.0209 9.29876C19.0209 8.80429 18.826 8.33008 18.4791 7.98044C18.1323 7.6308 17.6618 7.43437 17.1713 7.43437C16.6808 7.43437 16.2104 7.6308 15.8635 7.98044C15.5166 8.33008 15.3218 8.80429 15.3218 9.29876C15.3218 9.79322 15.5166 10.2674 15.8635 10.6171C16.2104 10.9667 16.6808 11.1631 17.1713 11.1631ZM15.7461 13.9378V28.7871H18.5748V13.9378H15.7461Z" fill="black"/>
<path fill-rule="evenodd" clip-rule="evenodd" d="M29.0301 13.5101C25.2875 13.5101 22.6764 16.7014 22.6764 20.496C22.6764 24.2906 25.2875 27.482 29.0301 27.482C30.7491 27.482 32.1634 26.824 33.197 25.7273V27.7013C33.2042 28.2911 33.0953 28.8766 32.8767 29.4237C32.658 29.9709 32.334 30.469 31.9233 30.8891C31.5125 31.3093 31.0232 31.6432 30.4837 31.8716C29.9441 32.1 29.365 32.2183 28.7798 32.2197C27.8768 32.2197 26.9847 31.8688 26.2775 31.3643L24.8632 33.8318C25.9568 34.5444 27.221 34.9463 28.5223 34.995C29.8237 35.0437 31.1139 34.7374 32.257 34.1086C33.4 33.4797 34.3535 32.5514 35.0168 31.4218C35.6801 30.2922 36.0286 29.003 36.0257 27.6903V13.9487H33.197V15.2757C32.1634 14.179 30.7491 13.521 29.0301 13.521V13.5101ZM25.4942 20.496C25.4942 18.1381 27.2785 16.2847 29.3456 16.2847C31.4127 16.2847 33.1861 18.1491 33.1861 20.496C33.1861 22.8539 31.4018 24.6964 29.3456 24.6964C27.2785 24.6964 25.4942 22.8539 25.4942 20.496Z" fill="black"/>
<path d="M46.1872 16.2848C45.3782 16.2992 44.6074 16.634 44.0414 17.2169C43.4753 17.7997 43.1597 18.5838 43.1627 19.3994V28.7871H40.334V13.9378H43.1627V15.2977C43.5859 14.7323 44.1356 14.2757 44.7671 13.9651C45.3986 13.6544 46.0939 13.4985 46.7965 13.5101C48.7766 13.5101 50.2997 14.4972 51.1701 16.0106C51.6557 15.2519 52.3203 14.6264 53.1044 14.19C53.8885 13.7536 54.7677 13.5201 55.6634 13.5101C58.8729 13.5101 60.8856 16.1203 60.8856 19.3555V28.7871H58.0787V19.3884C58.0817 18.5728 57.766 17.7888 57.2 17.2059C56.634 16.623 55.8631 16.2882 55.0541 16.2738C54.2451 16.2882 53.4743 16.623 52.9083 17.2059C52.3423 17.7888 52.0266 18.5728 52.0296 19.3884V28.7761H49.2009V19.3884C49.2039 18.5747 48.8898 17.7923 48.3261 17.2097C47.7624 16.6271 46.9943 16.291 46.1872 16.2738V16.2848Z" fill="black"/>
<path fill-rule="evenodd" clip-rule="evenodd" d="M75.9322 15.6267C75.2899 14.9516 74.5176 14.4156 73.6627 14.0517C72.8078 13.6877 71.8882 13.5034 70.9602 13.5101C66.7607 13.5101 63.7796 17.0853 63.7796 21.3624C63.7796 25.6396 66.7607 29.2148 70.9602 29.2148C71.8879 29.2195 72.8069 29.0344 73.6616 28.6706C74.5162 28.3067 75.2887 27.7718 75.9322 27.0982V28.7871H78.75V13.9378H75.9213V15.6267H75.9322ZM66.5975 21.3624C66.5975 18.533 68.7516 16.2847 71.2648 16.2847C73.7672 16.2847 75.9322 18.533 75.9322 21.3624C75.9322 24.1919 73.778 26.4292 71.2648 26.4292C68.7625 26.4292 66.5975 24.1919 66.5975 21.3624Z" fill="black"/>
</g>
<defs>
<clipPath id="clip0_2_28">
<rect width="78.3333" height="40" fill="white" transform="translate(0.416687)"/>
</clipPath>
</defs>
</svg>
