<svg width="114" height="40" viewBox="0 0 114 40" fill="none" xmlns="http://www.w3.org/2000/svg">
<g clip-path="url(#clip0_2_40)">
<path d="M0.916626 1.66669H25.2022V13.8095H13.0594L0.916626 1.66669ZM0.916626 13.8095H13.0594L25.2022 25.9522H0.916626V13.8095ZM0.916626 25.9522H13.0594V38.095L0.916626 25.9522Z" fill="black"/>
<path d="M38.9049 11.2462H48.7216V14.3656H42.6205V18.7006H48.7216V21.7512H42.6205V27.3017H38.9049V11.2462ZM50.7399 16.2462H54.2494V18.5628C54.4327 17.7667 54.8077 17.1556 55.3732 16.7278C55.9532 16.2839 56.5971 16.0628 57.2999 16.0628C57.6671 16.0628 57.9732 16.0939 58.2171 16.1545V19.4117C57.8671 19.3695 57.5149 19.3467 57.1621 19.3428C56.1988 19.3428 55.4732 19.6556 54.9832 20.2828C54.4949 20.8945 54.2494 21.8117 54.2494 23.0356V27.3017H50.7416V16.2462H50.7399ZM63.7571 27.6C62.6871 27.6 61.7538 27.3473 60.9588 26.8428C60.1788 26.3384 59.5588 25.6223 59.1699 24.7784C58.7571 23.8923 58.5494 22.8895 58.5494 21.7739C58.5494 20.6728 58.7649 19.6784 59.1927 18.7923C59.5938 17.9362 60.2305 17.2123 61.0277 16.705C61.8371 16.2006 62.7627 15.9478 63.8032 15.9478C64.5827 15.9478 65.2794 16.1167 65.8905 16.4528C66.5016 16.79 66.9605 17.2489 67.2666 17.8289V16.2462H70.7527V27.3017H67.2666V25.7417C66.9605 26.2923 66.4866 26.7428 65.8443 27.095C65.2021 27.4356 64.4843 27.6089 63.7571 27.6ZM64.7666 24.6867C65.6071 24.6867 66.2571 24.4117 66.716 23.8612C67.1749 23.3106 67.4044 22.6145 67.4044 21.7739C67.4044 20.9484 67.1749 20.26 66.716 19.7095C66.2571 19.1589 65.6071 18.8839 64.7666 18.8839C63.9705 18.8839 63.3293 19.1512 62.8399 19.6867C62.366 20.2223 62.1288 20.9173 62.1288 21.7739C62.1288 22.6306 62.366 23.3334 62.8399 23.8839C63.3293 24.4195 63.9716 24.6867 64.7666 24.6867ZM73.2071 16.2462H76.7166V17.8517C76.9621 17.285 77.3588 16.8262 77.9088 16.4756C78.4755 16.125 79.1327 15.9478 79.8816 15.9478C81.6249 15.9478 82.7799 16.6278 83.3449 17.9895C83.656 17.3723 84.1427 16.8617 84.7443 16.5217C85.3877 16.1345 86.1266 15.9362 86.8771 15.9478C89.4921 15.9478 90.7993 17.4456 90.7993 20.4434V27.3017H87.2671V21.0856C87.2671 20.3373 87.1293 19.7867 86.8543 19.4345C86.5788 19.0834 86.166 18.9067 85.6155 18.9067C85.0193 18.9067 84.5605 19.1134 84.2393 19.5262C83.9182 19.9239 83.7577 20.6189 83.7577 21.6134V27.3017H80.2254V21.0628C80.2254 20.3139 80.0882 19.7706 79.8127 19.4345C79.5538 19.0834 79.1477 18.9067 78.5982 18.9067C77.986 18.9067 77.5193 19.1134 77.1982 19.5262C76.8771 19.9239 76.7166 20.6189 76.7166 21.6134V27.3017H73.2082V16.2462H73.2071ZM103.983 21.2006C103.983 21.6739 103.952 22.1867 103.889 22.7373H95.7255C95.7566 23.4562 96.0005 24.0056 96.4594 24.3889C96.9182 24.7706 97.5388 24.9623 98.3171 24.9623C99.4032 24.9623 100.092 24.6328 100.382 23.9756H103.822C103.653 25.0617 103.057 25.94 102.033 26.6134C101.024 27.2706 99.7849 27.6 98.3171 27.6C96.4216 27.6 94.9305 27.0873 93.8443 26.0628C92.7743 25.0378 92.2388 23.6089 92.2388 21.7739C92.2388 20.5812 92.4832 19.5489 92.9727 18.6773C93.4454 17.8067 94.1743 17.1023 95.0599 16.6589C95.9627 16.1856 97.0099 15.9478 98.2038 15.9478C99.3343 15.9478 100.335 16.1695 101.207 16.6134C102.094 17.0573 102.775 17.6762 103.248 18.4712C103.738 19.2673 103.983 20.1767 103.983 21.2006ZM100.518 20.5584C100.503 19.8245 100.297 19.2656 99.8982 18.8839C99.5016 18.5023 98.9271 18.3106 98.1782 18.3106C97.4293 18.3106 96.8332 18.5167 96.3893 18.93C95.9616 19.3278 95.7399 19.87 95.7238 20.5584H100.518ZM105.53 16.2462H109.039V18.5628C109.223 17.7667 109.598 17.1556 110.163 16.7278C110.712 16.2956 111.391 16.0612 112.09 16.0628C112.457 16.0628 112.763 16.0939 113.007 16.1545V19.4117C112.657 19.3695 112.305 19.3467 111.952 19.3428C110.989 19.3428 110.263 19.6556 109.773 20.2828C109.283 20.8945 109.039 21.8117 109.039 23.0356V27.3017H105.53V16.2462Z" fill="black"/>
</g>
<defs>
<clipPath id="clip0_2_40">
<rect width="112.5" height="40" fill="white" transform="translate(0.916626)"/>
</clipPath>
</defs>
</svg>
