<svg width="572" height="92" xmlns="http://www.w3.org/2000/svg" fill="none">
 <g id="Layer_1">
  <title>Layer 1</title>
  <line fill="none" stroke="null" x1="291.62206" y1="19.87449" x2="285.74712" y2="31.37436" id="svg_5"/>
  <g stroke="null">
   <g stroke="#ffffff" fill="#ffffff" stroke-width="0.5" font-size="9pt" fill-rule="nonzero" stroke-linecap="round" id="svg_12">
    <path stroke="null" d="m433.22692,19.19147l12.62859,0l0,53.8485l-11.18989,0l0,-35.02467l-14.94649,35.02467l-8.47234,0l-15.02642,-35.02467l0,35.02467l-11.18989,0l0,-53.8485l12.70851,0l17.74396,40.03922l17.74396,-40.03922zm-207.25269,16.74087l-12.86837,0q-1.91827,-3.85734 -5.39512,-5.78601q-3.47686,-1.92867 -8.03274,-1.92867q-4.87559,0 -8.67216,2.19869q-3.79657,2.19869 -5.91465,6.21032q-2.11809,4.01164 -2.11809,9.41192q0,5.32313 2.11809,9.37334q2.11809,4.05021 5.91465,6.24889q3.79657,2.19869 8.67216,2.19869q4.55588,0 8.03274,-1.96724q3.47686,-1.96724 5.39512,-5.82459l12.86837,0q-2.79747,8.25471 -9.79115,12.84495q-6.99368,4.59024 -16.42516,4.59024q-7.99278,0 -14.42696,-3.51018q-6.43418,-3.51018 -10.15083,-9.75908q-3.71664,-6.24889 -3.71664,-14.19502q0,-7.94613 3.71664,-14.23359q3.71664,-6.28747 10.15083,-9.79765q6.43418,-3.51018 14.42696,-3.51018q9.35155,0 16.38519,4.62881q7.03364,4.62881 9.83111,12.80638zm334.41776,37.10764l-12.86837,0l-12.06909,-18.12951l-10.9501,18.12951l-12.62859,0l17.58411,-27.15569l-17.82389,-26.69281l12.86837,0l12.06909,18.05236l10.87018,-18.05236l12.62859,0l-17.50418,27.07854l17.82389,26.76996zm-324.98628,-53.8485l11.18989,0l0,33.32744q0,5.47743 2.95733,8.37043q2.95733,2.89301 8.31249,2.89301q5.43509,0 8.39242,-2.89301q2.95733,-2.89301 2.95733,-8.37043l0,-33.32744l11.26981,0l0,33.25029q0,6.86607 -3.07722,11.6106q-3.07722,4.74453 -8.23256,7.13608q-5.15534,2.39155 -11.46963,2.39155q-6.23437,0 -11.30978,-2.39155q-5.07541,-2.39155 -8.03274,-7.13608q-2.95733,-4.74453 -2.95733,-11.6106l0,-33.25029zm139.47395,8.71759l-21.18086,0l0,13.5007l18.78302,0l0,8.5633l-18.78302,0l0,14.27217l21.18086,0l0,8.79474l-32.37074,0l0,-53.92565l32.37074,0l0,8.79474zm-272.95331,45.13091l-12.9483,0l-12.30888,-20.98394l-5.27523,0l0,20.98394l-11.18989,0l0,-53.8485l20.94107,0q6.47415,0 11.03003,2.19869q4.55588,2.19869 6.83382,5.94031q2.27794,3.74162 2.27794,8.37043q0,5.32313 -3.19711,9.60478q-3.19711,4.28165 -9.5114,5.90173l13.34794,21.83256zm-30.53241,-44.89947l0,15.8151l9.35155,0q4.55588,0 6.79386,-2.12154q2.23798,-2.12154 2.23798,-5.90173q0,-3.70305 -2.23798,-5.74744q-2.23798,-2.04439 -6.79386,-2.04439l-9.35155,0zm261.60357,44.89947l-12.9483,0l-12.30888,-20.98394l-5.27523,0l0,20.98394l-11.18989,0l0,-53.8485l20.94107,0q6.47415,0 11.03003,2.19869q4.55588,2.19869 6.83382,5.94031q2.27794,3.74162 2.27794,8.37043q0,5.32313 -3.19711,9.60478q-3.19711,4.28165 -9.5114,5.90173l13.34794,21.83256zm-30.53241,-44.89947l0,15.8151l9.35155,0q4.55588,0 6.79386,-2.12154q2.23798,-2.12154 2.23798,-5.90173q0,-3.70305 -2.23798,-5.74744q-2.23798,-2.04439 -6.79386,-2.04439l-9.35155,0zm192.3062,44.89947l-3.67668,-10.26053l-22.21992,0l-3.67668,10.26053l-11.74938,0l20.06187,-53.92565l13.02823,0l20.06187,53.92565l-11.82931,0zm-22.85934,-18.90098l16.14541,0l-8.0727,-22.52688l-8.0727,22.52688zm-334.57761,19.44101q-7.83292,0 -14.387,-3.54876q-6.55408,-3.54876 -10.39061,-9.83622q-3.83653,-6.28747 -3.83653,-14.23359q0,-7.86898 3.83653,-14.15645q3.83653,-6.28747 10.39061,-9.83622q6.55408,-3.54876 14.387,-3.54876q7.91285,0 14.42696,3.54876q6.51411,3.54876 10.31068,9.83622q3.79657,6.28747 3.79657,14.15645q0,7.94613 -3.79657,14.23359q-3.79657,6.28747 -10.35065,9.83622q-6.55408,3.54876 -14.387,3.54876zm0,-9.64336q5.03545,0 8.87198,-2.19869q3.83653,-2.19869 5.99458,-6.28747q2.15805,-4.08878 2.15805,-9.48906q0,-5.40028 -2.15805,-9.45049q-2.15805,-4.05021 -5.99458,-6.21032q-3.83653,-2.16011 -8.87198,-2.16011q-5.03545,0 -8.91195,2.16011q-3.8765,2.16011 -6.03455,6.21032q-2.15805,4.05021 -2.15805,9.45049q0,5.40028 2.15805,9.48906q2.15805,4.08878 6.03455,6.28747q3.8765,2.19869 8.91195,2.19869zm-105.18494,-11.57203l-9.35155,0l0,20.67536l-11.18989,0l0,-53.8485l20.54143,0q6.47415,0 11.03003,2.16011q4.55588,2.16011 6.83382,5.94031q2.27794,3.7802 2.27794,8.5633q0,4.32022 -2.11809,8.10042q-2.11809,3.7802 -6.634,6.0946q-4.51592,2.31441 -11.38971,2.31441zm-0.47957,-24.3784l-8.87198,0l0,15.66081l8.87198,0q4.63581,0 6.87379,-2.04439q2.23798,-2.04439 2.23798,-5.74744q0,-7.86898 -9.11176,-7.86898z"/>
   </g>
  </g>
 </g>

</svg>