<svg width="572" height="92" xmlns="http://www.w3.org/2000/svg" fill="none">
 <g id="Layer_1">
  <title>Layer 1</title>
  <line fill="none" stroke="null" x1="291.62206" y1="19.87449" x2="285.74712" y2="31.37436" id="svg_5"/>
  <g stroke="null">
   <g stroke="#000000" fill="#000000" stroke-width="0.5" font-size="9pt" fill-rule="nonzero" stroke-linecap="round" id="svg_8">
    <path stroke="null" d="m434.83661,15.78937l12.76666,0l0,60.68207l-11.31223,0l0,-39.46943l-15.10991,39.46943l-8.56497,0l-15.19071,-39.46943l0,39.46943l-11.31223,0l0,-60.68207l12.84746,0l17.93796,45.12033l17.93796,-45.12033zm-209.51863,18.86534l-13.00906,0q-1.93924,-4.34685 -5.45411,-6.52028q-3.51487,-2.17343 -8.12056,-2.17343q-4.9289,0 -8.76698,2.47771q-3.83808,2.47771 -5.97932,6.99843q-2.14124,4.52073 -2.14124,10.60632q0,5.99866 2.14124,10.56285q2.14124,4.5642 5.97932,7.0419q3.83808,2.47771 8.76698,2.47771q4.60569,0 8.12056,-2.2169q3.51487,-2.2169 5.45411,-6.56375l13.00906,0q-2.82806,9.30227 -9.8982,14.47502q-7.07014,5.17276 -16.60474,5.17276q-8.08016,0 -14.58469,-3.95564q-6.50453,-3.95564 -10.26181,-10.99754q-3.75728,-7.0419 -3.75728,-15.99642q0,-8.95452 3.75728,-16.03989q3.75728,-7.08537 10.26181,-11.04101q6.50453,-3.95564 14.58469,-3.95564q9.45379,0 16.56433,5.21622q7.11054,5.21622 9.9386,14.43155zm338.07403,41.81673l-13.00906,0l-12.20105,-20.43021l-11.06982,20.43021l-12.76666,0l17.77636,-30.60185l-18.01876,-30.08022l13.00906,0l12.20105,20.34327l10.98902,-20.34327l12.76666,0l-17.69556,30.51491l18.01876,30.16716zm-328.53943,-60.68207l11.31223,0l0,37.55681q0,6.17253 2.98966,9.43267q2.98966,3.26014 8.40337,3.26014q5.49451,0 8.48417,-3.26014q2.98966,-3.26014 2.98966,-9.43267l0,-37.55681l11.39303,0l0,37.46987q0,7.7374 -3.11086,13.08403q-3.11086,5.34663 -8.32257,8.04168q-5.21171,2.69505 -11.59503,2.69505q-6.30253,0 -11.43343,-2.69505q-5.1309,-2.69505 -8.12056,-8.04168q-2.98966,-5.34663 -2.98966,-13.08403l0,-37.46987zm140.99885,9.82389l-21.41243,0l0,15.21399l18.98838,0l0,9.65001l-18.98838,0l0,16.08336l21.41243,0l0,9.91082l-32.72466,0l0,-60.769l32.72466,0l0,9.91082zm-275.93757,50.85818l-13.08986,0l-12.44345,-23.64688l-5.33291,0l0,23.64688l-11.31223,0l0,-60.68207l21.17003,0q6.54493,0 11.15063,2.47771q4.60569,2.47771 6.90854,6.69415q2.30285,4.21645 2.30285,9.43267q0,5.99866 -3.23207,10.82366q-3.23207,4.82501 -9.61539,6.65069l13.49387,24.60319zm-30.86622,-50.59737l0,17.8221l9.45379,0q4.60569,0 6.86814,-2.39077q2.26245,-2.39077 2.26245,-6.65069q0,-4.17298 -2.26245,-6.47681q-2.26245,-2.30383 -6.86814,-2.30383l-9.45379,0zm264.46374,50.59737l-13.08986,0l-12.44345,-23.64688l-5.33291,0l0,23.64688l-11.31223,0l0,-60.68207l21.17003,0q6.54493,0 11.15063,2.47771q4.60569,2.47771 6.90854,6.69415q2.30285,4.21645 2.30285,9.43267q0,5.99866 -3.23207,10.82366q-3.23207,4.82501 -9.61539,6.65069l13.49387,24.60319zm-30.86622,-50.59737l0,17.8221l9.45379,0q4.60569,0 6.86814,-2.39077q2.26245,-2.39077 2.26245,-6.65069q0,-4.17298 -2.26245,-6.47681q-2.26245,-2.30383 -6.86814,-2.30383l-9.45379,0zm194.40873,50.59737l-3.71688,-11.56263l-22.46285,0l-3.71688,11.56263l-11.87784,0l20.28121,-60.769l13.17067,0l20.28121,60.769l-11.95864,0zm-23.10927,-21.29958l16.32193,0l-8.16096,-25.38562l-8.16096,25.38562zm-338.23563,21.90814q-7.91856,0 -14.54429,-3.9991q-6.62573,-3.9991 -10.50421,-11.08448q-3.87848,-7.08537 -3.87848,-16.03989q0,-8.86758 3.87848,-15.95295q3.87848,-7.08537 10.50421,-11.08448q6.62573,-3.9991 14.54429,-3.9991q7.99936,0 14.58469,3.9991q6.58533,3.9991 10.42341,11.08448q3.83808,7.08537 3.83808,15.95295q0,8.95452 -3.83808,16.03989q-3.83808,7.08537 -10.46381,11.08448q-6.62573,3.9991 -14.54429,3.9991zm0,-10.86713q5.0905,0 8.96898,-2.47771q3.87848,-2.47771 6.06012,-7.08537q2.18164,-4.60766 2.18164,-10.69326q0,-6.08559 -2.18164,-10.64979q-2.18164,-4.5642 -6.06012,-6.99843q-3.87848,-2.43424 -8.96898,-2.43424q-5.0905,0 -9.00938,2.43424q-3.91888,2.43424 -6.10052,6.99843q-2.18164,4.5642 -2.18164,10.64979q0,6.08559 2.18164,10.69326q2.18164,4.60766 6.10052,7.08537q3.91888,2.47771 9.00938,2.47771zm-106.33495,-13.04056l-9.45379,0l0,23.29913l-11.31223,0l0,-60.68207l20.76602,0q6.54493,0 11.15063,2.43424q4.60569,2.43424 6.90854,6.69415q2.30285,4.25992 2.30285,9.65001q0,4.86848 -2.14124,9.12839q-2.14124,4.25992 -6.70654,6.86803q-4.56529,2.60811 -11.51423,2.60811zm-0.48481,-27.47211l-8.96898,0l0,17.64822l8.96898,0q4.68649,0 6.94894,-2.30383q2.26245,-2.30383 2.26245,-6.47681q0,-8.86758 -9.21139,-8.86758z"/>
   </g>
  </g>
 </g>

</svg>