<svg width="107" height="40" viewBox="0 0 107 40" fill="none" xmlns="http://www.w3.org/2000/svg">
<g clip-path="url(#clip0_2_30)">
<path d="M23.3755 9.90315C23.3544 9.75568 23.228 9.67142 23.1227 9.67142C23.0174 9.67142 20.9318 9.62928 20.9318 9.62928C20.9318 9.62928 19.1832 7.94396 19.0147 7.75436C18.8462 7.58583 18.5091 7.62796 18.3827 7.67009C18.3827 7.67009 18.0456 7.77543 17.4979 7.94396C17.4136 7.64903 17.2662 7.2909 17.0766 6.9117C16.4657 5.73197 15.5387 5.09997 14.4433 5.09997C14.359 5.09997 14.2958 5.09997 14.2115 5.12104C14.1694 5.07891 14.1483 5.03677 14.1062 5.01571C13.6217 4.51011 13.0107 4.25731 12.2734 4.27838C10.8619 4.32051 9.45049 5.35277 8.29183 7.1645C7.4913 8.44956 6.88037 10.0506 6.69077 11.2935C5.06865 11.7991 3.93105 12.1573 3.88892 12.1573C3.06732 12.4101 3.04625 12.4311 2.94092 13.2106C2.89879 13.8005 0.75 30.422 0.75 30.422L18.783 33.5398L26.5987 31.6017C26.5776 31.6017 23.3966 10.0506 23.3755 9.90315ZM16.5921 8.23889C16.1707 8.36529 15.7073 8.51276 15.2017 8.68129C15.2017 7.96503 15.0963 6.95383 14.7803 6.11117C15.8547 6.2797 16.3814 7.50156 16.5921 8.23889ZM14.2537 8.95515C13.3057 9.25009 12.2734 9.56608 11.2411 9.88208C11.5361 8.76556 12.0838 7.67009 12.7579 6.93276C13.0107 6.6589 13.3689 6.36397 13.7691 6.19543C14.1905 7.01703 14.2747 8.17569 14.2537 8.95515ZM12.3155 5.22637C12.6526 5.22637 12.9265 5.28957 13.1582 5.4581C12.779 5.6477 12.3998 5.94264 12.0627 6.32183C11.1569 7.2909 10.4617 8.78662 10.1878 10.2402C9.32409 10.5141 8.48143 10.7669 7.72303 10.9986C8.22863 8.70236 10.1457 5.28957 12.3155 5.22637Z" fill="#95BF47"/>
<path d="M23.1227 9.67156C23.0174 9.67156 20.9318 9.62943 20.9318 9.62943C20.9318 9.62943 19.1833 7.9441 19.0148 7.7545C18.9516 7.6913 18.8673 7.64917 18.783 7.64917V33.54L26.5987 31.6018C26.5987 31.6018 23.4177 10.0508 23.3966 9.90329C23.3545 9.75583 23.2281 9.67156 23.1227 9.67156Z" fill="#5E8E3E"/>
<path d="M14.4436 13.695L13.5378 17.0867C13.5378 17.0867 12.5266 16.6232 11.3258 16.7075C9.55617 16.8128 9.55617 17.9294 9.55617 18.2032C9.66151 19.72 13.6431 20.0571 13.8748 23.6173C14.0434 26.4192 12.4002 28.3362 9.99857 28.4837C7.13352 28.6312 5.55353 26.9458 5.55353 26.9458L6.16446 24.3547C6.16446 24.3547 7.76552 25.5554 9.02951 25.4712C9.85111 25.429 10.1671 24.7339 10.125 24.2704C9.99857 22.2901 6.75432 22.4165 6.54366 19.1512C6.37512 16.4126 8.16578 13.6528 12.1263 13.4C13.6642 13.2947 14.4436 13.695 14.4436 13.695Z" fill="white"/>
<path d="M37.1743 20.9211C36.2684 20.4366 35.805 20.0153 35.805 19.4465C35.805 18.7302 36.458 18.2667 37.4692 18.2667C38.6489 18.2667 39.7023 18.7513 39.7023 18.7513L40.5239 16.2233C40.5239 16.2233 39.7655 15.6334 37.5324 15.6334C34.4146 15.6334 32.2447 17.4241 32.2447 19.931C32.2447 21.3635 33.2559 22.4379 34.6042 23.2174C35.6996 23.8283 36.0788 24.2707 36.0788 24.9238C36.0788 25.5979 35.5311 26.1456 34.5199 26.1456C33.0242 26.1456 31.5916 25.3662 31.5916 25.3662L30.7068 27.8941C30.7068 27.8941 32.013 28.7789 34.225 28.7789C37.4271 28.7789 39.7444 27.1989 39.7444 24.355C39.7233 22.8171 38.5647 21.7216 37.1743 20.9211Z" fill="black"/>
<path d="M49.9407 15.5915C48.3607 15.5915 47.1178 16.3499 46.1698 17.4874L46.1276 17.4664L47.497 10.3037H43.9367L40.4607 28.5474H44.021L45.2007 22.3117C45.6642 19.9522 46.886 18.4986 48.0236 18.4986C48.8242 18.4986 49.1402 19.0464 49.1402 19.8258C49.1402 20.3104 49.098 20.9213 48.9927 21.4058L47.6444 28.5474H51.2047L52.5951 21.1741C52.7425 20.3946 52.8479 19.4677 52.8479 18.8357C52.8689 16.8133 51.8156 15.5915 49.9407 15.5915Z" fill="black"/>
<path d="M60.9371 15.5911C56.6395 15.5911 53.7956 19.4674 53.7956 23.786C53.7956 26.5458 55.502 28.7788 58.7041 28.7788C62.9174 28.7788 65.7614 25.0079 65.7614 20.5839C65.7824 18.0349 64.2867 15.5911 60.9371 15.5911ZM59.1886 26.0612C57.9667 26.0612 57.4611 25.029 57.4611 23.7228C57.4611 21.6794 58.5145 18.3509 60.4526 18.3509C61.7166 18.3509 62.1379 19.4463 62.1379 20.4997C62.1379 22.6906 61.0635 26.0612 59.1886 26.0612Z" fill="black"/>
<path d="M74.9047 15.5911C72.5032 15.5911 71.1338 17.7189 71.1338 17.7189H71.0917L71.3024 15.8018H68.1424C67.9949 17.0869 67.7 19.0671 67.4261 20.5418L64.9403 33.6031H68.5005L69.4906 28.3153H69.5749C69.5749 28.3153 70.3122 28.7788 71.6605 28.7788C75.8527 28.7788 78.5914 24.4812 78.5914 20.1415C78.5914 17.7399 77.517 15.5911 74.9047 15.5911ZM71.492 26.1034C70.565 26.1034 70.0173 25.5767 70.0173 25.5767L70.6072 22.2482C71.0285 20.0151 72.1872 18.5405 73.4301 18.5405C74.5255 18.5405 74.8626 19.5517 74.8626 20.4997C74.8626 22.817 73.4933 26.1034 71.492 26.1034Z" fill="black"/>
<path d="M83.6889 10.4722C82.5513 10.4722 81.6454 11.3781 81.6454 12.5367C81.6454 13.5901 82.3195 14.3274 83.3307 14.3274H83.3729C84.4894 14.3274 85.4374 13.569 85.4585 12.2629C85.4585 11.2306 84.7633 10.4722 83.6889 10.4722Z" fill="black"/>
<path d="M78.6963 28.5261H82.2566L84.6792 15.8862H81.0979L78.6963 28.5261Z" fill="black"/>
<path d="M93.7587 15.8653H91.2729L91.3992 15.2755C91.6099 14.0536 92.3262 12.9792 93.527 12.9792C94.159 12.9792 94.6646 13.1688 94.6646 13.1688L95.3598 10.367C95.3598 10.367 94.7488 10.051 93.4216 10.051C92.1576 10.051 90.8937 10.4091 89.9246 11.2307C88.7027 12.263 88.1339 13.7587 87.8601 15.2755L87.7547 15.8653H86.0905L85.5638 18.5619H87.2281L85.3321 28.5474H88.8923L90.7883 18.5619H93.2531L93.7587 15.8653Z" fill="black"/>
<path d="M102.354 15.8862C102.354 15.8862 100.121 21.511 99.1305 24.5867H99.0884C99.0252 23.5966 98.2036 15.8862 98.2036 15.8862H94.4537L96.6025 27.4939C96.6446 27.7467 96.6236 27.9152 96.5182 28.0837C96.0969 28.8843 95.4017 29.6637 94.5801 30.2325C93.906 30.7171 93.1476 31.033 92.5577 31.2437L93.5478 34.2773C94.2641 34.1298 95.7809 33.5189 97.0449 32.3392C98.667 30.8224 100.184 28.4629 101.722 25.2608L106.082 15.8862H102.354Z" fill="black"/>
</g>
<defs>
<clipPath id="clip0_2_30">
<rect width="105.833" height="40" fill="white" transform="translate(0.75)"/>
</clipPath>
</defs>
</svg>
