<svg width="572" height="92" xmlns="http://www.w3.org/2000/svg" fill="none">
 <g id="Layer_1">
  <title>Layer 1</title>
  <line fill="none" stroke="null" x1="291.62206" y1="19.87449" x2="285.74712" y2="31.37436" id="svg_5"/>
  <g stroke="null">
   <g stroke="#000000" fill="#000000" stroke-width="0.5" font-size="9pt" fill-rule="nonzero" stroke-linecap="round" id="svg_9">
    <path stroke="null" d="m560.34001,68.50736l-13.7364,0l-19.71212,-23.93091l0,23.93091l-10.86495,0l0,-53.70988l10.86495,0l0,24.0848l19.71212,-24.0848l13.11555,0l-22.35075,26.6241l22.97161,27.08579zm-548.67998,-15.4666l11.64102,0q0.23282,3.30877 2.36701,5.23248q2.13419,1.92371 5.85931,1.92371q3.80273,0 5.97572,-1.80828q2.17299,-1.80828 2.17299,-4.73232q0,-2.3854 -1.47453,-3.92436q-1.47453,-1.53897 -3.68632,-2.42387q-2.21179,-0.8849 -6.09213,-1.96218q-5.27726,-1.53897 -8.57555,-3.03946q-3.29829,-1.50049 -5.6653,-4.53995q-2.36701,-3.03946 -2.36701,-8.11804q0,-4.77079 2.40581,-8.31041q2.40581,-3.53962 6.75179,-5.42485q4.34598,-1.88523 9.93367,-1.88523q8.38153,0 13.61999,4.03978q5.23846,4.03978 5.78171,11.27292l-11.95145,0q-0.15521,-2.77014 -2.36701,-4.57842q-2.21179,-1.80828 -5.85931,-1.80828q-3.18188,0 -5.08324,1.61591q-1.90137,1.61591 -1.90137,4.69384q0,2.15455 1.43573,3.57809q1.43573,1.42354 3.56991,2.30845q2.13419,0.8849 6.01453,2.03913q5.27726,1.53897 8.61435,3.07793q3.33709,1.53897 5.7429,4.6169q2.40581,3.07793 2.40581,8.07957q0,4.3091 -2.2506,8.00262q-2.2506,3.69352 -6.59658,5.88654q-4.34598,2.19303 -10.3217,2.19303q-5.6653,0 -10.20529,-1.92371q-4.54,-1.92371 -7.17863,-5.54027q-2.63863,-3.61657 -2.71624,-8.54126zm455.70705,0l11.64102,0q0.23282,3.30877 2.36701,5.23248q2.13419,1.92371 5.85931,1.92371q3.80273,0 5.97572,-1.80828q2.17299,-1.80828 2.17299,-4.73232q0,-2.3854 -1.47453,-3.92436q-1.47453,-1.53897 -3.68632,-2.42387q-2.21179,-0.8849 -6.09213,-1.96218q-5.27726,-1.53897 -8.57555,-3.03946q-3.29829,-1.50049 -5.6653,-4.53995q-2.36701,-3.03946 -2.36701,-8.11804q0,-4.77079 2.40581,-8.31041q2.40581,-3.53962 6.75179,-5.42485q4.34598,-1.88523 9.93367,-1.88523q8.38153,0 13.61999,4.03978q5.23846,4.03978 5.78171,11.27292l-11.95145,0q-0.15521,-2.77014 -2.36701,-4.57842q-2.21179,-1.80828 -5.85931,-1.80828q-3.18188,0 -5.08324,1.61591q-1.90137,1.61591 -1.90137,4.69384q0,2.15455 1.43573,3.57809q1.43573,1.42354 3.56991,2.30845q2.13419,0.8849 6.01453,2.03913q5.27726,1.53897 8.61435,3.07793q3.33709,1.53897 5.7429,4.6169q2.40581,3.07793 2.40581,8.07957q0,4.3091 -2.2506,8.00262q-2.2506,3.69352 -6.59658,5.88654q-4.34598,2.19303 -10.3217,2.19303q-5.6653,0 -10.20529,-1.92371q-4.54,-1.92371 -7.17863,-5.54027q-2.63863,-3.61657 -2.71624,-8.54126zm-346.12627,-38.24328l10.86495,0l0,33.24165q0,5.46333 2.87145,8.34889q2.87145,2.88556 8.07111,2.88556q5.27726,0 8.14871,-2.88556q2.87145,-2.88556 2.87145,-8.34889l0,-33.24165l10.94256,0l0,33.1647q0,6.84839 -2.98786,11.58071q-2.98786,4.73232 -7.9935,7.11771q-5.00564,2.3854 -11.13657,2.3854q-6.05333,0 -10.98136,-2.3854q-4.92803,-2.3854 -7.79948,-7.11771q-2.87145,-4.73232 -2.87145,-11.58071l0,-33.1647zm240.73625,8.69515l-20.5658,0l0,13.46594l18.23759,0l0,8.54126l-18.23759,0l0,14.23543l20.5658,0l0,8.7721l-31.43075,0l0,-53.78683l31.43075,0l0,8.7721zm96.93088,0l-20.5658,0l0,13.46594l18.23759,0l0,8.54126l-18.23759,0l0,14.23543l20.5658,0l0,8.7721l-31.43075,0l0,-53.78683l31.43075,0l0,8.7721zm-187.34278,45.01473l-12.5723,0l-11.95145,-20.92992l-5.12205,0l0,20.92992l-10.86495,0l0,-53.70988l20.33298,0q6.28615,0 10.70974,2.19303q4.42359,2.19303 6.63538,5.92502q2.21179,3.73199 2.21179,8.34889q0,5.30943 -3.10427,9.58006q-3.10427,4.27063 -9.23521,5.88654l12.96033,21.77636zm-29.64579,-44.78388l0,15.77439l9.07999,0q4.42359,0 6.59658,-2.11608q2.17299,-2.11608 2.17299,-5.88654q0,-3.69352 -2.17299,-5.73264q-2.17299,-2.03913 -6.59658,-2.03913l-9.07999,0zm79.39174,44.78388l-12.5723,0l-11.95145,-20.92992l-5.12205,0l0,20.92992l-10.86495,0l0,-53.70988l20.33298,0q6.28615,0 10.70974,2.19303q4.42359,2.19303 6.63538,5.92502q2.21179,3.73199 2.21179,8.34889q0,5.30943 -3.10427,9.58006q-3.10427,4.27063 -9.23521,5.88654l12.96033,21.77636zm-29.64579,-44.78388l0,15.77439l9.07999,0q4.42359,0 6.59658,-2.11608q2.17299,-2.11608 2.17299,-5.88654q0,-3.69352 -2.17299,-5.73264q-2.17299,-2.03913 -6.59658,-2.03913l-9.07999,0zm-177.48672,54.24852l-13.50358,0l-8.22632,-9.77243q-3.4147,0.84643 -6.98461,0.84643q-7.60547,0 -13.96922,-3.53962q-6.36376,-3.53962 -10.08888,-9.8109q-3.72513,-6.27128 -3.72513,-14.19695q0,-7.84872 3.72513,-14.12q3.72513,-6.27128 10.08888,-9.8109q6.36376,-3.53962 13.96922,-3.53962q7.68307,0 14.00802,3.53962q6.32495,3.53962 10.01128,9.8109q3.68632,6.27128 3.68632,14.12q0,7.15619 -3.06547,13.04273q-3.06547,5.88654 -8.34273,9.58006l12.41709,13.85069zm-45.32236,-36.47347q0,5.38638 2.09538,9.46464q2.09538,4.07826 5.85931,6.27128q3.76393,2.19303 8.65316,2.19303q4.88923,0 8.61435,-2.19303q3.72513,-2.19303 5.82051,-6.27128q2.09538,-4.07826 2.09538,-9.46464q0,-5.38638 -2.09538,-9.42616q-2.09538,-4.03978 -5.82051,-6.19433q-3.72513,-2.15455 -8.61435,-2.15455q-4.88923,0 -8.65316,2.15455q-3.76393,2.15455 -5.85931,6.19433q-2.09538,4.03978 -2.09538,9.42616zm143.41734,27.00884l-3.56991,-10.23412l-21.57469,0l-3.56991,10.23412l-11.4082,0l19.4793,-53.78683l12.64991,0l19.4793,53.78683l-11.4858,0zm-22.19554,-18.85232l15.67657,0l-7.83829,-22.46889l-7.83829,22.46889zm200.69115,18.85232l-18.93606,0l0,-53.70988l18.93606,0q8.53675,0 15.01691,3.30877q6.48017,3.30877 10.01128,9.42616q3.53111,6.11739 3.53111,14.19695q0,8.07957 -3.53111,14.12q-3.53111,6.04044 -10.01128,9.34921q-6.48017,3.30877 -15.01691,3.30877zm-0.38803,-44.62999l-7.68307,0l0,35.47314l7.68307,0q8.53675,0 13.19315,-4.6169q4.65641,-4.6169 4.65641,-13.00425q0,-8.38736 -4.65641,-13.11968q-4.65641,-4.73232 -13.19315,-4.73232z"/>
   </g>
  </g>
 </g>

</svg>