<svg width="141" height="40" viewBox="0 0 141 40" fill="none" xmlns="http://www.w3.org/2000/svg">
<g clip-path="url(#clip0_2_37)">
<path fill-rule="evenodd" clip-rule="evenodd" d="M38.1218 8.42151L26.2501 31.6294H15.0992L20.0675 22.011H19.8446C15.7458 27.3318 9.63029 30.8345 0.916626 31.6294V22.1442C0.916626 22.1442 6.49096 21.815 9.76795 18.3696H0.916626V8.42169H10.8646V16.6037L11.0878 16.6028L15.1529 8.42169H22.6763V16.5518L22.8996 16.5515L27.1171 8.42151H38.1218Z" fill="#146EF5"/>
<path d="M102.859 29.0678H106.063V10.6779H102.859V29.0678Z" fill="#080808"/>
<path fill-rule="evenodd" clip-rule="evenodd" d="M85.1966 28.8799C85.893 29.1695 86.601 29.3141 87.3208 29.3141C88.5101 29.3141 89.574 29.0247 90.5129 28.4458C91.4517 27.8668 92.1793 27.0687 92.6957 26.0517C93.2122 25.0267 93.4703 23.865 93.4703 22.5662C93.4703 21.2673 93.2043 20.1056 92.6723 19.0806C92.1403 18.0557 91.4009 17.2616 90.4542 16.6983C89.5076 16.1271 88.4318 15.8455 87.2269 15.8533C86.4602 15.8533 85.7247 16.002 85.0206 16.2993C84.3164 16.5966 83.7297 17.0191 83.2602 17.5667C83.224 17.6084 83.1888 17.6505 83.1546 17.6931V10.6896H79.939V29.0678H83.1311L83.1247 27.3509C83.2073 27.4521 83.2955 27.551 83.3894 27.6477C83.8979 28.172 84.5003 28.5827 85.1966 28.8799ZM88.4826 25.9108C87.9584 26.2315 87.3599 26.392 86.6871 26.392C86.022 26.392 85.4118 26.2277 84.8563 25.8991C84.3008 25.5626 83.8587 25.105 83.5301 24.526C83.2094 23.9471 83.049 23.2899 83.049 22.5544C83.0412 21.819 83.1977 21.1618 83.5184 20.5828C83.847 19.996 84.289 19.5422 84.8445 19.2215C85.4 18.8929 86.0142 18.7325 86.6871 18.7403C87.3599 18.7325 87.9584 18.8889 88.4826 19.2097C89.0146 19.5227 89.4215 19.9725 89.7031 20.5593C89.9926 21.1383 90.1373 21.8034 90.1373 22.5544C90.1373 23.3055 89.9926 23.9705 89.7031 24.5495C89.4215 25.1284 89.0146 25.5822 88.4826 25.9108Z" fill="#080808"/>
<path d="M42.7633 11.7928H46.4248L49.7003 23.7546L53.1847 11.7928H56.2359L60.0149 23.5146L63.16 11.7928H66.5164L61.5639 29.0678H58.407L54.5644 17.6165L51.037 29.0678H47.8448L42.7633 11.7928Z" fill="#080808"/>
<path fill-rule="evenodd" clip-rule="evenodd" d="M71.9235 29.3729C70.6482 29.3806 69.4982 29.099 68.4732 28.5279C67.4562 27.9489 66.6542 27.147 66.0674 26.1221C65.4884 25.0971 65.1989 23.9275 65.1989 22.6131C65.1989 21.3379 65.4963 20.1838 66.0908 19.151C66.6854 18.1183 67.4914 17.3125 68.5084 16.7335C69.5255 16.1545 70.6599 15.865 71.9118 15.865C73.32 15.865 74.5523 16.178 75.6085 16.8039C76.6726 17.4298 77.4667 18.3178 77.9908 19.4679C78.5229 20.6102 78.7146 21.9207 78.5659 23.3993H68.5134C68.5415 23.9885 68.6884 24.5245 68.9544 25.0071C69.2517 25.5392 69.6664 25.9539 70.1983 26.2511C70.7303 26.5484 71.325 26.6971 71.9822 26.6971C72.4829 26.6893 72.9484 26.6032 73.3787 26.439C73.809 26.2669 74.1728 26.036 74.4702 25.7466C74.7752 25.457 74.9904 25.1284 75.1156 24.7608H78.4721C78.2687 25.6605 77.8618 26.4624 77.2515 27.1666C76.6412 27.8628 75.8745 28.4066 74.9513 28.7978C74.028 29.189 73.0188 29.3806 71.9235 29.3729ZM68.9661 20.172C68.7786 20.499 68.6487 20.8511 68.5764 21.2283H75.24C75.1916 20.7517 75.0445 20.3175 74.7987 19.9256C74.5171 19.464 74.1337 19.108 73.6486 18.8577C73.1635 18.5995 72.6159 18.4704 72.0056 18.4704C71.3563 18.4704 70.7656 18.619 70.2336 18.9163C69.7016 19.2136 69.279 19.6322 68.9661 20.172Z" fill="#080808"/>
<path d="M95.8291 16.135C95.8291 15.0866 96.0679 14.1555 96.5451 13.3419C97.0223 12.5204 97.6913 11.8827 98.5519 11.4289C99.4202 10.9673 100.434 10.7287 101.591 10.7131V13.5648C101.052 13.5727 100.59 13.6861 100.207 13.9052C99.8311 14.1164 99.5415 14.4255 99.3381 14.8323C99.1508 15.2068 99.0497 15.6411 99.0349 16.135H101.521V18.8459H99.033V29.0678H95.8291V18.8459H93.7637V16.135H95.8291Z" fill="#080808"/>
<path fill-rule="evenodd" clip-rule="evenodd" d="M114.207 29.3494C112.901 29.3494 111.731 29.0638 110.698 28.4927C109.673 27.9137 108.867 27.1156 108.281 26.0986C107.702 25.0736 107.412 23.9119 107.412 22.6131C107.412 21.3065 107.702 20.1408 108.281 19.1158C108.867 18.0831 109.673 17.2812 110.698 16.71C111.731 16.1389 112.901 15.8533 114.207 15.8533C115.522 15.8533 116.695 16.1389 117.728 16.71C118.769 17.2812 119.578 18.0792 120.157 19.1041C120.736 20.129 121.03 21.2987 121.037 22.6131C121.03 23.9119 120.736 25.0736 120.157 26.0986C119.586 27.1156 118.78 27.9137 117.74 28.4927C116.699 29.0638 115.522 29.3494 114.207 29.3494ZM114.207 26.4038C114.896 26.4038 115.506 26.2473 116.038 25.9343C116.57 25.6135 116.981 25.1675 117.27 24.5964C117.56 24.0175 117.704 23.3564 117.704 22.6131C117.704 21.862 117.56 21.197 117.27 20.618C116.981 20.039 116.57 19.5931 116.038 19.2801C115.506 18.9594 114.896 18.799 114.207 18.799C113.526 18.799 112.92 18.9594 112.388 19.2801C111.864 19.5931 111.457 20.039 111.168 20.618C110.878 21.197 110.737 21.862 110.745 22.6131C110.745 23.3564 110.89 24.0175 111.179 24.5964C111.477 25.1675 111.883 25.6135 112.4 25.9343C112.924 26.2473 113.526 26.4038 114.207 26.4038Z" fill="#080808"/>
<path d="M124.499 16.135H120.932L124.793 29.0678H127.915L130.454 20.8076L133.196 29.0678H136.271L140.143 16.135H136.916L134.72 24.1848L132.292 16.135H129.17L126.754 24.3622L124.499 16.135Z" fill="#080808"/>
</g>
<defs>
<clipPath id="clip0_2_37">
<rect width="140" height="40" fill="white" transform="translate(0.916626)"/>
</clipPath>
</defs>
</svg>
