<svg width="572" height="92" xmlns="http://www.w3.org/2000/svg" fill="none">
 <g id="Layer_1">
  <title>Layer 1</title>
  <line fill="none" stroke="null" x1="291.62206" y1="19.87449" x2="285.74712" y2="31.37436" id="svg_5"/>
  <g stroke="null">
   <g stroke="#ffffff" fill="#ffffff" stroke-width="0.5" font-size="9pt" fill-rule="nonzero" stroke-linecap="round" id="svg_11">
    <path stroke="null" d="m204.78076,18.69036l12.06642,0l0,54.69763l-10.69177,0l0,-35.57697l-14.28115,35.57697l-8.0952,0l-14.35752,-35.57697l0,35.57697l-10.69177,0l0,-54.69763l12.14279,0l16.95409,40.67059l16.95409,-40.67059zm53.53521,8.85506l-20.23799,0l0,13.71359l17.94689,0l0,8.69833l-17.94689,0l0,14.49722l20.23799,0l0,8.93342l-30.92975,0l0,-54.776l30.92975,0l0,8.93342zm157.55083,0l-20.23799,0l0,13.71359l17.94689,0l0,8.69833l-17.94689,0l0,14.49722l20.23799,0l0,8.93342l-30.92975,0l0,-54.776l30.92975,0l0,8.93342zm96.91323,0l-20.23799,0l0,13.71359l17.94689,0l0,8.69833l-17.94689,0l0,14.49722l20.23799,0l0,8.93342l-30.92975,0l0,-54.776l30.92975,0l0,8.93342zm-466.772,-0.39182l-23.98011,36.98751l23.98011,0l0,9.24688l-36.35201,0l0,-8.46324l23.82737,-36.98751l-23.82737,0l0,-9.24688l36.35201,0l0,8.46324zm103.63377,46.23439l-12.3719,0l-11.76094,-21.31484l-5.0404,0l0,21.31484l-10.69177,0l0,-54.69763l20.00888,0q6.18595,0 10.53903,2.23336q4.35308,2.23336 6.52961,6.03398q2.17654,3.80062 2.17654,8.50243q0,5.40707 -3.05479,9.75624q-3.05479,4.34917 -9.088,5.9948l12.75375,22.17683zm-29.17325,-45.60748l0,16.06449l8.93526,0q4.35308,0 6.49143,-2.15499q2.13835,-2.15499 2.13835,-5.9948q0,-3.76144 -2.13835,-5.83807q-2.13835,-2.07663 -6.49143,-2.07663l-8.93526,0zm441.87546,45.60748l-12.3719,0l-11.76094,-21.31484l-5.0404,0l0,21.31484l-10.69177,0l0,-54.69763l20.00888,0q6.18595,0 10.53903,2.23336q4.35308,2.23336 6.52961,6.03398q2.17654,3.80062 2.17654,8.50243q0,5.40707 -3.05479,9.75624q-3.05479,4.34917 -9.088,5.9948l12.75375,22.17683zm-29.17325,-45.60748l0,16.06449l8.93526,0q4.35308,0 6.49143,-2.15499q2.13835,-2.15499 2.13835,-5.9948q0,-3.76144 -2.13835,-5.83807q-2.13835,-2.07663 -6.49143,-2.07663l-8.93526,0zm-441.87546,45.60748l-3.51301,-10.42233l-21.23079,0l-3.51301,10.42233l-11.22636,0l19.16881,-54.776l12.44827,0l19.16881,54.776l-11.30273,0zm-21.84175,-19.19903l15.42669,0l-7.71335,-22.8821l-7.71335,22.8821zm252.93666,19.19903l-3.51301,-10.42233l-21.23079,0l-3.51301,10.42233l-11.22636,0l19.16881,-54.776l12.44827,0l19.16881,54.776l-11.30273,0zm-21.84175,-19.19903l15.42669,0l-7.71335,-22.8821l-7.71335,22.8821zm37.49755,-35.49861l39.10132,0l0,8.85506l-14.20478,0l0,45.84257l-10.69177,0l0,-45.84257l-14.20478,0l0,-8.85506zm98.21152,0l0,45.9993l17.56505,0l0,8.69833l-28.25681,0l0,-54.69763l10.69177,0zm24.36196,0l10.69177,0l0,54.69763l-10.69177,0l0,-54.69763z"/>
   </g>
  </g>
 </g>

</svg>